<?xml version="1.0" encoding="UTF-8"?><svg id="b" xmlns="http://www.w3.org/2000/svg" viewBox="0 0 38 38"><defs><style>.d{fill:#ededed;stroke-width:0px;}</style></defs><g id="c"><path class="d" d="m19,0C8.5,0,0,8.5,0,19s8.5,19,19,19,19-8.5,19-19S29.5,0,19,0Zm11.3,25.8c0,2.4-2,4.4-4.4,4.4h-13.7c-2.4,0-4.4-2-4.4-4.4v-13.7c0-2.4,2-4.4,4.4-4.4h13.7c2.4,0,4.4,2,4.4,4.4v13.7Z"/><path class="d" d="m26,10.3c-.8,0-1.4.6-1.4,1.4s.6,1.4,1.4,1.4,1.4-.6,1.4-1.4-.6-1.4-1.4-1.4Z"/><path class="d" d="m19,11.8c-3.9,0-7.2,3.2-7.2,7.2s3.2,7.2,7.2,7.2,7.2-3.2,7.2-7.2-3.2-7.2-7.2-7.2Zm0,12.3c-2.8,0-5.1-2.3-5.1-5.1s2.3-5.1,5.1-5.1,5.1,2.3,5.1,5.1-2.3,5.1-5.1,5.1Z"/></g></svg>