<?xml version="1.0" encoding="UTF-8"?><svg id="b" xmlns="http://www.w3.org/2000/svg" viewBox="0 0 38 38"><defs><style>.d{fill:#ededed;stroke-width:0px;}</style></defs><g id="c"><path class="d" d="m19,0C8.5,0,0,8.5,0,19s8.5,19,19,19,19-8.5,19-19S29.5,0,19,0Zm0,30.1c-1.9,0-3.7-.5-5.3-1.3l-6.2,1.7,1.7-6.2c-.9-1.6-1.3-3.4-1.3-5.3,0-6.2,5-11.2,11.2-11.2s11.2,5,11.2,11.2-5,11.2-11.2,11.2Z"/><path class="d" d="m19,9.6c-5.1,0-9.3,4.2-9.3,9.3s.4,3.3,1.3,4.7l.2.3-1,3.8,3.8-1,.3.2c1.4.8,3,1.3,4.7,1.3,5.1,0,9.3-4.2,9.3-9.3s-4.2-9.3-9.3-9.3Zm4.3,14.4c-.6.3-1.2.3-1.9.1-3.9-.9-6.6-3.2-7.9-7.1-.3-.8-.2-1.6.2-2.3.4-.7,1-1.1,2-1.1.2,0,.4.1.4.3l1.1,2.7c0,.2,0,.4,0,.5l-.8.8c0,.1-.1.3,0,.4.9,1.8,2.2,2.8,3.9,3.4.1,0,.3,0,.4-.1l.9-1.1c.1-.1.3-.2.5-.1l2.4,1c.2,0,.3.2.3.4,0,1.2-.5,1.9-1.4,2.3Z"/></g></svg>