<?xml version="1.0" encoding="utf-8"?>
<!-- Generator: Adobe Illustrator 28.0.0, SVG Export Plug-In . SVG Version: 6.00 Build 0)  -->
<svg version="1.1" id="Слой_1" xmlns="http://www.w3.org/2000/svg" xmlns:xlink="http://www.w3.org/1999/xlink" x="0px" y="0px"
	 viewBox="0 0 2699.7 2699.8" style="enable-background:new 0 0 2699.7 2699.8;" xml:space="preserve">
<style type="text/css">
	.st0{fill:#78378C;}
	.st1{enable-background:new    ;}
	.st2{fill:#BF92C2;}
</style>
<g>
	<path class="st0" d="M2365.9,1218.4c-15,5-4-236-7-242c1-19,16-14,17-36c0-12-5-19-8-22l-19-9h-45c65-31,55-115-26-114
		c-31,2-32,7-41,18c-10-21-44-19-67-20c-12,0-30,0-42,5c-45,23,2,97,37,111h-57l-13,6l-13-6h-105c-13,0-23,8-37,28
		c-16,24-16,35-16,39c-2,22,35,56,51,50v105c-25-36-61-57-108-69v-86c0-9,4-12,7-15c13-10,13-32,3-43l-20-9h-96l-20,9l-1,1l-8-10
		c-78-13-195,2-215,112c-22-62-71-120-115-129c-34,7-72,44-97,88c1-15,0-30-1-44l-21-25c-129-28-230,24-223,173c-1,24-13,18-14,40v1
		c-18-25-43-44-72-54c55-23,94-75,93-137l-22-25c-79-13-195,2-215,112c-22-62-72-120-116-129c-38,8-81,54-106,106
		c-13-73-79-142-136-48c6-10,0-28-5-32l-20-9h-96l-20,9c-10,11-10,33,3,42c3,4,7,7,7,16c-2,13,5,102-7,110c-10,9-9,33,1,41
		c1,1,6,6,6,13v62c0,9-4,13-7,16c-13,10-13,31-3,43l20,9h96c13-7,23-6,27-24c2,11,11,19,19,22c-2,3,92,2,95,2c27-2,38-37,17-52
		c-2-2-3-3-3-8c0-41-15-78-44-105l18-9v2c3,20,13,14,16,36l2,2h-2c14,63,74,142,122,151c45-12,91-63,114-123v39c-1,19-17,14-18,36
		c0,11,6,19,8,22l20,9h210l9-6l13,6h97l19-9c3-3,8-11,8-22s-7-18-10-21s-7-7-7-15v-44c41-6,70-24,90-50c4,8,10,9,12,25l2,2h-1
		c13,63,73,142,122,151c44-12,90-63,113-123v39c-1,19-16,14-17,36c0,11,5,19,7,22l20,9h210l11-7l15,7h210l6-4c0,7,101,3,105,4l13-6
		l14,6h96l20-9l4-7l4,7l19,9h97l19-9c3-3,8-11,8-22S2368.9,1221.4,2365.9,1218.4z M1176.9,1070.4c0-40,4-61,11-72
		C1187.9,1023.4,1180.9,1069.4,1176.9,1070.4z M958.9,1189.4h-15v-38C953.9,1161.4,958.9,1173.4,958.9,1189.4z M705.9,1102.4
		c9-12,5-33-7-42c-9-6-5-30-3-40c22,15,50,85,37,139c-10-10-21-25-29-46C701.9,1107.4,705.9,1103.4,705.9,1102.4z M518.9,1078.4
		l-21-9c7-12,15-24,24-35l4,5C515.9,1050.4,515.9,1066.4,518.9,1078.4z M466.9,958.4l-9,14C458.9,964.4,462.9,963.4,466.9,958.4z
		 M473.9,1235.4c-3-19-16-14-16-32v-58C493.9,1172.4,477.9,1212.4,473.9,1235.4z M1646.9,1189.4h-16v-38
		C1640.9,1161.4,1645.9,1173.4,1646.9,1189.4z M1882.9,1189.4h-16v-38C1879.9,1163.4,1882.9,1178.4,1882.9,1189.4z M1749.9,970.4
		l1,6v91c-2,23-13,18-14,40c0,10,5,17,8,21c1,0,6,5,6,12v13c-17-38-50-69-89-82c44-18,77-55,89-101H1749.9z M1392.9,1102.4
		c9-12,6-33-7-42c-9-6-5-30-2-41c21,16,50,86,36,140c-10-10-21-25-29-46C1389.9,1107.4,1392.9,1102.4,1392.9,1102.4z M2228.9,952.4
		c5,10,12,9,14,21c-9,4-18,11-28,19C2214.9,965.4,2212.9,972.4,2228.9,952.4z M2098.9,976.4c-2,13,5,102-7,110l-1,1
		c0-52,0-106,5-122C2096.9,968.4,2098.9,971.4,2098.9,976.4z M2091.9,1203.4v-77l1,2c0,0,6,5,6,12v63c0,5-2,8-3,11
		C2093.9,1211.4,2091.9,1208.4,2091.9,1203.4z M2218.9,1132.4c6-21,13-32,24-45v62C2235.9,1142.4,2225.9,1134.4,2218.9,1132.4z
		 M2236.9,838.4l6,12c-4,1-11,1-13-5L2236.9,838.4z M2228.9,1226.4c-2-4-5-6-7-8c7-4,15-10,21-17
		C2242.9,1216.4,2234.9,1216.4,2228.9,1226.4z M2142.9,1761.4c-2-2-3-3-3-8c0-42-15-77-43-105c11-4,25-14,33-23
		c58-61-29-252-109-148c-3-20-13-18-26-26h-97c-13,8-24,6-27,26c-49-64-102-15-121,46c-8-25-23-49-44-65c14-4,42-67,38-70
		c0-4,0-13-16-35c-26-41-53-34-77,4c-24-38-51-44-77-5c-16,22-16,31-16,35c2,18,22,72,47,75c-44,42-78,90-79,177c0,9-2,15-4,19
		c-4-4-10-6-15-20c-22-93-23-116-36-166c-3-8-11-21-30-21h-88c-22-5-57,55-53,66c-3,19,30,52,45,51c-27,51-59,105-68,168h-4l-7-26
		c-1-7,2-13,3-14c8-11,1-35-9-40c-2-1-9-7-11-17c-17-70-25-111-29-135c-7-28-5-49-38-52h-86c-13,0-23,8-37,28c-23,37-21,47,0,72
		c12,12,21,15,26,16c-15,31-35,65-50,102c-5-16-15-11-21-32c-22-90-24-115-37-165c-3-8-11-21-30-21h-88c-21-6-57,55-53,66
		c-3,19,30,51,44,51c-17,34-41,75-55,117c-11-20-24-37-40-47c50,5,62-84,16-87c7-30,51-59,26-85c-15-25-183-12-224-15l-19,9
		c-10,11-10,33,2,42c4,4,7,7,7,16v84c0,10-5,18-6,19c-10.2,12.3-9.8,30.2,1,42c0,0,5,5,6,12v70c0,8-4,12-8,15c-3,3-10,10-10,21
		s6,19,8,22l20,9h210l14-9l11,9h77c13-5,22-6,27-21c6,16,15,15,27,21h89l11-4l4,4h78c11-6,21-6,26-21c5,16,14,15,26,21h90v-1
		c11,15,22,30,22,44c0,18,17,30,33,30c27,0,43-43,45-73h68c-1,31,32,93,62,93c16,0,32-15,32-31l-2-23c0-49,59-70,24-113l-6,6l-12-12
		l-6-24v-4c7,5,14,5,20,15c21,44,69,104,109,109c35-7,75-47,100-94l-1,18c0,5-1,6-3,7c-16,12-13,41,5,49c5,5,91,3,99,3
		c9,0,17-4,22-13c1,5,20,11,23,13h96c4-2,22-8,23-13c5,9,13,13,22,13c8,0,94,2,98-2c19-9,22-38,6-50V1761.4z M1827.9,1582.4l2-2
		l19,33l-13,7C1838.9,1608.4,1837.9,1593.4,1827.9,1582.4z M2056.9,1620.4l-14-7l20-33l1,2
		C2054.9,1593.4,2053.9,1608.4,2056.9,1620.4z M1656.9,1562.4c-8,1-16,2-23,5c1-7,3-13,6-20L1656.9,1562.4z M1673.9,1694.4l-1,9
		c-6-5-11-11-16-19l9-2C1666.9,1686.4,1669.9,1690.4,1673.9,1694.4z M1650.9,1424.4l5,11c-4,0-6-1-12,1L1650.9,1424.4z
		 M1406.9,1732.4h-19c-2-9-2-17-1-25C1389.9,1722.4,1396.9,1721.4,1406.9,1732.4z M1388.9,1686.4l4-19
		C1393.9,1677.4,1389.9,1684.4,1388.9,1686.4z M707.9,1613.4l-28-8v-44C685.9,1583.4,696.9,1601.4,707.9,1613.4z M695.9,1732.4h-16
		v-38C689.9,1703.4,694.9,1716.4,695.9,1732.4z M919.9,1763.4c-3,4-6,8-7,13l-5-12c-3-5-10-28,7-29c1,7,6,24,5,29V1763.4z
		 M1154.9,1764.4c-4,4-7,9-8,15l-22-23c9,0,15,6,16,8c-2-4-10-24-9-48c5,11,12,7,18,21C1152.9,1749.4,1155.9,1757.4,1154.9,1764.4z
		 M1768.9,1654.4c-12-18-51-10-68-12l1-2c24-2,40-15,49-33c3,7,6,13,11,18c9,9,23,19,34,23l-21,24
		C1774.9,1666.4,1772.9,1659.4,1768.9,1654.4z M1876.9,1765.4c-5-18-6-56,11-71v51C1887.9,1757.4,1882.9,1758.4,1876.9,1765.4z
		 M2015.9,1765.4c-6-7-11-8-11-20v-51C2021.9,1709.4,2020.9,1747.4,2015.9,1765.4z"/>
	<g class="st1">
		<path class="st2" d="M576.1,1211.6c0,21.6,13.8,27,13.8,28.6c0,3.8-2.5,5.1-2.5,5.1h-86.2c0,0-2.5-0.9-2.5-5.1
			c2.8-7.6,7.2-23.7,7.2-48.2c0-52.1-36.6-72.3-62.5-80.1c-3.4,3.7-11.7,14.3-11.7,29v62.8c0,25.3,17.2,34.3,17.2,36.5
			c0,3.2-1.7,5.1-1.7,5.1h-96.5c0,0-1.7-2-1.7-5.1c0-2.2,17.2-11.2,17.2-36.5v-62.8c0-17.8-12.3-29.7-13.2-30.5
			c-0.8-0.8-0.9-5.4,0-6.3c1.4-1.4,13.2-16.1,13.2-36.5v-90.7c0-25.3-17.2-34.3-17.2-36.5c0-3.2,1.7-5.1,1.7-5.1h96.5
			c0,0,1.7,2,1.7,5.1c0,2.2-17.2,11.2-17.2,36.5v90.7c0,0.2,0,0.4,0,0.6c19.5-36.9,75.2-137.8,100-137.8c22.1,0,53,44.2,53,96.6
			c0,20.5-6.5,33.9-10.9,38.2l0,0.1c-8.7,8.7-21.5,17.2-25.2,17.2c-4,0-10.3-19-3.3-26c2-2,4.7,7.5,16.6,8.8c1-4.4,0.2-11-3.5-18.6
			c-8.2-16.1-20.1-37.6-38.3-48.2c-24.2,23.4-48.6,62.9-62,86.2C514.3,1097,576.2,1132,576.1,1211.6L576.1,1211.6z M410.1,1103.7
			c0-7.6-11.1-12.5-11.1-12.5s-11.1,4.9-11.1,12.5v8.6c0,7.6,11.1,12.5,11.1,12.5s11.1-4.9,11.1-12.5V1103.7z"/>
	</g>
	<g class="st1">
		<path class="st2" d="M714.3,918.3c10.2,0,101.7,66.2,101.7,168.2c0,119.3-97.5,175.8-101.7,175.8c-8.9,0-79.4-50.3-97.4-130.6
			h-0.1c0-0.3-0.3-1.4-0.3-1.8c-3-16.4-8.1-27.4-14.1-30.8c-1-0.6-2-5.3-1-6.2c10.5-10.1,14.6-35.4,14.6-35.4
			C632.9,963.3,710.6,918.3,714.3,918.3L714.3,918.3z M655.1,1090.3c0-7.6-11.1-12.5-11.1-12.5s-11.1,4.9-11.1,12.5v8.6
			c0,7.6,11.1,12.5,11.1,12.5s11.1-4.9,11.1-12.5V1090.3z M745.1,1200.4c8.9-18.7,16.1-41.4,16.1-66.4
			c0-107.3-59.1-144.8-77.7-153.9c-8.9,18.7-16.1,41.4-16.1,66.4c0,1.2,0.1,2.3,0.1,3.5c1.8,22.6,14.8,31,16.4,32.1
			c1.1,0.8,1.7,5.2,1,6.2c-0.7,1-11,15-5.5,33.1h-0.1C697.6,1172.4,731.7,1193.8,745.1,1200.4L745.1,1200.4z"/>
		<path class="st2" d="M930.6,1086.2c56.6,11.4,121.1,46.8,121.1,135.7c0,14.9-4.2,23.4-4.2,23.4H837.4c0,0-1.7-2-1.7-5.1
			c0-2.2,17.2-11.2,17.2-36.5v-69.2c0-17.8-12.3-29.7-13.2-30.5c-0.8-0.8-0.9-5.4,0-6.3c1.4-1.4,13.2-16.1,13.2-36.5v-3.9
			c0-111.8,92.4-125.1,128.8-125.1s59.6,3.1,59.6,3.1c0,88.5-77.2,118.7-122.8,128.9c0.8,17.5,7.7,20.6,12.1,21.9
			C930.6,1086,930.6,1086.1,930.6,1086.2L930.6,1086.2z M896.7,1097.2c0-7.6-11.1-12.5-11.1-12.5s-11.1,4.9-11.1,12.5v8.6
			c0,7.6,11.1,12.5,11.1,12.5s11.1-4.9,11.1-12.5V1097.2z M918.4,1034.9c26.6-10.3,58.2-31.4,58.2-73.7c0,0-58.2-0.2-58.2,69.8
			V1034.9z M983.2,1215.6c0.9-6.7,1.5-14.6,1.5-23.6c0-48.2-31.3-69-56.5-78.1c-4.4-1.2-9.8,3.4-9.8,20.5v64.8
			c0,16.4,11.7,16.4,13.8,16.4L983.2,1215.6L983.2,1215.6z"/>
	</g>
	<g class="st1">
		<path class="st2" d="M1151.2,1158.6v45.1c0,25.3,17.2,34.3,17.2,36.5c0,3.2-1.7,5.1-1.7,5.1h-96.5c0,0-1.7-2-1.7-5.1
			c0-2.2,17.2-11.2,17.2-36.5v-45.1c0-17.8-12.3-29.7-13.2-30.5c-0.8-0.8-0.9-5.4,0-6.3c1.4-1.4,13.2-16.1,13.2-36.5V1073
			c0-95.7,45.5-142.3,130.9-142.3c21.7,0,62.1,6.5,62.1,6.5c0,40.6,3.9,122.9-34.4,161.2c-25.2,25.2-54.3,34.7-80,37.2v0
			C1160.8,1135.7,1151.2,1140.8,1151.2,1158.6L1151.2,1158.6z M1129.5,1121.3c0-7.6-11.1-12.5-11.1-12.5s-11.1,4.9-11.1,12.5v8.6
			c0,7.6,11.1,12.5,11.1,12.5s11.1-4.9,11.1-12.5V1121.3z M1151.2,1085.3c0,20,5.9,21.2,8.5,20.9c12.8-2.6,25.5-7.9,35.5-17.9
			c19.8-19.8,18.3-100.9,17.2-127.9c-52.5,6.2-61.2,40.1-61.2,112.6V1085.3z"/>
	</g>
	<g class="st1">
		<path class="st2" d="M1401.6,918.3c10.2,0,101.7,66.2,101.7,168.2c0,119.3-97.5,175.8-101.7,175.8c-8.9,0-79.4-50.3-97.4-130.6
			h-0.1c0-0.3-0.3-1.4-0.3-1.8c-3-16.4-8.1-27.4-14.1-30.8c-1-0.6-2-5.3-1-6.2c10.5-10.1,14.6-35.4,14.6-35.4
			C1320.2,963.3,1397.9,918.3,1401.6,918.3L1401.6,918.3z M1342.4,1090.3c0-7.6-11.1-12.5-11.1-12.5s-11.1,4.9-11.1,12.5v8.6
			c0,7.6,11.1,12.5,11.1,12.5s11.1-4.9,11.1-12.5V1090.3z M1432.4,1200.4c8.9-18.7,16.1-41.4,16.1-66.4
			c0-107.3-59.1-144.8-77.7-153.9c-8.9,18.7-16.1,41.4-16.1,66.4c0,1.2,0.1,2.3,0.1,3.5c1.8,22.6,14.8,31,16.4,32.1
			c1.1,0.8,1.7,5.2,1,6.2c-0.7,1-11,15-5.5,33.1h-0.1C1384.9,1172.4,1419,1193.8,1432.4,1200.4L1432.4,1200.4z"/>
		<path class="st2" d="M1617.9,1086.2c56.6,11.4,121.1,46.8,121.1,135.7c0,14.9-4.2,23.4-4.2,23.4h-210.2c0,0-1.7-2-1.7-5.1
			c0-2.2,17.2-11.2,17.2-36.5v-69.2c0-17.8-12.3-29.7-13.2-30.5c-0.8-0.8-0.9-5.4,0-6.3c1.4-1.4,13.2-16.1,13.2-36.5v-3.9
			c0-111.8,92.4-125.1,128.8-125.1s59.6,3.1,59.6,3.1c0,88.5-77.2,118.7-122.8,128.9c0.8,17.5,7.7,20.6,12.1,21.9
			C1617.9,1086,1617.9,1086.1,1617.9,1086.2L1617.9,1086.2z M1584,1097.2c0-7.6-11.1-12.5-11.1-12.5s-11.1,4.9-11.1,12.5v8.6
			c0,7.6,11.1,12.5,11.1,12.5s11.1-4.9,11.1-12.5V1097.2z M1605.7,1034.9c26.6-10.3,58.2-31.4,58.2-73.7c0,0-58.2-0.2-58.2,69.8
			V1034.9z M1670.5,1215.6c0.9-6.7,1.5-14.6,1.5-23.6c0-48.2-31.3-69-56.5-78.1c-4.4-1.2-9.8,3.4-9.8,20.5v64.8
			c0,16.4,11.7,16.4,13.8,16.4L1670.5,1215.6L1670.5,1215.6z"/>
		<path class="st2" d="M1854.9,1086.4c56.3,11.6,120.1,47.2,120.1,135.5c0,14.9-4.2,23.4-4.2,23.4h-210.2c0,0-1.7-2-1.7-5.1
			c0-2.2,17.2-11.2,17.2-36.5v-62.8c0-17.8-12.3-29.7-13.2-30.5c-0.8-0.8-0.9-5.4,0-6.3c1.4-1.4,13.2-16.1,13.2-36.5v-90.7
			c0-25.3-17.2-34.3-17.2-36.5c0-3.2,1.7-5.1,1.7-5.1h96.5c0,0,1.7,2,1.7,5.1c0,2.2-17.2,11.2-17.2,36.5v90.7
			c0,16.9,13.2,18.5,13.2,18.5C1854.8,1086.1,1854.9,1086.3,1854.9,1086.4L1854.9,1086.4z M1820,1103.7c0-7.6-11.1-12.5-11.1-12.5
			s-11.1,4.9-11.1,12.5v8.6c0,7.6,11.1,12.5,11.1,12.5s11.1-4.9,11.1-12.5V1103.7z M1908,1192c0-46.1-28.7-67.2-53.2-76.9
			c-3.5-1.4-13.1,6.4-13.1,24.2v60c0,16.4,11.7,16.4,13.8,16.4h51.1C1907.4,1208.9,1908,1201,1908,1192z M2066.3,1203.7
			c0,25.3,17.2,34.3,17.2,36.5c0,3.2-1.7,5.1-1.7,5.1h-96.5c0,0-1.7-2-1.7-5.1c0-2.2,17.2-11.2,17.2-36.5V976.9
			c0-15.2-8.7-15.4-13.7-15.4c-2.9,0-13.3,4-15.8,12.1c6.9-0.7,13.6-0.9,15.3,0.9c3,3-10.8,26.9-14.9,26.9
			c-4.7,0-22.1-15.5-22.1-24.9c0-9.4,22-41.2,27.3-41.2h105c0,0,1.7,2,1.7,5.1c0,2.2-17.2,11.2-17.2,36.5L2066.3,1203.7
			L2066.3,1203.7z"/>
		<path class="st2" d="M2333.3,1203.7c0,25.3,17.2,34.3,17.2,36.5c0,3.2-1.7,5.1-1.7,5.1h-96.5c0,0-1.7-2-1.7-5.1
			c0-2.2,17.2-11.2,17.2-36.5v-153c-2.5-1.1-5.3-1.9-8.6-1.9c-20.8,0-68.3,42.5-69.7,111.9c0.4,15.7,12.3,15.8,14.9,15.6
			c0.4-8.6,1.3-17.5,3.2-19.4c3-3,21.6,14.4,21.6,18.5c0,4.7-15.5,22.1-24.9,22.1c-3.1,0-8.8-2.5-15-6v12.1
			c0,25.3,17.2,34.3,17.2,36.5c0,3.2-1.7,5.1-1.7,5.1h-96.5c0,0-1.7-2-1.7-5.1c0-2.2,17.2-11.2,17.2-36.5v-62.8
			c0-17.8-12.3-29.7-13.2-30.5c-0.8-0.8-0.9-5.4,0-6.3c1.4-1.4,13.2-16.1,13.2-36.5v-90.7c0-25.3-17.2-34.3-17.2-36.5
			c0-3.2,1.7-5.1,1.7-5.1h96.5c0,0,1.7,2,1.7,5.1c0,2.2-17.2,11.2-17.2,36.5v91c19.6-38.7,57.3-74.1,75.2-74.1
			c1.2,0,2.2,0.2,3.3,0.3v-17.2c0-25.3-17.2-34.3-17.2-36.5c0-3.2,1.7-5.1,1.7-5.1h96.5c0,0,1.7,2,1.7,5.1
			c0,2.2-17.2,11.2-17.2,36.5V1203.7z M2135.7,825.4c0-10,78.7-6.9,78.7,0c0,2.3-10.2,6-10.2,17.5c0,34,41,43.2,60,24.3
			c17.2-17.2-8.9-36.6-3.7-41.8c6.9-6.9,61-6.4,61,23.7c0,27-37.2,51.2-88.6,51.2C2170.9,900.2,2135.7,862.1,2135.7,825.4z
			 M2167.7,1103.7c0-7.6-11.1-12.5-11.1-12.5s-11.1,4.9-11.1,12.5v8.6c0,7.6,11.1,12.5,11.1,12.5s11.1-4.9,11.1-12.5V1103.7z"/>
	</g>
	<g class="st1">
		<path class="st2" d="M667,1628.8c56.6,11.4,121.1,46.8,121.1,135.7c0,14.9-4.2,23.4-4.2,23.4H573.8c0,0-1.7-2-1.7-5.1
			c0-2.2,17.2-11.2,17.2-36.5v-69.2c0-17.8-12.3-29.7-13.2-30.5c-0.8-0.8-0.9-5.4,0-6.3c1.4-1.4,13.2-16.1,13.2-36.5v-84.3
			c0-25.3-17.2-34.3-17.2-36.5c0-3.2,1.7-5.1,1.7-5.1h132.7c37.3,0,66.1,1.9,72.4,8.2c4.5,4.5-35.2,37.3-35.2,82.7
			c0,3.7,0.2,7,0.4,10.1c1.3,5.3,3.7,9.6,6,12.7c5-1.5,11.7-4.8,19.6-12.7c3.8-3.8,9.2,19.9-2,31.2c-10.6,10.6-29-2.8-29.5-3.2
			c-12.4-8.6-36.7-33.8-36.7-79.6c0-7.6,0.6-13.9,1.4-19c-4.8-0.3-9.8-0.5-15.3-0.5h-20.9c0,0-11.9-1.3-11.9,19.4v76.9
			c0,20.4,7.6,23.5,12.2,24.9C666.9,1628.6,667,1628.8,667,1628.8L667,1628.8z M633.1,1639.8c0-7.6-11.1-12.5-11.1-12.5
			s-11.1,4.9-11.1,12.5v8.6c0,7.6,11.1,12.5,11.1,12.5s11.1-4.9,11.1-12.5V1639.8z M721.1,1734.6c0-48-31.1-69-56.3-78.1
			c-4.4-1.4-10.1,3-10.1,20.5v64.8c0,16.4,11.7,16.4,13.8,16.4h51.1C720.5,1751.5,721.1,1743.6,721.1,1734.6z"/>
		<path class="st2" d="M1013.1,1743.4c6.4,25.2,19.5,38.4,19.5,39.4c0,2.8-3.1,5.1-3.1,5.1H940c0,0-2.2-2.1-2.2-5.1
			c0-0.9,12.2-7.6,6.3-33.7c-3.5-15.1-6-26.1-8.4-36.4c-4.9-1.8-10.1-2.8-15.8-2.8c-52,0-46.2,56.5-29.7,72.9c0,2.3-3.6,5.1-3.6,5.1
			h-76.7c0,0-3.9-12.9-3.9-22c0-86.8,70.4-175,87.9-231.5c-3-11.5-7.3-20-11.8-26.3c-0.5-0.3-7.5-4.1-12.3-4.1
			c-2.9,0-13.3,4-15.8,12.1c6.9-0.7,13.6-0.9,15.3,0.9c3,3-10.8,26.9-14.9,26.9c-4.7,0-22.1-15.5-22.1-24.9s22-41.2,27.3-41.2h88.1
			c11,0,3.5,4.6,41.7,167.4l0.1,0c4.8,19.8,19.7,31.4,21.3,32.4c1.1,0.7,2.1,5.1,1.5,6.1c-0.6,1-9.8,15.4-5.6,32.7l2.5,10.4
			C1010.3,1732.3,1011.7,1737.7,1013.1,1743.4L1013.1,1743.4z M925.4,1668.6c-4.6-19.5-10.8-46-20.6-88
			c-16.9,32.9-36.5,82-37.2,133.7C875.1,1692.3,893.1,1672.3,925.4,1668.6z M978,1687.7c0-7.6-11.1-12.5-11.1-12.5
			s-11.1,4.9-11.1,12.5v8.6c0,7.6,11.1,12.5,11.1,12.5s11.1-4.9,11.1-12.5V1687.7z"/>
		<path class="st2" d="M1267.4,1782.8c0,2.8-3.1,5.1-3.1,5.1h-89.6c0,0-2.2-2.1-2.2-5.1c0-0.9,12.2-7.6,6.3-33.7
			c-0.5-2.1-4.2-17.4-4.2-17.4c-4.2-17.3-18.9-26-19.9-26.6s-2.2-5-1.5-6.1c1-1.7,9.8-19,5-38.8c-4.3-18.2-9.9-42.4-18.2-77.6
			c-15.9,33.5-34,82.9-34,134.5c0,36.8,13.1,65.6,18.8,65.6c0,2.1-2.9,5.1-2.9,5.1h-77.4c0,0-3.9-12.9-3.9-22
			c0-86.8,70.4-175,87.9-231.5c-3.2-12.3-7.8-21.2-12.6-27.5c-2.6-1.2-6.6-2.8-9.7-2.8c-2.9,0-13.3,4-15.8,12.1
			c6.9-0.7,13.6-0.9,15.3,0.9c3,3-10.8,26.9-14.9,26.9c-4.7,0-22.1-15.5-22.1-24.9c0-9.4,22-41.2,27.3-41.2h86.3
			c11,0,3.4,4.6,41.8,167.8c4.8,19.7,19.6,30.9,21.3,32c1.1,0.7,2.1,5.1,1.5,6.1c-0.6,1-9.7,15.4-5.7,32.6
			c2.2,8.7,4.4,17.7,6.8,27.1C1254.2,1768.5,1267.4,1781.7,1267.4,1782.8z M1210.1,1687.7c0-7.6-11.1-12.5-11.1-12.5
			s-11.1,4.9-11.1,12.5v8.6c0,7.6,11.1,12.5,11.1,12.5s11.1-4.9,11.1-12.5V1687.7z"/>
		<path class="st2" d="M1529.7,1758.2c5,5.1,4,15.4,2,17.4c-10.8,10.8-33.1,46.4-33.1,77.5c0,11.9,1.9,20.9,1.9,22.9
			c0,2-4.1,5.8-6.7,5.8s-36.5-35.6-36.5-70.4c0-16.4,4.5-23.5-1.2-23.5h-110.8c-10.2,0-6.8,10-6.8,24.1c0,24.2-16.3,49.5-19.1,49.5
			c-2.8,0-7.5-2.7-7.5-5c0-33.3-44.8-79.4-44.8-86.4c0-2.1,0.3-7.9,4.1-7.9c27.4,0,28.5-5.8,28.5-5.8h0.2
			c4.8-83.7,70.5-167.6,87.4-222c-3.1-11.9-7.6-20.6-12.2-26.9c-0.1,0-7.5-4.1-12.5-4.1c-2.9,0-13.3,4-15.8,12.1
			c6.9-0.7,13.6-0.9,15.3,0.9c3,3-10.8,26.9-14.9,26.9c-4.7,0-22.1-15.5-22.1-24.9c0-9.4,22-40.5,27.3-40.5h88.6
			c11,0,2.9,4.7,41.3,166.7c4.8,19.7,19.7,31.3,21.3,32.3c1.1,0.7,2.1,5.1,1.5,6.1s-9.5,15.3-5.3,32.5c0,0,5.4,21.9,6.9,27.8
			c3.3,12.9,16.4,14.9,17.5,14.9L1529.7,1758.2L1529.7,1758.2z M1370.3,1758.2h68.9c0-6.7-5.8-27.1-5.8-27.1
			c-4.2-17.3-19.3-26-20.3-26.6c-1-0.6-2.2-5-1.5-6.1c1-1.7,10.1-19,5.3-38.8c-4.3-18.5-10.1-43-18.5-78.9
			c-17.2,33.5-37.3,83.8-37.3,136.5C1361,1733.2,1365.4,1747.2,1370.3,1758.2L1370.3,1758.2z M1468.4,1687.7
			c0-7.6-11.1-12.5-11.1-12.5s-11.1,4.9-11.1,12.5v8.6c0,7.6,11.1,12.5,11.1,12.5s11.1-4.9,11.1-12.5V1687.7z"/>
	</g>
	<g class="st1">
		<path class="st2" d="M1744.5,1668.5c3.3,0,5.8,3.1,5,6.3c-20,88.1-92.9,130.1-96.5,130.1c-7,0-52.9-31.7-80.6-84.9l-5.6-10.9
			c-7.6-16.1-23.8-21.6-24.9-22c-1.1-0.4-3.1-4.5-2.7-5.7c0.7-1.8,12-15.8,12-41.3c0,0,0-2.3,0-3.4c0-119.3,97.5-175.8,101.7-175.8
			c30.4,0,80.3,55.4,80.3,103.2c0,40-21,51.6-29.7,51.6c-4,0-7.4-11.4-2.9-15.9c1.8-1.7,5.1,3,9.2,4.9c1.8-3.7,1.1-10.8-4.1-18.9
			c-15.3-23.8-41.8-63.4-79.5-71.1c-10.7,20.1-20.2,45.7-20.2,74.4c0,12.9,1,24.5,2.6,35.5c8.3-19.8,25.6-35.8,50.8-35.8
			c20.5,0,30,18.4,30,19.9c0,7.5-30,50.6-33.5,50.6c-2,0-8-1.3-8-3.5c0-2.1,6.6-27.8-9.2-27.8c-10,0-27.6,16.4-14.4,50
			c0.6,1,6.7,13.8,6.7,13.8l-0.1,0c1,1.7,2.1,3.5,3.2,5.2c17.8,27.5,39.1,40.7,49.3,45.8c8.9-15.4,15.9-33.1,15.9-50.7
			c0-12.8-8.7-14.5-8.7-16.2c0-4.3,4-7.4,4-7.4H1744.5z M1595.9,1672.6c-0.1-0.6-1.9-7.8-2-8.4c-1.8-7.4-13.7-9.6-13.7-9.6
			s-9.6,7.3-7.8,14.7c0.1,0.6,1.9,7.8,2,8.4c1.8,7.4,13.7,9.6,13.7,9.6S1597.7,1680,1595.9,1672.6z M1609.7,1438.1
			c-7.3,0-26.6-43.7-26.6-50c0-6.3,20.2-36.2,27.1-36.2c6.8,0,27.1,31,27.1,37.2C1637.4,1395.3,1617,1438.1,1609.7,1438.1
			L1609.7,1438.1z M1690.3,1438.1c-7.3,0-26.6-43.7-26.6-50c0-6.3,20.2-36.2,27.1-36.2c6.8,0,27.1,31,27.1,37.2
			C1717.9,1395.3,1697.6,1438.1,1690.3,1438.1L1690.3,1438.1z"/>
	</g>
	<g class="st1">
		<path class="st2" d="M2128.2,1782.8c0,3.8-2.5,5.1-2.5,5.1h-86.2c0,0-2.5-0.9-2.5-5.1c2.8-7.6,7.2-23.7,7.2-48.2
			c0-46.9-29.4-69.3-53.9-79.8c-3.5,3.9-11.5,14.3-11.5,28.7v62.8c0,25.3,17.2,34.3,17.2,36.5c0,3.2-1.7,5.1-1.7,5.1h-96.5
			c0,0-1.7-2-1.7-5.1c0-2.2,17.2-11.2,17.2-36.5v-62.8c0-14.4-8-24.8-11.5-28.7c-24.6,10.6-53.9,32.9-53.9,79.8
			c0,24.5,4.5,40.6,7.2,48.2c0,4.2-2.5,5.1-2.5,5.1h-86.2c0,0-2.5-1.3-2.5-5.1c0-1.7,13.8-7,13.8-28.6
			c0-74.9,54.4-110.8,107.3-125.4c-12-25.1-32-63.4-53.1-86.7c-17.2,10.9-28.7,31.6-36.6,47.2c-3.8,7.5-4.5,14.2-3.5,18.6
			c12-1.3,14.6-10.8,16.6-8.8c7,7,0.7,26-3.3,26c-3.7,0-16.5-8.5-25.2-17.2l0.1-0.1c-4.5-4.3-10.9-17.7-10.9-38.2
			c0-52.4,30.9-96.6,53-96.6c30,0,74.4,97.5,91.3,137.5c0-0.1,0-90.9,0-90.9c0-25.3-17.2-34.3-17.2-36.5c0-3.2,1.7-5.1,1.7-5.1h96.5
			c0,0,1.7,2,1.7,5.1c0,2.2-17.2,11.2-17.2,36.5v90.7c0,0.1,0,0.1,0,0.2c16.9-39.9,61.2-137.5,91.3-137.5c22.1,0,53,44.2,53,96.6
			c0,20.5-6.5,33.9-10.9,38.2l0.1,0.1c-8.7,8.7-21.5,17.2-25.2,17.2c-4,0-10.3-19-3.3-26c2-2,4.7,7.5,16.6,8.8
			c1-4.4,0.3-11-3.5-18.6c-7.9-15.6-19.4-36.3-36.6-47.2c-21,23.3-41.1,61.6-53.1,86.7c52.9,14.6,107.3,50.5,107.3,125.4
			C2114.4,1775.8,2128.2,1781.1,2128.2,1782.8z M1957.1,1646.3c0-7.6-11.1-12.5-11.1-12.5s-11.1,4.9-11.1,12.5v8.6
			c0,7.6,11.1,12.5,11.1,12.5s11.1-4.9,11.1-12.5V1646.3z"/>
	</g>
</g>
</svg>
