<?xml version="1.0" encoding="utf-8"?>
<!-- Generator: Adobe Illustrator 28.0.0, SVG Export Plug-In . SVG Version: 6.00 Build 0)  -->
<svg version="1.1" id="a" xmlns="http://www.w3.org/2000/svg" xmlns:xlink="http://www.w3.org/1999/xlink" x="0px" y="0px"
	 viewBox="0 0 2699.7 2699.8" style="enable-background:new 0 0 2699.7 2699.8;" xml:space="preserve">
<style type="text/css">
	.st0{fill:#E52A24;stroke:#1D1D1B;stroke-width:11;stroke-miterlimit:10;}
	.st1{fill:#1D1D1B;}
	.st2{fill:#FFEAAB;}
	.st3{fill:url(#SVGID_1_);}
	.st4{fill:url(#SVGID_00000014634972666918722440000005246989852634920584_);}
	.st5{fill:url(#SVGID_00000119111362059665385940000017523712782005070492_);}
	.st6{fill:url(#SVGID_00000092450075376945368330000005309066817138972814_);}
	.st7{fill:#FFFFFF;}
	.st8{fill:#60B562;}
	.st9{fill:#57935D;}
</style>
<g>
	<path class="st0" d="M1349.4,73.4c-268,105-352,229-304,368l303,465l305-465C1702.4,291.4,1615.4,166.4,1349.4,73.4z"/>
	<path class="st1" d="M1349.4,73.4c-6,103-72,192-171,224C1273.4,247.4,1324.4,176.4,1349.4,73.4z"/>
	<path class="st1" d="M1348.4,73.4c25,103,76,174,171,224C1421.2,265.8,1353,176.4,1348.4,73.4z"/>
	<path class="st1" d="M1349.4,73.4c-2,72-49,137-119,156C1295.4,191.4,1328.4,145.4,1349.4,73.4z"/>
	<path class="st1" d="M1348.4,73.4c21,72,54,118,120,156C1397.4,210.4,1350.4,145.4,1348.4,73.4z"/>
	<path class="st1" d="M1349.4,73.4c1,50-34,98-84,109l29-21C1322.4,137.4,1337.4,107.4,1349.4,73.4z"/>
	<path class="st1" d="M1348.4,73.4c18,51,38,80,84,109C1382.4,171.4,1347.4,123.4,1348.4,73.4z M1349.4,182.4c0,63-43,120-104,136
		C1302.4,284.4,1330.4,245.4,1349.4,182.4z"/>
	<path class="st1" d="M1348.4,182.4c20,63,47,102,104,136C1391.4,302.4,1349.4,245.4,1348.4,182.4z"/>
	<path class="st1" d="M1349.4,182.4c2,44-29,87-73,95l25-19C1325.4,238.4,1338.4,212.4,1349.4,182.4z"/>
	<path class="st1" d="M1348.4,182.4c11,30,24,56,48,76l25,19C1377.4,269.4,1346.4,226.4,1348.4,182.4z"/>
	<path class="st1" d="M1349.4,182.4c4,31-20,63-51,67l16-15c11-9,19-20,25-32L1349.4,182.4z"/>
	<path class="st1" d="M1348.4,182.4l10,20c7,12,15,23,25,32l16,15C1368.4,245.4,1344.4,213.4,1348.4,182.4z M1349.4,272.4
		c3,38-25,76-63,82l21-17C1328.4,319.4,1339.4,297.4,1349.4,272.4z"/>
	<path class="st1" d="M1348.4,272.4c11,25,22,47,42,65l21,17C1373.4,348.4,1345.4,310.4,1348.4,272.4z"/>
	<path class="st1" d="M1349.4,272.4c5,27-17,56-44,58l13-13c9-9,16-18,22-28L1349.4,272.4z"/>
	<path class="st1" d="M1349.4,272.4l8,16c6,11,13,20,22,29l14,13C1365.4,328.4,1344.4,299.4,1349.4,272.4z"/>
	<path class="st1" d="M1349.4,272.4c6,19-11,41-31,40l16-19L1349.4,272.4z"/>
	<path class="st1" d="M1349.4,272.4l14,21l16,19C1359.4,313.4,1343.4,291.4,1349.4,272.4z"/>
	<path class="st0" d="M1349.4,2625.4c-268-105-352-230-304-369l303-465l305,466C1702.4,2407.4,1615.4,2532.4,1349.4,2625.4z"/>
	<path class="st1" d="M1349.4,2625.4c-18.7-97.4-82-180.3-171-224C1276.5,2433,1344.7,2522.4,1349.4,2625.4z"/>
	<path class="st1" d="M1348.4,2625.4c6-103,72-192,171-224C1430.5,2445.2,1367.2,2528.1,1348.4,2625.4z"/>
	<path class="st1" d="M1349.4,2625.4c-21-73-54-119-119-157C1300.4,2488.4,1347.4,2553.4,1349.4,2625.4z"/>
	<path class="st1" d="M1348.4,2625.4c2-72,49-137,120-157C1402.4,2507.4,1369.4,2553.4,1348.4,2625.4z"/>
	<path class="st1" d="M1349.4,2625.4c-18-51-38-80-84-109C1315.4,2527.4,1350.4,2575.4,1349.4,2625.4z"/>
	<path class="st1" d="M1348.4,2625.4c-1-50,34-98,84-109c-40.8,24.8-70.8,64.1-84,110V2625.4z M1349.4,2516.4c-19-64-47-102-104-137
		C1307.4,2395.4,1349.4,2453.4,1349.4,2516.4z"/>
	<path class="st1" d="M1348.4,2516.4c1-63,43-121,104-137C1395.4,2414.4,1368.4,2452.4,1348.4,2516.4z"/>
	<path class="st1" d="M1349.4,2516.4c-11-30-24-56-48-77l-25-19C1320.4,2429.4,1351.4,2472.4,1349.4,2516.4z"/>
	<path class="st1" d="M1348.4,2516.4c-2-44,29-87,73-96l-25,19C1372.4,2460.4,1359.4,2486.4,1348.4,2516.4z"/>
	<path class="st1" d="M1349.4,2516.4l-10-20c-6-12-14-23-25-33l-16-14C1329.4,2452.4,1353.4,2485.4,1349.4,2516.4z"/>
	<path class="st1" d="M1348.4,2516.4c-4-31,20-64,51-67l-16,14c-10,10-18,21-25,33L1348.4,2516.4z M1349.4,2426.4
		c-11-25-21-47-42-66l-21-16C1324.4,2350.4,1352.4,2388.4,1349.4,2426.4z"/>
	<path class="st1" d="M1348.4,2426.4c-3-38,25-76,63-83l-21,18C1370.4,2379.4,1359.4,2401.4,1348.4,2426.4z"/>
	<path class="st1" d="M1349.4,2426.4l-9-17c-6-10-13-19-22-28l-13-13C1332.4,2370.4,1354.4,2399.4,1349.4,2426.4z"/>
	<path class="st1" d="M1349.4,2426.4c-5-27,16-56,44-58l-14,13c-9,9-16,18-22,28l-9,17H1349.4z"/>
	<path class="st1" d="M1349.4,2426.4l-15-21l-16-19C1338.4,2384.4,1355.4,2407.4,1349.4,2426.4z"/>
	<path class="st1" d="M1349.4,2426.4c-6-19,10-41,30-40l-16,19L1349.4,2426.4z"/>
	<path class="st0" d="M2626.4,1349.4c-105-268-230-352-369-304l-465,303l465,304C2407.4,1701.4,2533.4,1615.4,2626.4,1349.4z"/>
	<path class="st1" d="M2626.4,1349.4c-103-6-193-72-224-171C2452.4,1273.4,2522.4,1324.4,2626.4,1349.4z"/>
	<path class="st1" d="M2626.4,1348.4c-97.2,18.5-180,81.4-224,170C2433.4,1419.4,2523.4,1354.4,2626.4,1348.4z"/>
	<path class="st1" d="M2626.4,1349.4c-72-2-138-50-157-120C2507.4,1295.4,2553.4,1328.4,2626.4,1349.4z"/>
	<path class="st1" d="M2626.4,1348.4c-73,21-119,54-157,119C2488.4,1397.4,2553.4,1350.4,2626.4,1348.4z"/>
	<path class="st1" d="M2626.4,1349.4c-51,1-99-34-110-84l21,29C2561.4,1322.4,2591.4,1337.4,2626.4,1349.4z"/>
	<path class="st1" d="M2626.4,1348.4c-52,18-80,38-110,84C2527.4,1382.4,2575.4,1347.4,2626.4,1348.4z M2516.4,1349.4
		c-63-1-120-43-136-104C2414.4,1302.4,2453.4,1329.4,2516.4,1349.4z"/>
	<path class="st1" d="M2516.4,1348.4c-63,19-102,47-136,104C2396.4,1390.4,2453.4,1348.4,2516.4,1348.4z"/>
	<path class="st1" d="M2516.4,1349.4c-44,2-87-29-95-73l19,25C2460.4,1325.4,2486.4,1338.4,2516.4,1349.4z"/>
	<path class="st1" d="M2516.4,1348.4c-30,11-56,24-76,48l-19,25C2429.4,1377.4,2472.4,1346.4,2516.4,1348.4z"/>
	<path class="st1" d="M2516.4,1348.4c-31,5-63-19-67-50l15,16c9,10,20,18,32,25L2516.4,1348.4z"/>
	<path class="st1" d="M2516.4,1348.4l-20,10c-12,6-23,14-32,24l-15,17C2453.4,1368.4,2485.4,1344.4,2516.4,1348.4z M2427.4,1349.4
		c-39,3-77-25-83-63l17,21C2379.4,1327.4,2401.4,1338.4,2427.4,1349.4z"/>
	<path class="st1" d="M2427.4,1348.4c-26,10-48,21-66,42l-17,21C2350.4,1373.4,2388.4,1345.4,2427.4,1348.4z"/>
	<path class="st1" d="M2427.4,1348.4c-27,5-56-16-58-44l12,14c9,9,18,16,29,22l16,8H2427.4z"/>
	<path class="st1" d="M2427.4,1348.4l-17,9c-11,6-20,13-28,21l-13,14C2370.4,1365.4,2400.4,1343.4,2427.4,1348.4z"/>
	<path class="st1" d="M2427.4,1348.4c-20,6-42-10-41-30l19,16L2427.4,1348.4z"/>
	<path class="st1" d="M2427.4,1348.4c-8,6-15,9-22,15l-19,16C2385.4,1359.4,2407.4,1342.4,2427.4,1348.4z"/>
	<path class="st0" d="M73.4,1349.4c105-268,230-352,369-304l465,303l-465,304C292.4,1701.4,166.4,1615.4,73.4,1349.4z"/>
	<path class="st1" d="M73.4,1349.4c104-25,174-76,224-171C265.7,1276.6,176.4,1344.8,73.4,1349.4z"/>
	<path class="st1" d="M73.4,1348.4c103,6,192,71,224,170C253.3,1429.9,170.4,1367,73.4,1348.4z"/>
	<path class="st1" d="M73.4,1349.4c73-21,119-54,157-120C210.4,1299.4,145.4,1347.4,73.4,1349.4z"/>
	<path class="st1" d="M73.4,1348.4c72,2,137,49,157,119C192.4,1401.4,146.4,1368.4,73.4,1348.4z"/>
	<path class="st1" d="M73.4,1349.4c51-18,80-38,110-84C172.4,1315.4,123.4,1350.4,73.4,1349.4z"/>
	<path class="st1" d="M73.4,1348.4c50-1,99,34,110,84C158.6,1391.6,119.3,1361.6,73.4,1348.4z M183.4,1349.4c63-20,101-47,136-104
		c-16,61-74,103-137,104H183.4z"/>
	<path class="st1" d="M183.4,1348.4c62,0,120,43,136,104c-35-57-73-85-137-104H183.4z"/>
	<path class="st1" d="M183.4,1349.4c29-11,55-24,76-48l19-25C269.4,1320.4,226.4,1351.4,183.4,1349.4z"/>
	<path class="st1" d="M183.4,1348.4c43-2,86,29,95,73l-19-25C238.4,1372.4,212.4,1359.4,183.4,1348.4z"/>
	<path class="st1" d="M183.4,1348.4l19-9c12-7,23-15,33-25l14-16c-3,31-36,55-67,50H183.4z"/>
	<path class="st1" d="M183.4,1348.4c30-4,63,19,66,51l-14-17c-10-10-21-18-33-24l-20-10H183.4z M272.4,1349.4c25-11,47-22,66-42
		l17-21C349.4,1324.4,310.4,1352.4,272.4,1349.4z"/>
	<path class="st1" d="M272.4,1348.4c38-3,77,25,83,63l-17-21C319.4,1369.4,297.4,1358.4,272.4,1348.4z"/>
	<path class="st1" d="M272.4,1348.4l17-8c10-6,19-13,28-22l13-14C328.4,1332.4,299.4,1353.4,272.4,1348.4z"/>
	<path class="st1" d="M272.4,1348.4c27-5,56,17,58,44l-13-14c-8-8-18-15-28-21L272.4,1348.4z"/>
	<path class="st1" d="M272.4,1348.4l21-14l20-16C314.4,1338.4,291.4,1354.4,272.4,1348.4z"/>
	<path class="st1" d="M272.4,1348.4c19-6,42,11,41,31l-20-16L272.4,1348.4z"/>
	<path class="st2" d="M1363.4,1365.4l793-134c202-69,279-275,257-587c-150-10-276,3-373,41c38-98,50-224,40-374
		c-312-21-518,55-587,257l-133,793l3,3V1365.4z"/>
	<path class="st1" d="M1363.4,1365.4c219-42,473-88,693-128l98-18l-2,1c27-9,52-22,75-37c160-104,180-321,173-495l-2-43l14,15
		c-122-7-250-4-366,40l-35,14c42.5-97.3,62-203,57-309l-3-93l15,15c-86-6-172-6-256,8c-144,23-270,93-319,237
		c-30,172-75,414-108,592l-37,197l3,3V1365.4z M1363.4,1365.4l-3-4c27-189,61-406,90-596l32-200c19-57,51-110,96-151
		c131-119,335-129,504-119l14,1l1,14c8,128,5,260-42,381l-21-21c30-12,62-21,93-28c95-19,192-20,288-14l14,1c6,85,6,171-6,255
		c-24,161-99,305-263,358c-256,41-541,85-797,122V1365.4z"/>
	<path class="st2" d="M1362.4,1366.4l-134,793c-69,202-275,278-587,257c-10-150,3-276,41-374c-98,39-223,51-374,41
		c-20-312,56-518,257-587l794-133L1362.4,1366.4z"/>
	<path class="st1" d="M1362.4,1366.4c-38,256-81,541-122,797c-54,163-197,239-359,262c-84,12-170,12-255,6l-1-14c-6-96-5-193,15-287
		c6-32,15-63,27-94l21,22c-122.6,40.8-252.5,54.8-381,41l-14-1l-1-14c-10-168,1-373,120-504c40-45,94-77,151-96l199-31l597-91
		L1362.4,1366.4z M1362.4,1366.4l-3-3l-198,37c-178,33-420,77-592,107c-144,50-213,176-236,320c-15,84-15,170-9,255l-15-15
		c31,2,63,3,94,3c105.7,4.8,211-14.7,308-57l-13,35c-39.2,118.1-53.2,243.1-41,367l-15-15l43,3c149,5,325-7,441-110
		c42-37,73-85,91-138v2l17-98L1362.4,1366.4z"/>
	<path class="st2" d="M1360.4,1366.4l133,793c69,202,276,278,588,257c10-150-3-276-41-374c97,39,223,51,374,41
		c20-312-56-518-258-587l-793-133L1360.4,1366.4z"/>
	<path class="st1" d="M1360.4,1366.4c41,219,88,473,127,693l18,98l-1-2c10,27,22,52,37,75c105,160,321,180,496,173l43-3l-15,15
		c7-123,4-250-41-367l-13-34c97,42,202.4,61.1,308,56l94-3l-15,15c5-85,5-171-9-255c-23-144-92-270-237-320c-171-29-413-74-591-107
		l-198-37L1360.4,1366.4z M1360.4,1366.4l3-3c190,27,406,61,597,90l199,32c57,18,111,51,151,95c119,132,129,336,120,505l-1,13l-14,1
		c-128,9-260,5-382-41l22-21c12,30,21,61,27,93c20,95,21,192,14,288l-1,14c-84,5-170,6-255-7c-161-23-305-99-358-262
		C1441.4,1907.4,1398.4,1622.4,1360.4,1366.4z"/>
	<path class="st2" d="M1359.4,1365.4l-794-134c-202-69-278-275-257-587c151-10,276,3,374,41c-38-98-51-224-41-374
		c313-21,519,55,587,257l134,793l-3,3V1365.4z"/>
	<path class="st1" d="M1359.4,1365.4c-257-38-542-82-797-123c-164-53-239-197-263-358c-12-84-12-170-6-255l14-1c96-6,193-5,287,14
		c32,7,64,16,94,28l-21,21c-41.2-122.5-55.5-252.5-42-381l1-14l14-1c169-10,373,0,504,119c45,41,77,94,96,151l32,200
		c29,190,63,407,90,596s-3,3-3,3V1365.4z M1359.4,1365.4l3-4l-38-197l-107-592c-49-144-175-213-319-237c-84-14-171-14-256-8l15-15
		c-2,31-3,62-3,94c-4.8,105.7,14.7,211,57,308l-35-14c-118.2-38.9-243.2-52.5-367-40l15-15l-2,43c-6,149,7,325,109,441
		c37,42,86,72,138,91h-1l98,17c220,39,473,86,693,127V1365.4z"/>
	<path class="st2" d="M1350.4,1352.4l619,440c181,89,370,2,564-220c-75.3-93-169.8-168.8-277-222c91-40,183-116,277-223
		c-195-222-384-309-564-220l-619,440v4V1352.4z"/>
	<path class="st1" d="M1350.4,1352.4c199,136,432,296,624,430c214,104,413-65,547-220v20c-39-44-80-86-125-124c-45-37-93-70-147-94
		l-33-14c37-16,76-34,110-57c73-48,137-110,195-176v20c-17-20-36-40-55-59c-55-58.7-118.8-108.7-189-148c-92-53.7-204.4-58.9-301-14
		c-207.9,144.8-416.6,288.4-626,431v4V1352.4z M1350.4,1352.4v-5l152-113l462-338c136-70,278-32,398,53c71,50,134,112,191,178l-8,10
		c-60,69-126,133-202,183c-26,17-52,32-81,44v-29c109.5,54.6,206,132,283,227l8,10c-52,61-110,118-174,167c-124,92-270,137-415,64
		C1765.4,1659.4,1546.4,1498.4,1350.4,1352.4z"/>
	<path class="st2" d="M1347.4,1350.4l-441,619c-89,182-2,370,221,564c93-75.3,168.8-169.8,222-277c40,91,115,184,223,277
		c222-195,309-383,220-564l-441-619H1347.4z"/>
	<path class="st1" d="M1347.4,1350.4c-136,200-296,433-431,624c-103,215,66,413,221,548h-21c45-39,87-81,124-126c38-44,71-93,94-146
		l15-33c16,37,34,76,56,109c49,74,111,138,177,196h-21c21-18,41-36,60-55c57-56,110-118,147-189c54-101,61-205,15-302
		c-145.1-207.6-289.1-415.9-432-625L1347.4,1350.4z M1347.4,1350.4h4l113,153c104,140,235,319,338,461c70,137,33,278-52,398
		c-50,72-113,134-178,192l-11-9c-68-60-133-125-183-201c-16-26-32-53-44-81h29c-54.4,109-131.5,205.2-226,282l-11,9
		c-60-53-118-110-166-175c-92-123-138-270-64-415C1039.4,1766.4,1201.4,1547.4,1347.4,1350.4z"/>
	<path class="st2" d="M1347.4,1349.4l-441-619c-89-181-2-370,221-564c93,75.3,168.8,169.8,222,277c40-91,115-183,223-277
		c222,195,309,383,220,564l-441,619H1347.4z"/>
	<path class="st1" d="M1347.4,1349.4c-146-197-308-416-451-614c-74-145-28-292,64-415c48-65,106-122,167-175l10,9
		c90,80,176,171,226,282h-29c13-28,28-55,44-80c50-77,115-142,183-202l11-9c65,58,128,120,178,192c85,120,122,261,52,398l-337,461
		l-114,153H1347.4z M1347.4,1349.4h4l107-157l324-469c46-97,40-201-14-301c-37-71-90-133-147-190l-60-55h21
		c-67.5,57.2-127,123.1-177,196c-22,34-40,73-56,110l-15-34c-23-53-56-101-94-146c-37-45-80-87-124-126h21c-155,135-324,333-221,548
		C1051.4,917.4,1211.4,1149.4,1347.4,1349.4z"/>
	
		<linearGradient id="SVGID_1_" gradientUnits="userSpaceOnUse" x1="-3.0418" y1="1351.2651" x2="1410.5582" y2="1351.2651" gradientTransform="matrix(1 0 0 -1 0 2701.1653)">
		<stop  offset="0.2" style="stop-color:#FDF0E3"/>
		<stop  offset="0.2" style="stop-color:#FDEED1"/>
		<stop  offset="0.3" style="stop-color:#FEEBBC"/>
		<stop  offset="0.3" style="stop-color:#FEEAB0"/>
		<stop  offset="0.4" style="stop-color:#FFEAAC"/>
	</linearGradient>
	<path class="st3" d="M1348.4,1352.4l-619,440c-181,89-370,2-564-220c75.3-93,169.8-168.8,277-222c-107.4-53.4-201.9-129.5-277-223
		c195-222,384-309,564-220l619,440v4V1352.4z"/>
	<path class="st1" d="M1348.4,1352.4c-196,145-415,307-614,451c-145,73-291,28-415-65c-64-48-122-105-174-166l8-10
		c80-91,171-177,283-227v29c-29-12-55-27-81-44c-76-50-142-114-202-183l-8-10c57-66,120-128,191-179c120-84,262-122,398-52l462,338
		l152,113v4V1352.4z M1348.4,1352.4v-5l-157-107l-468-324c-98-46-201-39-302,14c-71,38-133,91-189,148l-55,59v-20
		c58,66,122,128,196,176c33,23,72,41,109,57l-33,14c-53,24-102,57-147,94c-45,38-86,80-125,124v-20c135,155,333,324,547,220
		C916.4,1648.4,1149.4,1488.4,1348.4,1352.4z"/>
	
		<linearGradient id="SVGID_00000092427298567148081430000016087002933484158339_" gradientUnits="userSpaceOnUse" x1="-1414.4415" y1="1351.2651" x2="-0.8416" y2="1351.2651" gradientTransform="matrix(-1 0 0 -1 1289.4167 2701.1653)">
		<stop  offset="0.2" style="stop-color:#FDF0E3"/>
		<stop  offset="0.2" style="stop-color:#FDEED1"/>
		<stop  offset="0.3" style="stop-color:#FEEBBC"/>
		<stop  offset="0.3" style="stop-color:#FEEAB0"/>
		<stop  offset="0.4" style="stop-color:#FFEAAC"/>
	</linearGradient>
	<path style="fill:url(#SVGID_00000092427298567148081430000016087002933484158339_);" d="M1352.4,1352.4l619,440
		c181,89,370,2,564-220c-75.3-93-169.8-168.8-277-222c91-40,184-116,277-223c-195-222-383-309-564-220l-619,440v4V1352.4z"/>
	<path class="st1" d="M1352.4,1352.4c200,136,432,296,624,430c215,104,413-65,548-220v20c-39-44-81-86-126-124c-44-37-93-70-146-94
		l-33-14c37-16,76-34,109-57c74-48,137-110,196-176v20l-55-59c-55.3-58.8-119.4-108.7-190-148c-92-53.7-204.4-58.9-301-14
		c-207.6,144.8-415.9,288.4-625,431l-1,4V1352.4z M1352.4,1352.4v-5l153-113c140-104,319-235,461-338c137-70,278-32,398,53
		c72,50,134,112,192,178l-9,10c-58.4,70.1-126.4,131.7-202,183c-25,17-52,32-80,44v-29c109.1,54.7,205.3,132.1,282,227l9,10
		c-53,61-110,118-175,167c-123,92-270,137-415,64C1768.4,1659.4,1549.4,1498.4,1352.4,1352.4z"/>
	
		<linearGradient id="SVGID_00000072974794589600237890000000482442904548509569_" gradientUnits="userSpaceOnUse" x1="872.2086" y1="2450.5378" x2="2285.8086" y2="2450.5378" gradientTransform="matrix(6.123234e-17 1 1 -6.123234e-17 -1099.957 -875.2086)">
		<stop  offset="0.2" style="stop-color:#FDF0E3"/>
		<stop  offset="0.2" style="stop-color:#FDEED1"/>
		<stop  offset="0.3" style="stop-color:#FEEBBC"/>
		<stop  offset="0.3" style="stop-color:#FEEAB0"/>
		<stop  offset="0.4" style="stop-color:#FFEAAC"/>
	</linearGradient>
	<path style="fill:url(#SVGID_00000072974794589600237890000000482442904548509569_);" d="M1348.4,1348.4l-441-619
		c-88-182-2-370,221-564c93,75.3,168.8,169.8,222,277c40-91,115-184,223-277c222,195,309,383,220,564l-441,619H1348.4z"/>
	<path class="st1" d="M1348.4,1348.4c-146-197-307-416-451-614c-74-145-28-292,64-415c48-65,106-122,167-175l10,9
		c91,80,177,170,227,282h-30c13-28,28-55,45-81c50-76,114-141,182-201l11-9c66,58,128,120,178,192c85,120,122,261,52,398
		c-103,142-233,321-337,461l-114,153l-4-1V1348.4z M1348.4,1348.4h4l107-157l325-469c46-97,39-201-15-301c-37-72-90-134-147-190
		c-19-19-39-37-60-55h21c-67.5,57.2-127,123.1-177,196c-22,33-40,72-56,109l-15-33c-23-53-56-102-94-146c-37-45-79-87-123-126h20
		c-155,135-324,333-220,548C1052.4,916.4,1212.4,1148.4,1348.4,1348.4z"/>
	
		<linearGradient id="SVGID_00000101090152163789459240000010219229380344651396_" gradientUnits="userSpaceOnUse" x1="-2289.6919" y1="2450.5378" x2="-876.0919" y2="2450.5378" gradientTransform="matrix(0 -1 1 0 -1099.957 414.2082)">
		<stop  offset="0.2" style="stop-color:#FDF0E3"/>
		<stop  offset="0.2" style="stop-color:#FDEED1"/>
		<stop  offset="0.3" style="stop-color:#FEEBBC"/>
		<stop  offset="0.3" style="stop-color:#FEEAB0"/>
		<stop  offset="0.4" style="stop-color:#FFEAAC"/>
	</linearGradient>
	<path style="fill:url(#SVGID_00000101090152163789459240000010219229380344651396_);" d="M1348.4,1352.4l-441,618
		c-88,182-2,370,221,565c93.2-75.6,168.9-170.4,222-278c40,91,115,184,223,278c222-195,309-384,220-565l-441-618H1348.4z"/>
	<path class="st1" d="M1348.4,1352.4c-136,199-296,432-430,623c-104,215,65,413,220,548h-20c44-39,86-80,123-126c38-44,71-93,94-146
		l15-33c16,37,34,76,56,109c49,74,111,138,177,196h-20l59-55c57-56,110-118,148-189c53-101,60-205,14-302
		c-145.1-207.6-289.1-415.9-432-625H1348.4z M1348.4,1352.4h4l114,152c103,140,235,319,337,461c70,137,33,278-52,398
		c-50,72-113,135-178,192l-11-9c-68-60-132-125-183-201c-16-26-31-53-44-81h30c-54.7,109.1-132.1,205.3-227,282l-10,9
		c-61-53-119-110-167-175c-92-123-138-270-64-415C1041.4,1767.4,1202.4,1548.4,1348.4,1352.4z"/>
	<path class="st7" d="M204.4,203.4c162,162,85,397,264,577c96-96,196-91,290-23c-71-91-57-210,23-290
		C609.4,295.4,366.4,365.4,204.4,203.4z"/>
	<path class="st1" d="M204.4,203.4c62,54,97,132,118,210c23,76,37,155,71,228c22,47,51,90,88,126h-25c30-31,65-57,107-70
		c42-14,89-12,131,3c27,9,53,24,76,40l-28,29c-77-97-61-230,26-315v26c-36-37-79-66-127-87c-97-44-206-55-305-98
		C287.4,274.4,240.4,243.4,204.4,203.4z M204.4,203.4c177,158,419,72,603,264c-42,39-70,85-75,142c-4,49,12,97,41,135l87,111
		l-114-82c-21-15-43-28-66-36c-84-31-153,7-212,68C269.4,613.4,362.4,380.4,204.4,203.4z"/>
	<path class="st8" d="M300.4,299.4c125,125,30,343,169,481c96-96,183-103,259-54c-52-72-27-178,53-259
		C648.4,334.4,425.4,424.4,300.4,299.4z"/>
	<path class="st1" d="M300.4,299.4c133,118,48,342,181,468h-25c17-18,36-35,58-49c65.5-50.7,156.1-53.9,225-8l-28,28
		c-32-44-37-103-22-154c14-50,43-94,79-130v26C644.4,351.4,421.4,433.4,300.4,299.4z M300.4,299.4c134,117,352,18,494,155l13,13
		c-12,12-25,25-35,39c-39,50-66,119-43,182l15,27l63,87l-90-59c-9-6-19-11-29-15c-76-34-152,11-207,65l-13,13l-12-13
		C313.4,645.4,417.4,433.4,300.4,299.4z"/>
	<path class="st9" d="M437.4,438.4c72,71,0,214,79,293c66-66,121-75,166-49c-29-42-7-111,48-166
		C654.4,441.4,509.4,509.4,437.4,438.4z"/>
	<path class="st1" d="M437.4,438.4c80,66,18,210,91,280h-25c23-24,49-46,81-59c17-7,36-11,54-10c19,0,38,6,54,16l-27,28
		c-27-40-16-92,6-131c12-22,28-41,46-59v26C651.4,459.4,502.4,517.4,437.4,438.4z M437.4,438.4c31,25,71,27,109,27
		c66-1,144-12,197,39l13,12l-13,13c-20,21-37,45-47,71c-6,18-10,37-5,56l7,15l50,75l-77-47c-11-6-23-10-35-11c-42-1-78,28-108,55
		l-13,13l-12-13c-11-10-19-23-25-36c-29-63-11-132-16-198C460.4,483.4,454.4,458.4,437.4,438.4z"/>
	<path class="st7" d="M2478.4,203.4c-162,162-85,397-264,577c-96-96-196-91-290-23c71-91,58-210-23-290
		C2073.4,295.4,2316.4,365.4,2478.4,203.4z"/>
	<path class="st1" d="M2478.4,203.4c-158,177-65,411-264,602c-59-61-128-99-212-68c-23,8-45,21-66,36l-114,82l87-111
		c29-38,45-86,41-135s-27-94-62-129l-13-13C2059.4,275.4,2301.4,361.4,2478.4,203.4z M2478.4,203.4c-113,127-291,125-437,190
		c-48,21-91,50-127,87v-26c88,85,103,218,26,315l-27-29c23-16,48-31,75-40c42-15,89-18,131-3c42,13,77,39,108,70h-26
		c37-36,67-79,88-126c34-73,49-152,71-229S2416.4,257.4,2478.4,203.4z"/>
	<path class="st8" d="M2382.4,299.4c-125,125-30,343-168,481c-97-96-184-103-260-54c53-72,27-178-53-259
		C2034.4,334.4,2257.4,424.4,2382.4,299.4z"/>
	<path class="st1" d="M2382.4,299.4c-117,134-12,346-156,494l-12,13l-13-13c-55-54-130-99-207-65c-10,4-19,9-28,15l-91,59l63-88
		c6-8,11-17,15-26c24-63-3-132-43-182c-10-14-23-27-35-39l13-13C2030.4,317.4,2248.4,416.4,2382.4,299.4z M2382.4,299.4
		c-121,134-344,52-468,181v-26c36,36,66,80,79,130c15,51,10,110-22,154l-28-28c68.9-45.9,159.5-42.7,225,8c22,14,41,31,58,49h-25
		C2334.4,641.4,2249.4,418.4,2382.4,299.4z"/>
	<path class="st9" d="M2245.4,438.4c-71,71,1,214-78,293c-66-66-122-75-166-49c28-42,6-111-49-166
		C2028.4,441.4,2173.4,509.4,2245.4,438.4z"/>
	<path class="st1" d="M2245.4,438.4c-16,20-23,45-25,71c-5,66,14,135-15,198c-7,13-15,26-25,37l-13,12l-13-12c-30-28-66-57-108-56
		c-12,1-24,5-35,11l-77,47l50-75c3-4,6-9,7-15c5-19,2-37-5-56c-10-26-27-50-47-71l-12-13l12-12c53-51,132-40,197-39
		C2174.4,465.4,2215.4,463.4,2245.4,438.4z M2245.4,438.4c-65,79-214,21-280,91v-25c18,17,34,37,46,59c13,23,22,47,22,75
		c0,19-5,39-16,55l-26-28c33-20,72-21,107-6c32,13,58,35,81,59h-25C2228.4,648.4,2165.4,504.4,2245.4,438.4z"/>
	<path class="st7" d="M204.4,2480.4c162-162,85-397,264-577c96,96,196,91,290,24c-71,90-57,209,23,289
		C609.4,2388.4,366.4,2318.4,204.4,2480.4z"/>
	<path class="st1" d="M204.4,2480.4c158-177,65-411,264-602c59,61,128,99,213,68c23-8,45-21,65-36l114-82l-86,111
		c-30,38-46,87-42,135c5,49,28,94,62,129l13,13C623.4,2408.4,382.4,2322.4,204.4,2480.4z M204.4,2480.4c113-127,291-125,438-190
		c47-21,90-50,126-87v26c-89.9-81.9-101.3-219.4-26-315l28,29c-23,16-48,31-76,40c-42,16-89,18-131,4c-41-14-77-40-107-71h25
		c-37,36-67,79-88,126c-34,73-48,152-71,229C301.4,2348.4,266.4,2426.4,204.4,2480.4z"/>
	<path class="st8" d="M300.4,2384.4c125-125,30-343,169-481c96,96,183,103,259,54c-52,72-27,178,53,259
		C648.4,2348.4,425.4,2259.4,300.4,2384.4z"/>
	<path class="st1" d="M300.4,2384.4c117-134,13-346,156-494l12-13l13,13c55,54,131,99,207,65c10-4,20-9,29-15l90-59l-63,87l-15,27
		c-24,63,4,132,43,182c10,14,23,27,35,39l-13,13C652.4,2366.4,434.4,2267.4,300.4,2384.4z M300.4,2384.4c121-134,344-52,469-181v26
		c-37-36-66-80-80-130c-15-51-10-110,22-154l28,28c-68.9,45.9-159.5,42.7-225-8c-22-14-41-31-58-49h25
		C348.4,2042.4,433.4,2265.4,300.4,2384.4z"/>
	<path class="st9" d="M437.4,2245.4c72-71,0-214,79-293c66,66,121,75,166,49c-29,42-7,111,48,166
		C654.4,2242.4,509.4,2174.4,437.4,2245.4z"/>
	<path class="st1" d="M437.4,2245.4c17-20,24-45,25-71c5-66-13-135,16-198c6-13,15-26,25-36l12-13l13,13c30,27,67,56,108,55
		c12-1,24-5,35-11l77-47l-50,75l-7,15c-5,19-1,38,5,56c10,26,27,50,47,71l13,13l-13,12c-53,51-131,40-197,39
		C508.4,2218.4,468.4,2220.4,437.4,2245.4z M437.4,2245.4c65-79,214-21,280-91v26c-18-18-34-38-46-59c-13-24-22-48-22-76
		c0-19,5-39,16-55l27,28c-33,20-73,21-108,6c-32-13-58-35-81-59h25C454.4,2035.4,517.4,2179.4,437.4,2245.4z"/>
	<path class="st7" d="M2478.4,2480.4c-162-162-85-397-264-577c-96,96-196,91-290,24c71,90,58,209-23,289
		C2073.4,2388.4,2316.4,2318.4,2478.4,2480.4z"/>
	<path class="st1" d="M2478.4,2480.4c-62-54-96-132-118-209s-37-156-71-229c-21-47-51-90-88-126h26c-31,31-66,57-108,70
		c-42,14-89,12-131-3c-27-9-52-24-75-40l27-29c77,97,61,230-26,315v-26c36,37,79,66,127,87c98,44,206,56,305,98
		C2396.4,2409.4,2442.4,2440.4,2478.4,2480.4z M2478.4,2480.4c-177-158-419-72-602-264c41-39,69-85,74-142c4-49-11-97-41-135
		l-87-111l114,82c21,15,43,28,66,36c85,31,154-7,212-68C2413.4,2070.4,2320.4,2303.4,2478.4,2480.4z"/>
	<path class="st8" d="M2382.4,2384.4c-125-125-30-343-168-481c-97,96-184,103-260,54c53,72,27,178-53,259
		C2034.4,2348.4,2257.4,2259.4,2382.4,2384.4z"/>
	<path class="st1" d="M2382.4,2384.4c-133-119-48-342-181-468h25c-17,18-36,35-57,49c-65.3,51-155.8,54.6-225,9l27-29
		c32,44,37,103,23,154c-14,50-44,94-80,130v-26C2038.4,2332.4,2261.4,2250.4,2382.4,2384.4z M2382.4,2384.4c-134-117-352-18-494-156
		l-13-12c12-12,25-25,35-39c40-50,67-119,43-182l-15-27l-63-87l90,59c10,6,19,11,29,15c76,34,152-11,207-65l13-13l12,13
		C2370.4,2038.4,2265.4,2250.4,2382.4,2384.4z"/>
	<path class="st9" d="M2245.4,2245.4c-71-71,1-214-78-293c-66,66-122,75-166,49c28,42,6,111-49,166
		C2028.4,2242.4,2173.4,2174.4,2245.4,2245.4z"/>
	<path class="st1" d="M2245.4,2245.4c-80-66-17-210-91-280h25c-23,24-49,46-81,59c-17,7-35,11-54,10c-19,0-38-6-54-16l27-28
		c27,39,16,92-6,131c-12,21-28,41-46,59v-26C2031.4,2224.4,2180.4,2166.4,2245.4,2245.4z M2245.4,2245.4c-30-25-71-27-108-27
		c-66,2-145,12-197-38l-13-13l12-13c20-20,37-45,47-71c7-18,10-37,5-56c-1-5-4-10-7-15l-50-75l77,47c11,6,23,10,35,11
		c42,1,78-28,108-55l13-13l13,13c10,10,18,23,25,36c29,63,10,133,15,199C2222.4,2200.4,2229.4,2225.4,2245.4,2245.4z"/>
</g>
</svg>
