<?xml version="1.0" encoding="utf-8"?>
<!-- Generator: Adobe Illustrator 28.0.0, SVG Export Plug-In . SVG Version: 6.00 Build 0)  -->
<svg version="1.1" id="a" xmlns="http://www.w3.org/2000/svg" xmlns:xlink="http://www.w3.org/1999/xlink" x="0px" y="0px"
	 viewBox="0 0 2699.7 2699.8" style="enable-background:new 0 0 2699.7 2699.8;" xml:space="preserve">
<style type="text/css">
	.st0{fill:#23AFB8;}
	.st1{fill:#1D1D1B;}
	.st2{fill:#FFEAAC;}
	.st3{fill:#FDC41D;}
	.st4{fill:#FFEAAB;}
	.st5{fill:#FFEAAB;stroke:#1D1D1B;stroke-width:11;stroke-miterlimit:10;}
	.st6{fill:url(#SVGID_1_);stroke:#1D1D1B;stroke-width:7;stroke-miterlimit:10;}
	.st7{fill:url(#SVGID_00000018228160154570355090000012140813410472798132_);stroke:#1D1D1B;stroke-width:7;stroke-miterlimit:10;}
	.st8{fill:url(#SVGID_00000057116428185897549140000014210718047158257339_);stroke:#1D1D1B;stroke-width:7;stroke-miterlimit:10;}
	.st9{fill:url(#SVGID_00000018919810989353088870000017966513223511246268_);stroke:#1D1D1B;stroke-width:7;stroke-miterlimit:10;}
	
		.st10{fill:url(#SVGID_00000066502871659110116550000018119047091489066647_);stroke:#1D1D1B;stroke-width:11;stroke-miterlimit:10;}
	
		.st11{fill:url(#SVGID_00000021831103279204044720000008000767766511599295_);stroke:#1D1D1B;stroke-width:11;stroke-miterlimit:10;}
	
		.st12{fill:url(#SVGID_00000127029172091712886940000002130449423186527920_);stroke:#1D1D1B;stroke-width:11;stroke-miterlimit:10;}
	
		.st13{fill:url(#SVGID_00000139253691074444415550000002302007546921669550_);stroke:#1D1D1B;stroke-width:11;stroke-miterlimit:10;}
	.st14{fill:url(#SVGID_00000050629175043579325010000006748042430004436137_);}
	.st15{fill:url(#SVGID_00000163761261779343060160000011106563024578924702_);}
	.st16{fill:url(#SVGID_00000021113557056556763330000007239841404341462161_);}
	.st17{fill:url(#SVGID_00000150801812789667486040000016437355319471375516_);}
	.st18{fill:url(#SVGID_00000013193363573285936780000006027532474686757822_);}
	.st19{fill:url(#SVGID_00000029006995064377825560000002939514725529832339_);}
	.st20{fill:url(#SVGID_00000075862231381114317160000014720840788561867708_);}
	.st21{fill:url(#SVGID_00000069398025141119807690000013728231460396645769_);}
	.st22{fill:#21AFB8;}
	.st23{fill:#E52028;}
	.st24{fill:#F9B233;}
	.st25{fill:url(#SVGID_00000176737721011429597250000001914187662731167893_);}
	.st26{fill:url(#SVGID_00000050657244069273540870000001775025426310746755_);}
	.st27{fill:#24AFB8;}
	.st28{fill:#21AFB8;stroke:#1D1D1B;stroke-width:20;stroke-miterlimit:10;}
	.st29{fill:url(#SVGID_00000116934273107137282880000009025855836360607674_);}
	.st30{fill:url(#SVGID_00000133505511183876464440000006642112437094207879_);}
	.st31{fill:none;stroke:#1D1D1B;stroke-width:6;stroke-miterlimit:10;}
	.st32{fill:#E30613;}
	.st33{fill:url(#SVGID_00000085965277889306916210000017919151263629891218_);}
	.st34{fill:url(#SVGID_00000067942429761432973070000011130097532295173540_);}
	.st35{fill:url(#SVGID_00000087393344617488964390000016121457813057462922_);}
	.st36{fill:url(#SVGID_00000132790923476467562520000015302590721488067506_);}
	.st37{fill:#E52823;}
	.st38{fill:url(#SVGID_00000085237181568021754940000018101604775201626000_);}
	.st39{fill:url(#SVGID_00000151524766445217581360000010520322591113081508_);}
	.st40{fill:url(#SVGID_00000140000005577369898890000003504401298679435697_);}
	.st41{fill:url(#SVGID_00000007410434111378748760000015338471892908084129_);}
	.st42{fill:url(#SVGID_00000148644927653288075630000006312675723395254700_);}
	.st43{fill:url(#SVGID_00000027595699650184521060000007744539921267873178_);}
	.st44{fill:url(#SVGID_00000090287878433632443450000016493110446686917036_);}
	.st45{fill:url(#SVGID_00000094588554909659042720000007208300439667771821_);}
	.st46{fill:url(#SVGID_00000159454260041638999130000005770703457174260616_);}
	.st47{fill:url(#SVGID_00000114044887474289754000000002194160894430545537_);}
	.st48{fill:url(#SVGID_00000030469837342809177960000007610529402818989995_);}
	.st49{fill:url(#SVGID_00000152949178521919606780000015178874656746364040_);}
</style>
<g>
	<path class="st0" d="M924.9,763.4c80,87,65,237,65,237s-151,16-237-65c-76-71-43-201-65-236C722.9,721.4,852.9,685.4,924.9,763.4z"
		/>
	<path class="st1" d="M924.9,763.4c43,47,62,111,68,174c3,23,4,45,3,68c-73.1,10.4-147.7-1.4-214-34c-7.2-4.3-14.2-9-21-14
		c-65-47-71-122-71-196l-1-31c-1-10-2-20-6-28l-13-24l22,15c12,9,42,9,58,11C811.9,707.4,880.9,714.4,924.9,763.4z M923.9,764.4
		c-53-58-134-53-206-57c-10-1-21-2-30-8l1-1c6,9,7,20,8,31c3,31,2,63,7,94c5,41,19,83,50,111l12,11l5,3l8,6l9,6
		c61.4,33.2,131.6,46.8,201,39v1l1-31c-1-50-8-100-28-146c-6-14-14-28-23-41l-5-6C931.9,772.4,926.9,767.4,923.9,764.4z"/>
	<path class="st2" d="M911.9,776.4c68,74,55,201,55,201s-128,14-201-55c-64-60-36-171-55-201C740.9,740.4,850.9,710.4,911.9,776.4z"
		/>
	<path class="st1" d="M911.9,776.4c43,47,57,113,61,174v33c-58,7-121,2-174-24l-24-14l-6-5l-11-9c-29-27-41-64-45-103
		c-2-18-2-36-2-54l-1-26c0-8-1-17-4-24l-13-23l21,15c11,7,36,8,50,9C815.9,728.4,874.9,735.4,911.9,776.4z M910.9,777.4
		c-37-41-96-46-148-47c-13-1-27-1-40-3l-13-5l2-1c8,13,7,37,8,52c3,64,9,127,68,165c51,34,118,42,179,38l-1,1v-53
		C961.9,871.4,947.9,817.4,910.9,777.4z"/>
	<path class="st3" d="M895.9,792.4c53,58,43,158,43,158s-100,10-157-44c-51-47-29-133-43-157C761.9,764.4,847.9,740.4,895.9,792.4z"
		/>
	<path class="st1" d="M896.9,792.4c28,31,41,74,46,115c2,16,3,32,2,48c-45,6-92,4-133-15c-21-10-41-24-53-43c-26-38-22-84-22-127
		c-1-6-1-13-4-18l-12-24l21,16c4,3,12,4,17,5l42,4c34,4,71,12,95,39H896.9z M895.9,793.4c-30-32-76-36-116-37c-11,0-22,0-32-2l-10-4
		l1-1c4,6,5,13,6,20c2,21,1,42,4,63c4,27,13,55,34,74c15,14,34,24,53,31c33,11,69,14,103,12l-1,1v-42
		C934.9,867.4,923.9,824.4,895.9,793.4z"/>
	<path class="st2" d="M867.9,820.4c44,47,53,112,53,112s-65-9-111-53c-41-40-40-94-54-112C773.9,780.4,827.9,778.4,867.9,820.4z"/>
	<path class="st1" d="M868.9,820.4c29,31,52,77,60,119l-17-2c-46-7-92-26-122-63c-22-28-27-58-34-91l-4-12l-22-36l30,27
		c3,3,8,5,12,7l30,10C825.9,788.4,849.9,800.4,868.9,820.4z M867.9,821.4c-15-16-33-26-53-34l-45-13c-5-1-10-3-14-6l1-2
		c6,9,9,20,12,30c5,20,11,40,22,57c30.5,43.1,77.6,71.4,130,78l-1,1c-7-41-24-81-52-112V821.4z"/>
	<path class="st0" d="M924.9,1950.4c80-86,65-236,65-236s-151-16-237,64c-76,71-43,202-65,237
		C722.9,1993.4,852.9,2028.4,924.9,1950.4z"/>
	<path class="st1" d="M923.9,1950.4c54-60,67-151,60-228l-1-8l6,6c-21-1-41,0-62,2c-65,7-145,30-184,87c-23,33-30,74-34,114l-6,62
		c-1,9-2,17-5,25l-5,8l-8-8c10-6,22-7,33-8l63-1C832.9,2000.4,887.9,1989.4,923.9,1950.4z M924.9,1951.4c-44,48-113,54-175,56
		c-16,0-31,0-47,4c-5,1-10,2-14,5l-4,2l2-3c6-9,7-20,8-30l2-32c2-41,4-84,20-123c14-35,38-59,70-78c62.1-33.4,132.9-47.1,203-39
		c5.6,59.5-3,119.5-25,175l-4,9l-5,9c-5,9.7-10.7,19.1-17,28l-4,5L924.9,1951.4z"/>
	<path class="st2" d="M911.9,1937.4c68-73,55-201,55-201s-128-13-201,55c-64,60-36,171-55,201
		C740.9,1974.4,850.9,2003.4,911.9,1937.4z"/>
	<path class="st1" d="M910.9,1937.4c45-50,55-123,51-187l-1-13l5,5c-43-1-87,5-128,20c-31,12-63,29-81,58c-18,28-24,61-27,94
		c-3,22-3,45-8,67l-6,15l-8-9c8-5,18-6,28-6l54-1C832.9,1980.4,880.9,1971.4,910.9,1937.4z M911.9,1938.4c-45,49-114,45-175,49
		c-9,1-18,2-26,6l-3,2l2-3c4-8,5-17,7-25c2-27,1-54,5-80c4-36,17-72,43-97c40-37,95-51,148-55h55c2,27,1,55-3,81
		C957.9,1860.4,942.9,1905.4,911.9,1938.4z"/>
	<path class="st3" d="M895.9,1921.4c53-57,43-157,43-157s-100-10-157,43c-51,47-29,134-43,157
		C761.9,1950.4,847.9,1973.4,895.9,1921.4z"/>
	<path class="st1" d="M895.9,1921.4c35-39,42-96,38-146l-1-10l5,5c-20,0-40,2-60,6c-37,7-78,22-100,53c-15,22-19,49-23,74l-4,42
		c-1,8-3,16-7,23l-9-9l12-4l33-1C819.9,1956.4,865.9,1953.4,895.9,1921.4z M896.9,1922.4c-30,32-76,36-117,37l-26,2l-15,4l-3,3l2-4
		c2-3,3-6,3-10c3-10,3-20,3-31c2-41,5-87,37-117c16-14,35-25,55-31c33-11,69-15,104-12v43C936.9,1847.4,924.9,1890.4,896.9,1922.4z"
		/>
	<path class="st2" d="M867.9,1894.4c44-47,53-112,53-112s-65,9-111,53c-41,39-40,94-54,112C773.9,1933.4,827.9,1936.4,867.9,1894.4z
		"/>
	<path class="st1" d="M867.9,1893.4c27.8-31,44.3-70.5,47-112l7,7c-44,11-97,38-122,77c-11,17-18,36-25,55c-3,10-7,21-14,30l-8-8
		c10-6,21-7,32-10C815.9,1926.4,844.9,1917.4,867.9,1893.4z M867.9,1894.4c-14,15-32,27-52,34l-45,13l-14,7l-5,3l4-5c5-8,7-19,10-29
		l9-30c8-20,18-38,34-53c30-29,71-46,112-53h1v1c-7,41-25,81-53,112H867.9z"/>
	<path class="st0" d="M1770.9,763.4c-79,87-64,237-64,237s150,16,236-65c76-71,43-201,65-236
		C1972.9,721.4,1842.9,685.4,1770.9,763.4z"/>
	<path class="st1" d="M1771.9,764.4c-54,59-67,150-60,228l1,7l-6-5c21,1,41,0,62-2c65-7,145-31,184-87c23-33,30-74,34-114l6-63
		c1-8,2-17,5-24l5-9l8,9c-10,6-22,7-33,7l-63,1C1862.9,713.4,1807.9,724.4,1771.9,764.4z M1770.9,763.4c44-49,113-55,175-56
		c16-1,31-1,47-4c5-1,10-2,14-5l4-2l-2,3c-6,9-7,20-8,30l-2,31c-2,42-4,85-20,124c-14,35-38,59-70,78c-62.1,33.4-132.9,47.1-203,39
		c-1-11-2-22-1-33c0-48,7-97,26-142l4-9l5-9c5-9.7,10.7-19.1,17-28l4-5C1762.9,771.4,1767.9,766.4,1770.9,763.4z"/>
	<path class="st2" d="M1783.9,776.4c-68,74-55,201-55,201s128,14,201-55c64-60,36-171,55-201
		C1954.9,740.4,1844.9,710.4,1783.9,776.4z"/>
	<path class="st1" d="M1784.9,777.4c-45,49-55,122-51,187l1,13l-5-6c43,1,87-5,128-19c31-12,63-30,81-59c18-27,24-61,27-93
		c3-23,3-46,8-68l6-14l9,8c-9,5-19,6-29,7h-54C1862.9,734.4,1814.9,743.4,1784.9,777.4z M1783.9,776.4c45-50,114-45,175-49
		c9-1,18-2,26-7l3-2l-2,4c-4,7-5,16-6,25c-3,27-2,53-6,80c-4,35-16,72-43,96c-40,37-95,51-148,55c-18,1-37,2-55,0c-2-27,0-54,4-81
		C1737.9,853.4,1752.9,809.4,1783.9,776.4z"/>
	<path class="st3" d="M1799.9,792.4c-53,58-43,158-43,158s100,10,157-44c51-47,29-133,43-157
		C1933.9,764.4,1847.9,740.4,1799.9,792.4z"/>
	<path class="st1" d="M1800.9,793.4c-36,39-43,95-39,146l1,10l-5-6c20,1,40-1,60-5c37-7,78-22,100-54c15-21,19-48,23-74l4-42
		c1-7,3-15,7-22l9,8c-4,3-8,4-12,4c-11,2-22,1-33,1c-40-1-86,2-116,34H1800.9z M1799.9,792.4c29-33,75-37,116-38l26-1c5-1,11-2,15-5
		l3-2l-2,4l-3,9c-3,10-3,21-3,31c-2,41-5,88-37,118c-15,14-34,24-54,31c-34,11-70,14-105,11v-42c3-42,15-85,43-116H1799.9z"/>
	<path class="st2" d="M1827.9,820.4c-44,47-53,112-53,112s65-9,111-53c41-40,40-94,54-112C1921.9,780.4,1867.9,778.4,1827.9,820.4z"
		/>
	<path class="st1" d="M1827.9,821.4c-27.8,31-44.3,70.5-47,112l-7-7c44-12,97-39,122-78c11-16,18-35,25-54c3-11,7-22,14-31l8,9
		c-10,6-21,7-32,9C1879.9,787.4,1850.9,797.4,1827.9,821.4z M1827.9,820.4c14-16,32-27,52-34c15-6,30-9,45-14c5-1,10-3,14-6l5-4
		l-4,6c-5,8-7,19-10,28l-9,30c-8,20-18,39-34,53c-30,29-71,47-112,54h-1v-1c7-41,25-82,53-112H1827.9z"/>
	<path class="st0" d="M1770.9,1950.4c-79-86-64-236-64-236s150-16,236,64c76,71,43,202,65,237
		C1972.9,1993.4,1842.9,2028.4,1770.9,1950.4z"/>
	<path class="st1" d="M1770.9,1951.4c-43-48-61-112-68-174c-3-23-4-46-2-69c72.9-9.9,147.1,2.3,213,35c7.2,4,14.2,8.4,21,13
		c65,47,71,123,71,197l1,31c1,9,2,20,6,28l13,23l-21-15c-13-8-43-9-59-10C1883.9,2006.4,1814.9,1999.4,1770.9,1951.4z
		 M1771.9,1950.4c53,57,134,52,206,56c10,1,21,2,30,8l-1,1c-5-9-7-20-8-30c-3-32-2-63-7-94c-5-41-19-84-50-112l-12-10l-4-4l-8-5
		l-10-7c-61.6-32.9-131.7-46.1-201-38l1-1l-2,31c1,49,8,100,28,145c6,15,14,29,23,41l5,7L1771.9,1950.4z"/>
	<path class="st2" d="M1783.9,1937.4c-68-73-55-201-55-201s128-13,201,55c64,60,36,171,55,201
		C1954.9,1974.4,1844.9,2003.4,1783.9,1937.4z"/>
	<path class="st1" d="M1783.9,1938.4c-43-47-57-113-61-175v-32c58-8,121-3,174,23l24,15l6,4l11,10c29,27,41,64,45,102
		c2,18,2,37,2,55l1,26c0,8,1,16,4,23l13,24l-21-15c-11-8-36-8-50-10C1879.9,1985.4,1820.9,1979.4,1783.9,1938.4z M1784.9,1937.4
		c37,41,96,45,148,46c13,1,27,1,40,4l13,4l-2,2c-8-14-7-37-8-53c-3-64-9-127-68-164c-51-34-118-43-179-39l1-1v54
		C1733.9,1842.4,1747.9,1897.4,1784.9,1937.4z"/>
	<path class="st3" d="M1799.9,1921.4c-53-57-43-157-43-157s100-10,157,43c51,47,29,134,43,157
		C1933.9,1950.4,1847.9,1973.4,1799.9,1921.4z"/>
	<path class="st1" d="M1799.9,1922.4c-29-32-42-74-47-116c-2-15-3-31-2-47c45-7,92-4,134,15c20,9,40,23,52,43c26,37,22,84,23,127
		c0,6,0,12,3,17l12,25l-21-16c-4-3-12-4-17-5l-42-4C1860.9,1957.4,1823.9,1949.4,1799.9,1922.4z M1800.9,1921.4c29,32,75,36,115,36
		c11,1,22,1,32,3l10,4l-1,1c-4-6-5-13-6-20c-2-21-1-42-4-63c-4-27-13-55-34-74c-15-14-33-24-53-31c-33-11-68-14-103-12l1-1v42
		c3,41,14,84,42,115H1800.9z"/>
	<path class="st2" d="M1827.9,1894.4c-44-47-53-112-53-112s65,9,111,53c41,39,40,94,54,112
		C1921.9,1933.4,1867.9,1936.4,1827.9,1894.4z"/>
	<path class="st1" d="M1827.9,1894.4c-29-30-50-71-59-111l-2-8l9,1c43,4,86,20,118,51c17,15,28,36,35,57c5,15,7,31,11,46l5,13l21,36
		l-30-27c-3-3-8-5-12-7l-30-10C1869.9,1926.4,1845.9,1913.4,1827.9,1894.4z M1827.9,1893.4c15,15,33,26,53,33c14,6,30,9,45,13l14,7
		l-1,1c-6-8-8-19-11-29c-6-20-12-40-23-58c-30.7-42.7-77.8-70.6-130-77l1-1C1782.9,1823.4,1799.9,1863.4,1827.9,1893.4z"/>
	<path class="st4" d="M1349.9,1361.4l443,74c113,39,156,154,144,328c-84,6-154-2-209-23c21,55,29,125,23,209c-175,12-290-31-328-144
		l-75-443l2-2V1361.4z"/>
	<path class="st1" d="M1349.9,1361.4c146,21,299,44,445,67c124,41,154,170,153,287l-2,57l-8,1c-71.8,9.8-144.9,1.9-213-23l12-13
		c26,67,28,141,24,213l-1,8c-52,4-104,4-156-5c-85-15-160-59-188-145c-23-144-47-302-68-446S1349.9,1361.4,1349.9,1361.4z
		 M1349.9,1361.4l-2,1c28,143,56,299,82,442c34,96,126,130,225,136c32,2,64,2,95,0l-9,9c4-69,3-140-22-205l-8-21c22,9,46,18,70,22
		c51,11,104,12,155,8l-9,9c2-15,2-31,2-47c2-109-22-233-138-273c-140-25-298-54-441-82V1361.4z"/>
	<path class="st4" d="M1347.9,1358.4l-75-443c-38-113-153-156-328-144c-5,84,2,154,23,209c-54-21-125-28-209-23
		c-11,175,31,290,144,328l443,75L1347.9,1358.4z"/>
	<path class="st1" d="M1347.9,1358.4c-27-143-57-301-81-441c-40-115-165-140-273-138l-48,2l9-9c-3,52-3,104,8,155c5,24,14,48,23,70
		l-22-8c-65-25-136-26-204-22l9-9c-2,32-3,64-1,95c6,99,40,191,136,225c143,26,299,54,442,82L1347.9,1358.4z M1347.9,1358.4l-2,2
		l-445-68c-87-28-130-103-145-188c-9-52-9-104-6-156l9-1c71-4,145-2,213,24l-13,12c-20.8-69-28.6-141.2-23-213v-8l58-2
		c116-1,246,29,286,152C1303.9,1059.4,1326.9,1212.4,1347.9,1358.4z"/>
	<path class="st4" d="M1347.9,1362.4l-75,443c-38,113-153,156-328,144c-5-84,2-154,23-209c-54,22-125,29-209,23
		c-11-175,31-290,144-328l443-74L1347.9,1362.4z"/>
	<path class="st1" d="M1347.9,1362.4c-21,146-45,299-68,446c-40,124-170,153-286,152l-58-2l-1-8c-3-54-2-108,8-161c4-18,9-35,16-52
		l13,13c-68,25-142,27-214,23l-8-1c-3-52-3-104,6-155c14-86,58-161,144-189l446-68L1347.9,1362.4z M1347.9,1362.4l-2-1
		c-142,27-299,56-442,81c-96,34-130,126-136,225c-2,32-1,64,1,96l-9-9c68,4,139,2,204-23l21-8c-9,22-18,46-22,70
		c-11,51-11,104-8,156l-9-9l47,2c109,1,234-23,273-139L1347.9,1362.4z"/>
	<path class="st4" d="M1349.9,1360.4l443-75c113-38,156-153,144-328c-84-5-154,2-209,23c21-54,29-125,23-209c-175-11-290,31-328,144
		l-75,443L1349.9,1360.4z"/>
	<path class="st1" d="M1349.9,1360.4c143-27,302-57,441-81c115-40,140-164,138-273l-2-48l9,9c-51-3-104-2-155,8c-24,5-48,14-70,23
		l8-21c25-65,26-136,22-205l9,9c-32-2-63-3-95-1c-99,6-191,41-225,136c-26,144-54,300-82,442L1349.9,1360.4z M1349.9,1360.4l-2-2
		l68-445c28-87,103-130,189-145c51-9,103-9,155-6l1,9c4,71,2,145-23,213l-13-13c69-20.8,141.2-28.6,213-23h8l3,58
		c0,116-29,246-153,286C1648.9,1316.4,1495.9,1339.4,1349.9,1360.4z"/>
	<path class="st5" d="M1621.9,1088.4c-102,6-186,25-221,77c18,46,24,88,19,127c42-7,84-2,126,19
		C1599.9,1275.4,1616.9,1191.4,1621.9,1088.4z M1076.9,1088.4c102,6,185,25,221,77c-18,46-24,88-19,127c-42-7-84-2-126,19
		C1098.9,1275.4,1080.9,1191.4,1076.9,1088.4z M1621.9,1635.4c-102-5-186-24-221-76c18-46,24-88,19-127c42,7,84,1,126-19
		C1599.9,1448.4,1616.9,1533.4,1621.9,1635.4z M1076.9,1635.4c102-5,185-24,221-76c-18-46-24-88-19-127c-42,7-84,1-126-19
		C1098.9,1448.4,1080.9,1533.4,1076.9,1635.4z"/>
	
		<radialGradient id="SVGID_1_" cx="1247.3583" cy="1440.1652" r="77.1" fx="1302.1255" fy="1494.4326" gradientTransform="matrix(1 0 0 -1 0 2701.1653)" gradientUnits="userSpaceOnUse">
		<stop  offset="0.3" style="stop-color:#C8BA89"/>
		<stop  offset="0.8" style="stop-color:#FFEAAB"/>
	</radialGradient>
	<path class="st6" d="M1225.9,1183.4c-2,25,1,47,7,63c-17-6-38-8-64-7c-3,53,10,88,44,100l56-56v-1h1l56-56c-12-34-47-47-100-44
		V1183.4z"/>
	
		<radialGradient id="SVGID_00000038398272677179430030000001804102296906135485_" cx="826.8495" cy="1440.1652" r="77.1044" fx="881.6199" fy="1494.4358" gradientTransform="matrix(-1 0 0 -1 2273.4167 2701.1653)" gradientUnits="userSpaceOnUse">
		<stop  offset="0.3" style="stop-color:#C8BA89"/>
		<stop  offset="0.8" style="stop-color:#FFEAAB"/>
	</radialGradient>
	
		<path style="fill:url(#SVGID_00000038398272677179430030000001804102296906135485_);stroke:#1D1D1B;stroke-width:7;stroke-miterlimit:10;" d="
		M1467.9,1183.4c2,25,0,47-7,63c17-6,38-8,64-7c3,53-10,88-44,100l-56-56v-1h-1l-56-56c12-34,47-47,100-44V1183.4z"/>
	
		<radialGradient id="SVGID_00000034064377345655811870000009834689378909276815_" cx="1247.3583" cy="3641.7656" r="77.1" fx="1302.1255" fy="3696.033" gradientTransform="matrix(1 0 0 1 0 -2180.1655)" gradientUnits="userSpaceOnUse">
		<stop  offset="0.3" style="stop-color:#C8BA89"/>
		<stop  offset="0.8" style="stop-color:#FFEAAB"/>
	</radialGradient>
	
		<path style="fill:url(#SVGID_00000034064377345655811870000009834689378909276815_);stroke:#1D1D1B;stroke-width:7;stroke-miterlimit:10;" d="
		M1225.9,1539.4c-2-25,1-47,7-63c-17,6-38,8-64,7c-3-53,10-88,44-100l56,56v1h1l56,56c-12,34-47,47-100,44V1539.4z"/>
	
		<radialGradient id="SVGID_00000078740226243917539740000005450454767927759021_" cx="826.8585" cy="3641.7656" r="77.1" fx="881.6258" fy="3696.033" gradientTransform="matrix(-1 0 0 1 2274.4167 -2179.1655)" gradientUnits="userSpaceOnUse">
		<stop  offset="0.3" style="stop-color:#C8BA89"/>
		<stop  offset="0.8" style="stop-color:#FFEAAB"/>
	</radialGradient>
	
		<path style="fill:url(#SVGID_00000078740226243917539740000005450454767927759021_);stroke:#1D1D1B;stroke-width:7;stroke-miterlimit:10;" d="
		M1467.9,1539.4c2-25,0-47-7-63c17,6,38,8,64,7c3-53-10-88-44-100l-56,56v1h-1l-56,56c12,34,47,47,100,44V1539.4z"/>
	
		<radialGradient id="SVGID_00000076571922206926762220000018171499442798899865_" cx="2675.4583" cy="3343.1841" r="216.3372" fx="2491.8118" fy="3343.1841" gradientTransform="matrix(-1 0 0 1 3716.4167 -1985.1655)" gradientUnits="userSpaceOnUse">
		<stop  offset="0" style="stop-color:#BEB183"/>
		<stop  offset="0" style="stop-color:#C5B787"/>
		<stop  offset="0.3" style="stop-color:#E4D39B"/>
		<stop  offset="0.4" style="stop-color:#F8E3A7"/>
		<stop  offset="0.5" style="stop-color:#FFEAAC"/>
	</radialGradient>
	
		<path style="fill:url(#SVGID_00000076571922206926762220000018171499442798899865_);stroke:#1D1D1B;stroke-width:11;stroke-miterlimit:10;" d="
		M845.9,1359.4c104,93,203,155,288,140c27-62,62-109,104-141c-47-34-82-80-103-141C1047.9,1199.4,948.9,1264.4,845.9,1359.4z"/>
	
		<radialGradient id="SVGID_00000146486505881624272070000007791691072706773163_" cx="3513.3582" cy="3343.1841" r="216.4815" fx="3329.5889" fy="3343.1841" gradientTransform="matrix(1 0 0 1 -1855 -1985.1655)" gradientUnits="userSpaceOnUse">
		<stop  offset="0" style="stop-color:#BEB183"/>
		<stop  offset="0" style="stop-color:#C5B787"/>
		<stop  offset="0.3" style="stop-color:#E4D39B"/>
		<stop  offset="0.4" style="stop-color:#F8E3A7"/>
		<stop  offset="0.5" style="stop-color:#FFEAAC"/>
	</radialGradient>
	
		<path style="fill:url(#SVGID_00000146486505881624272070000007791691072706773163_);stroke:#1D1D1B;stroke-width:11;stroke-miterlimit:10;" d="
		M1854.9,1359.4c-105,93-204,155-288,140c-27-62-62-109-105-141c48-34,83-80,104-141C1651.9,1199.4,1750.9,1264.4,1854.9,1359.4z"/>
	
		<radialGradient id="SVGID_00000169550232345841742170000015346316110772407994_" cx="1785.7081" cy="2232.1169" r="216.3466" fx="1602.0537" fy="2232.1169" gradientTransform="matrix(6.123234e-17 -1 -1 -6.123234e-17 3582.3738 2835.2083)" gradientUnits="userSpaceOnUse">
		<stop  offset="0" style="stop-color:#BEB183"/>
		<stop  offset="0" style="stop-color:#C5B787"/>
		<stop  offset="0.3" style="stop-color:#E4D39B"/>
		<stop  offset="0.4" style="stop-color:#F8E3A7"/>
		<stop  offset="0.5" style="stop-color:#FFEAAC"/>
	</radialGradient>
	
		<path style="fill:url(#SVGID_00000169550232345841742170000015346316110772407994_);stroke:#1D1D1B;stroke-width:11;stroke-miterlimit:10;" d="
		M1348.9,853.4c-93,105-155,204-140,288c63,27,109,62,142,105c34-47,80-83,140-104C1508.9,1056.4,1444.9,957.4,1348.9,853.4z"/>
	
		<radialGradient id="SVGID_00000087384799405000078670000014048235123314593174_" cx="4403.1084" cy="2232.1169" r="216.4904" fx="4219.3315" fy="2232.1169" gradientTransform="matrix(0 1 -1 0 3582.3738 -2736.2085)" gradientUnits="userSpaceOnUse">
		<stop  offset="0" style="stop-color:#BEB183"/>
		<stop  offset="0" style="stop-color:#C5B787"/>
		<stop  offset="0.3" style="stop-color:#E4D39B"/>
		<stop  offset="0.4" style="stop-color:#F8E3A7"/>
		<stop  offset="0.5" style="stop-color:#FFEAAC"/>
	</radialGradient>
	
		<path style="fill:url(#SVGID_00000087384799405000078670000014048235123314593174_);stroke:#1D1D1B;stroke-width:11;stroke-miterlimit:10;" d="
		M1348.9,1863.4c-93-105-155-204-140-288c63-27,109-63,142-105c34,47,80,82,140,103C1508.9,1660.4,1444.9,1759.4,1348.9,1863.4z"/>
	
		<radialGradient id="SVGID_00000157303372518941271060000011183645627695617459_" cx="2237.6086" cy="2949.4155" r="91.1" fx="2237.6086" fy="3034.2156" gradientTransform="matrix(0 1 -1 0 4058.3738 -880.2086)" gradientUnits="userSpaceOnUse">
		<stop  offset="0.1" style="stop-color:#DBCA95"/>
		<stop  offset="0.4" style="stop-color:#DDCC96"/>
		<stop  offset="0.5" style="stop-color:#E6D49C"/>
		<stop  offset="0.7" style="stop-color:#F5E1A5"/>
		<stop  offset="0.7" style="stop-color:#FFEAAC"/>
	</radialGradient>
	<path style="fill:url(#SVGID_00000157303372518941271060000011183645627695617459_);" d="M1090.9,1454.4c-37,0-67-43-67-97
		s30-96,67-96s42,16,54,40l9,1c10,24,24,43,41,55c-19,14-33,32-41,55l-9,1c-12,25-32,41-55,41H1090.9z"/>
	<path class="st1" d="M1090.9,1454.4l-11-1l-5-1l-5-2l-9-4l-5-3l-2-2l-2-2c-16.5-13.8-27.8-32.9-32-54c-9.4-42.9,5.6-87.5,39-116
		c8.8-6.4,19.2-10.2,30-11h9l2,1h3l3,1h2l3,1l2,1l3,1l3,2l2,1l17,14l3,4l4,5l3,4l2,5l-5-4l10,1l3,1l2,3c6.8,15,15.9,28.8,27,41
		l12,11l9,6l-9,7l-3,2l-3,3l-3,2l-3,3c-8,7.5-14.8,16.3-20,26l-8,14l-1,4h-3l-10,1l4-3c-6.6,10.4-15.1,19.6-25,27
		c-5.5,3.9-11.6,6.9-18,9l-2,1h-2l-3,1h-9H1090.9z M1090.9,1453.4h4l2-1h2c8.6-1.9,16.5-6,23-12l11-14c3-4,5-10,7-15l1-2l4-1l8-2
		l-4,4c4.8-17.7,14.1-33.9,27-47l3-3l4-4l3-2l4-3v13c-9.7-7.6-18.1-16.7-25-27c-7-10-13-21-17-32l5,4l-8-1h-4l-2-4l-2-4l-2-4l-3-5
		l-3-3c-3-6-8-10-13-14c-5.6-4.3-12.1-7.4-19-9l-2-1h-5l-10,1l-9,3l-9,5l-2,2l-2,1l-1,2l-2,1l-4,4l-3,4c-7.1,11.4-12.2,23.9-15,37
		c-6.4,35.5-0.8,72.1,16,104c3.9,5.7,8.6,10.8,14,15l8,6l5,2l5,1L1090.9,1453.4z"/>
	
		<radialGradient id="SVGID_00000174578035984979533160000016658757189323953574_" cx="2237.6086" cy="3649.4153" r="91.1" fx="2237.6086" fy="3734.2153" gradientTransform="matrix(6.123234e-17 1 1 -6.123234e-17 -2060.957 -880.2086)" gradientUnits="userSpaceOnUse">
		<stop  offset="0.1" style="stop-color:#DBCA95"/>
		<stop  offset="0.4" style="stop-color:#DDCC96"/>
		<stop  offset="0.5" style="stop-color:#E6D49C"/>
		<stop  offset="0.7" style="stop-color:#F5E1A5"/>
		<stop  offset="0.7" style="stop-color:#FFEAAC"/>
	</radialGradient>
	<path style="fill:url(#SVGID_00000174578035984979533160000016658757189323953574_);" d="M1606.9,1454.4c37,0,66-43,66-97
		s-29-96-66-96c-23,0-42,16-55,40l-9,1c-10,24-24,43-40,55c18,14,32,32,40,55l9,1C1564.9,1438.4,1583.9,1454.4,1606.9,1454.4z"/>
	<path class="st1" d="M1606.9,1453.4c55-2,66-87,57-130c-3-14-8-29-18-40c-12-14-30-23-48-18c-19,5-32,22-40,39l-1,4l-13,1l6-4
		c-5,11-10,22-17,32s-16,19-26,27v-13l7,5c17,14,29,34,35,54l-5-3l9,1l3,1c2,6,5,12,9,17C1573.9,1441.4,1588.9,1453.4,1606.9,1453.4
		z M1606.9,1454.4c-25,0-47-18-59-38l4,3l-13-1l-1-4c-9-20-22-37-40-50l-9-7l21-17c11-12,20-26,27-41l2-3l13-2l-5,4
		c9-17,23-32,42-38c17-5,35-1,49,9c39,31,53,91,33,136c-12,26-35,49-64,50V1454.4z"/>
	
		<radialGradient id="SVGID_00000073714956417962338900000016572874173291475376_" cx="1126.5585" cy="2059.6653" r="91.1" fx="1126.5585" fy="2144.4653" gradientTransform="matrix(-1 0 0 -1 2475.4167 3178.1653)" gradientUnits="userSpaceOnUse">
		<stop  offset="0.1" style="stop-color:#DBCA95"/>
		<stop  offset="0.4" style="stop-color:#DDCC96"/>
		<stop  offset="0.5" style="stop-color:#E6D49C"/>
		<stop  offset="0.7" style="stop-color:#F5E1A5"/>
		<stop  offset="0.7" style="stop-color:#FFEAAC"/>
	</radialGradient>
	<path style="fill:url(#SVGID_00000073714956417962338900000016572874173291475376_);" d="M1251.9,1099.4c0-37,43-67,97-67
		s96,30,96,67s-16,42-40,54l-1,10c-25,10-43,24-55,40c-14-18-32-32-56-40l-1-10C1267.9,1141.4,1251.9,1122.4,1251.9,1099.4z"/>
	<path class="st1" d="M1251.9,1099.4c0-29,23-52,49-64c45-20,106-6,136,33c10,14,14,32,9,49c-6,19-21,33-38,42l4-5l-2,13l-3,2
		c-15,7-29,16-41,27l-17,21l-7-9c-13-18-30-31-50-40l-4-1v-13l2,4C1269.9,1146.4,1251.9,1124.4,1251.9,1099.4z M1252.9,1099.4
		c0,18,12,33,27,42c5,4,11,7,17,9v3l2,9l-3-5c22,6,42,20,56,38l3,4h-13c8-10,17-19,27-26s21-12,32-17l-4,5l1-12l4-1
		c17-8,34-21,39-40c5-18-4-36-18-48c-11.6-9.3-25.3-15.5-40-18C1339.9,1033.4,1254.9,1044.4,1252.9,1099.4z"/>
	
		<radialGradient id="SVGID_00000127760893499862874220000011883247021043244191_" cx="1126.5585" cy="4539.1655" r="91.1" fx="1126.5585" fy="4623.9653" gradientTransform="matrix(-1 0 0 1 2474.4167 -2941.1655)" gradientUnits="userSpaceOnUse">
		<stop  offset="0.1" style="stop-color:#DBCA95"/>
		<stop  offset="0.4" style="stop-color:#DDCC96"/>
		<stop  offset="0.5" style="stop-color:#E6D49C"/>
		<stop  offset="0.7" style="stop-color:#F5E1A5"/>
		<stop  offset="0.7" style="stop-color:#FFEAAC"/>
	</radialGradient>
	<path style="fill:url(#SVGID_00000127760893499862874220000011883247021043244191_);" d="M1251.9,1615.4c0,37,43,67,97,67
		s96-30,96-67c0-22-16-42-40-54l-1-9c-25-10-43-24-55-41c-14,19-32,33-56,41l-1,9C1267.9,1573.4,1251.9,1593.4,1251.9,1615.4z"/>
	<path class="st1" d="M1252.9,1615.4c2,55,87,66,130,58c14-3,29-9,40-18c14-12,23-30,18-48c-5-19-22-32-39-40l-4-2l-1-12l4,5
		c-23-8.6-43.3-23.1-59-42h13l-6,7c-13.4,16.9-32.1,28.8-53,34l3-4l-1,8l-1,4l-18,8C1264.9,1582.4,1252.9,1597.4,1252.9,1615.4z
		 M1251.9,1615.4c0-25,18-46,38-59l-3,5l1-13l4-2c20-9,37-21,50-39l6-9c6,7,12,15,18,20c12,12,26,21,41,28l3,1c1,5,2,10,1,14l-3-6
		c17,9,32,24,38,42c5,17,1,35-9,49c-31,40-91,54-136,33c-26-11-49-34-50-64H1251.9z"/>
	
		<radialGradient id="SVGID_00000058588284107304567160000006151966106164285314_" cx="1522.1583" cy="1518.5652" r="35.4" fx="1498.0582" fy="1542.6653" gradientTransform="matrix(1 0 0 -1 0 2701.1653)" gradientUnits="userSpaceOnUse">
		<stop  offset="0" style="stop-color:#00B2EB"/>
		<stop  offset="0.2" style="stop-color:#06ABE5"/>
		<stop  offset="0.5" style="stop-color:#1998D6"/>
		<stop  offset="0.8" style="stop-color:#3878BD"/>
		<stop  offset="0.8" style="stop-color:#3F72B8"/>
	</radialGradient>
	<path style="fill:url(#SVGID_00000058588284107304567160000006151966106164285314_);" d="M1499.9,1205.4l31,1c12,1,23-18,8-41
		c-23-14-42-4-41,9L1499.9,1205.4z"/>
	<path class="st1" d="M1499.9,1205.4l30-2c10,0,13-11,12-18c-1-6-3-12-6-17l1,1c-5-3-11-6-17-6c-8-1-19,2-19,11L1499.9,1205.4z
		 M1499.9,1205.4c-1.7-12.3-3-24.6-4-37c1-6,7-11,13-13c11-3,23,1,33,7h1v1c6,9,10,22,6,33c-2,5-7,11-13,13h-6L1499.9,1205.4z"/>
	
		<radialGradient id="SVGID_00000148635038080146499230000013763962137902778034_" cx="1654.2584" cy="1518.5652" r="35.4" fx="1630.1586" fy="1542.6653" gradientTransform="matrix(-1 0 0 -1 2823.4167 2701.1653)" gradientUnits="userSpaceOnUse">
		<stop  offset="0" style="stop-color:#00B2EB"/>
		<stop  offset="0.2" style="stop-color:#06ABE5"/>
		<stop  offset="0.5" style="stop-color:#1998D6"/>
		<stop  offset="0.8" style="stop-color:#3878BD"/>
		<stop  offset="0.8" style="stop-color:#3F72B8"/>
	</radialGradient>
	<path style="fill:url(#SVGID_00000148635038080146499230000013763962137902778034_);" d="M1190.9,1205.4l-31,1c-11,1-23-18-8-41
		c23-14,42-4,41,9l-1,31H1190.9z"/>
	<path class="st1" d="M1190.9,1205.4c-12,1.7-24,3.1-36,4c-6-2-11-8-13-13c-4-11,0-24,6-33v-1l1-1c9-5,22-9,33-5c6,1,12,6,13,12l1,6
		L1190.9,1205.4z M1190.9,1205.4l-1-31c0-9-11-12-19-11c-6,0-12,3-17,6l1-1c-3,5-5,11-6,17c-1,7,3,18,12,18L1190.9,1205.4z"/>
	
		<radialGradient id="SVGID_00000104700497495267195430000011620622234880023448_" cx="1522.1583" cy="3879.2656" r="35.4" fx="1498.0582" fy="3903.3657" gradientTransform="matrix(1 0 0 1 0 -2337.1655)" gradientUnits="userSpaceOnUse">
		<stop  offset="0" style="stop-color:#00B2EB"/>
		<stop  offset="0.2" style="stop-color:#06ABE5"/>
		<stop  offset="0.5" style="stop-color:#1998D6"/>
		<stop  offset="0.8" style="stop-color:#3878BD"/>
		<stop  offset="0.8" style="stop-color:#3F72B8"/>
	</radialGradient>
	<path style="fill:url(#SVGID_00000104700497495267195430000011620622234880023448_);" d="M1499.9,1519.4l31-1c12-1,23,18,8,41
		c-23,15-42,4-41-8L1499.9,1519.4z"/>
	<path class="st1" d="M1499.9,1519.4c12-1.4,24-2.4,36-3c7,2,11,7,13,13c4,11,0,23-6,32v1l-1,1c-9,6-22,10-33,6c-6-2-11-6-13-13v-6
		L1499.9,1519.4z M1499.9,1519.4l1,31c0,10,11,13,19,12c6-1,12-3,17-7l-1,2c3-5,5-11,6-17c1-8-3-19-11-19L1499.9,1519.4z"/>
	
		<radialGradient id="SVGID_00000089552843945486278850000006717235559163478948_" cx="1654.2584" cy="3879.2656" r="35.4" fx="1630.1586" fy="3903.3657" gradientTransform="matrix(-1 0 0 1 2822.4167 -2337.1655)" gradientUnits="userSpaceOnUse">
		<stop  offset="0" style="stop-color:#00B2EB"/>
		<stop  offset="0.2" style="stop-color:#06ABE5"/>
		<stop  offset="0.5" style="stop-color:#1998D6"/>
		<stop  offset="0.8" style="stop-color:#3878BD"/>
		<stop  offset="0.8" style="stop-color:#3F72B8"/>
	</radialGradient>
	<path style="fill:url(#SVGID_00000089552843945486278850000006717235559163478948_);" d="M1190.9,1519.4l-31-1c-11-1-23,18-8,41
		c23,15,42,4,41-8l-1-32H1190.9z"/>
	<path class="st1" d="M1190.9,1519.4l-30,2c-9,0-13,11-12,19c1,6,3,12,6,17l-1-2c5,4,11,6,17,7c8,1,19-2,19-12L1190.9,1519.4z
		 M1190.9,1519.4c1.7,12.3,3,24.6,4,37c-1,7-7,11-13,13c-11,4-23,0-33-6l-1-1v-1c-6-9-9-21-6-32c2-6,7-11,13-13l6-1l31,4H1190.9z"/>
	<path class="st22" d="M1347.9,968.4c-41-49-89-76-140-89c-21-6-41-17-56-33c-28-29-44-67-44-108v-5c1-39,17-76,44-103s33-27,54-33
		c52-15,102-43,145-93c47,44,95,74,143,90c17,5,33,14,46,26c31,29,49,68,50,110v5c0,41-16,79-43,108c-15,16-34,27-55,33
		C1438.9,891.4,1388.9,918.4,1347.9,968.4z"/>
	<path class="st1" d="M1347.9,969.4l-13-12c-32-32-73-55-117-67l-16-4c-22-5-42-17-57-32c-57-55-67-144-24-211c18-29,44-51,77-62
		c13-4,27-8,40-14c38-17,72-43,99-75l12-14l14,12c38.1,37.3,83.4,66.5,133,86c21,7,40,17,56,33c67.6,63.5,71,169.8,7.5,237.5
		c-0.2,0.2-0.3,0.4-0.5,0.5c-19,20-44,34-71,39l-16,5c-40,12-77,33-108,62L1347.9,969.4z M1347.9,967.4c34.8-42.4,81.4-73.4,134-89
		l13-5c29-9,52-28,68-53c39-58,33-137-14-188c-13-15-30-27-49-34l-16-6c-50-18-95-50-135-87h3c-39,46-90,79-148,95
		c-36,10-63,39-79,72c-29.5,61.6-14.8,135.3,36,181c14,12,31,20,49,25l21,7C1276.9,901.4,1317.9,929.4,1347.9,967.4z"/>
	<path class="st23" d="M1349.9,958.4c-36-43-77-66-122-78s-36-15-49-29c-24-25-38-58-38-93v-5c1-34,15-66,38-90c13-13,29-23,47-28
		c46-13,88-65,125-109c41,39,84,92,127,106c14,5,28,13,40,23c26,25,42,59,43,96v4c0,36-14,69-38,94c-13,14-29,24-47,29
		C1428.9,891.4,1385.9,914.4,1349.9,958.4z"/>
	<path class="st1" d="M1349.9,959.4l-14-15c-28-29-63-49-101-60l-19-6c-44-17-72-64-76-110c-3.5-48,18.6-94.4,58-122
		c9-6,20-10,32-13c49-18,87-69,120-108l1-1l1,1c20,18,38,38,57,56s38,37,63,47l18,8c9,4,18,9,26,16c56.8,50.8,61.7,138,11,194.9
		c-2.8,3.2-5.8,6.2-9,9.1c-13,11-28,19-44,24C1425.8,894.3,1382.7,921.7,1349.9,959.4z M1349.9,957.4l7-9c30-38.1,71.9-65.2,119-77
		c24-9,43-26,56-47c32.7-52.8,22.1-121.5-25-162c-10-8-21-14-33-18l-8-3c-14-5-26-14-37-22c-31-25-58-56-87-83l20-1
		c-27,30-53,63-85,88c-13,9-27,18-43,23l-13,4c-15.9,6.1-29.7,16.5-40,30c-41.8,50.2-38.3,124,8,170c11,10,24,18,39,23l29,11
		C1293.9,899.4,1326.9,925.4,1349.9,957.4z"/>
	<path class="st24" d="M1349.9,957.4c-31-36-66-56-104-66c-16-4-30-13-42-25c-20-21-32-50-32-80v-3c1-30,13-57,32-77
		c11-12,25-20,41-25c39-11,74-55,106-93c36,33,72,79,108,91c13,4,25,11,35,20c22,21,36,50,37,82v3c0,30-12,59-33,80
		c-10.8,11.8-24.7,20.4-40,25C1417.9,900.4,1380.9,920.4,1349.9,957.4z"/>
	<path class="st1" d="M1349.9,957.4c-26-30-60-52-98-63l-16-5c-33-12-56-43-64-77c-10.1-46.4,8.4-94.4,47-122c8-6,18-10,28-13
		c11-4,22-10,32-18c27-21,49-49,72-76c32,29,70,79,110,93c11,4,23,10,32,18c49,44,54,119,10,168c-11.4,13.2-26.3,22.9-43,28
		c-43,11-81,33-110,68V957.4z M1349.9,957.4c25-31,59-54,97-66l12-4c12-4,23-10,32-19c25-22,39-56,37-89c-2-31-16-60-39-80
		c-9-8-19-13-30-17c-8-2-15-6-22-10c-34-22-59-54-88-81h5c-22,25-44,53-71,74c-10,7-22,14-34,19l-12,3c-11,5-22,12-30,21
		c-26,27-38,66-30,103c8,32,29,63,60,75l16,5C1290.9,903.4,1324.9,926.4,1349.9,957.4z"/>
	<path class="st0" d="M1349.9,967.4c-26-31-55-47-87-56c-13-3-25-10-35-20c-17.2-18.1-26.9-42-27-67v-3c1-24,11-47,27-64
		c9-10,21-17,33-20c33-10,62-46,89-78c30,28,60,66,90,76c11,3,21,9,29,17c19,17,30,42,31,68v3c0,25-10,49-27,67c-9,9-21,16-34,20
		C1405.9,919.4,1375.9,936.4,1349.9,967.4z"/>
	<path class="st1" d="M1349.9,967.4c-23.2-26.9-54.4-45.8-89-54c-12-3-23-9-32-17c-40.2-37.8-42.2-101.1-4.4-141.4
		c4.4-4.7,9.2-8.9,14.4-12.6c7-5,14-8,21-10c36-11,66-53,90-80c26,23,47,51,76,70l9,5l3,1l6,3c12,4,23,11,31,20c37,37,39,97,4,137
		c-9,10-20,18-33,22l-20,6c-29,10-56,27-76,50V967.4z M1349.9,967.4c19-25,45-44,74-54l20-7c17-7,31-20,40-36
		c25.6-43.9,10.8-100.2-33.1-125.8c-1.3-0.8-2.6-1.5-3.9-2.2l-13-5l-4-1l-10-6c-27-18-49-45-73-67l7-1c-19,22-37,45-60,62
		c-8,7-18,13-29,16l-2,1l-19,8c-30.4,21.3-44.9,58.8-37,95c4,18,13,35,26,48c8,7,18,13,29,17l21,7
		C1308.9,926.4,1331.9,944.4,1349.9,967.4z"/>
	
		<radialGradient id="SVGID_00000062172135995999237960000014294048673406492050_" cx="1350.3583" cy="1865.7651" r="121.2626" fx="1350.3583" fy="1937.5022" gradientTransform="matrix(1 0 0 -1 0 2701.1653)" gradientUnits="userSpaceOnUse">
		<stop  offset="0" style="stop-color:#FFEAAC"/>
		<stop  offset="0.5" style="stop-color:#FDE8AA"/>
		<stop  offset="0.7" style="stop-color:#F6E2A6"/>
		<stop  offset="0.8" style="stop-color:#EAD79E"/>
		<stop  offset="0.9" style="stop-color:#DBCA95"/>
	</radialGradient>
	<path style="fill:url(#SVGID_00000062172135995999237960000014294048673406492050_);" d="M1349.9,958.4c-20-25-44-38-69-44
		c-11-3-21-9-28-17c-13.8-14.2-21.7-33.2-22-53v-3c1-19,9-37,22-51c7-8,16-13,26-16c26-7,50-37,71-62c24,22,48,53,73,61
		c8,2,16,7,22,13c15,14,25,33,25,54v3c0,20-8,39-21,53c-8,8-17,14-27,16C1394.9,920.4,1370.9,933.4,1349.9,958.4z"/>
	<path class="st1" d="M1349.9,958.4c-17-20-40-34-66-41l-10-3c-15-6-27-17-35-31c-14.3-24.2-15.1-54.1-2-79c9-16,23-29,40-34
		c29-9,54-43,73-65c18,16,34,35,52,50l18,12l11,4c7,3,14,8,20,14c29,30,31,79,2,111c-7,8-16,14-26,17l-19,6
		C1385.9,927.4,1365.9,940.4,1349.9,958.4z M1349.9,958.4c14-19,34-34,56-43l19-6c10-4,19-11,26-20c20-26,21-63,0-90
		c-7-10-17-18-29-22c-7-2-15-6-21-11c-20-14-36-34-54-50l7-1l-30,34c-13,12-26,24-43,29c-27,7-44,34-46,60c-1,15,2,29,9,42
		s18,24,31,29l11,4C1310.9,921.4,1333.9,937.4,1349.9,958.4z"/>
	
		<radialGradient id="SVGID_00000078025298860828230970000017684672903116017536_" cx="1347.8583" cy="1724.5272" r="158.7287" fx="1347.8583" fy="1819.7043" gradientTransform="matrix(1 0 0 -1 0 2701.1653)" gradientUnits="userSpaceOnUse">
		<stop  offset="0.2" style="stop-color:#FFEAAC"/>
		<stop  offset="0.6" style="stop-color:#FDE8AA"/>
		<stop  offset="0.7" style="stop-color:#F6E2A6"/>
		<stop  offset="0.8" style="stop-color:#EAD79E"/>
		<stop  offset="0.9" style="stop-color:#DBCA95"/>
	</radialGradient>
	<path style="fill:url(#SVGID_00000078025298860828230970000017684672903116017536_);" d="M1347.9,1082.4c26-98,131-125,198-209
		c-71-13-138,26-198,76c-60-50-130-89-198-76C1220.9,949.4,1325.9,995.4,1347.9,1082.4z"/>
	<path class="st1" d="M1347.9,1082.4c11-49,48-86,86-116c38-29,78-58,108-96l3,8c-74-13-143,32-197,78c-54-46-123-92-197-78l3-8
		c37,40,82,71,123,107c31,29,62,62,71,104V1082.4z M1347.9,1082.4c-13-48-52-82-89-112c-38-30-78-58-112-93l-6-7l8-1
		c76-15,147,29,202,75h-6c58-48,131-92,210-74c-32,41-76,71-117,101C1398.9,1000.4,1361.9,1033.4,1347.9,1082.4z"/>
	<path class="st1" d="M1278.9,770.4l6,15l8,19c15,32.8,35.2,62.8,60,89h-5l9-10c25.9-29.4,46.2-63.3,60-100l5-13
		c-11.1,49.6-36.1,95-72,131C1314.4,865.3,1289.8,819.9,1278.9,770.4z"/>
	<path class="st1" d="M1260.9,776.4l7,19l8,19c18.9,43.1,44.9,82.6,77,117h-5l4-4l22-25c18-23,32-47,45-73l7-15l8-19l1-3l2-5l4-11
		c-3.2,11.1-6.5,22.1-10,33l-8,22l-7,16l-8,15c-15.2,28.5-34.8,54.5-58,77c-20-19-37-42-51-67l-9-15l-5-10l-7-16l-6-16l-6-19
		L1260.9,776.4z"/>
	<path class="st1" d="M1295.9,760.4l4,12l7,14l3,6c11,22.8,25.5,43.7,43,62h-5l5-5c21-22,36-49,48-77l5-12
		c-7.9,38.7-27.1,74.1-55,102c-10-9-19-19-26-30C1310.9,810.4,1300.9,786.4,1295.9,760.4z"/>
	<path class="st1" d="M1312.9,753.4l12,26c8,14,17,27,28,38h-5l6-6c13-15,23-31,31-49l4-9c-4.1,26.6-16.7,51.2-36,70l-2,3l-5-5
		c-18-18-29-42-33-67V753.4z"/>
	<circle class="st27" cx="1350.6" cy="766.3" r="13"/>
	<path class="st28" d="M1348.9,1757.4c-41,49-88,75-140,89c-21,5-40,17-56,33c-27,29-43,67-43,108v5c1,39,17,75,43,103
		c15,16,34,27,54,33c53,14,102,42,145,93c48-44,95-74,144-90c17-6,33-15,46-27c30-28,49-67,50-110v-5c0-40-16-78-44-107
		c-15-16-33-27-54-33C1439.9,1834.4,1390.9,1807.4,1348.9,1757.4z"/>
	<path class="st23" d="M1351.9,1767.4c-36,42-78,65-122,77c-19,5-36,15-49,29c-24,25-38,59-38,94v4c1,34,15,66,38,90
		c12,14,29,24,47,29c45,12,87,64,125,108c41-38,84-92,126-106c15-4,29-12,40-23c26-24,43-59,44-95v-5c0-35-14-68-38-93
		c-13-14-30-24-48-29c-46-13-90-36-126-80H1351.9z"/>
	<path class="st1" d="M1351.9,1767.4c-30.1,41.3-73.6,71-123,84c-14,5-28,13-39,24c-46.3,46-49.8,119.8-8,170c13,15,29,27,48,32
		l11,3c14,6,26,13,37,22c33,25,59,57,85,88l-19-2c28-26,55-58,87-82c11-9,22-17,36-23l8-3c12-4,24-9,33-17
		c47.1-40.5,57.7-109.2,25-162c-13-22-31-39-55-47c-25-8-48-18-69-32c-19-12-36-28-50-45l-8-10H1351.9z M1351.9,1766.4l28,29
		c27.4,23.7,59.9,40.8,95,50c16,4,32,12,44,24c20,18,34,42,41,67c12,50-5,103-43,137c-8,7-16,12-25,16l-19,7c-24,11-44,29-63,47
		l-56,57l-1,1l-1-2c-34-38-72-89-121-107c-22.8-5.8-43.1-18.8-58-37c-22-27-34-63-31-98c4-46,32-93,76-110l19-6c38-11,73-32,100-60
		l14-15H1351.9z"/>
	<path class="st24" d="M1351.9,1767.4c-31,37-66,56-105,66c-15,5-30,13-41,25c-21,21-33,50-33,80v4c1,29,13,56,33,77
		c11,11,25,20,40,24c39,11,75,55,107,93c35-33,72-79,108-90c13-5,24-11,34-20c23-21,36-51,37-82v-4c0-30-12-58-32-80
		c-11.2-11.6-25.4-19.9-41-24C1418.9,1824.4,1382.9,1805.4,1351.9,1767.4z"/>
	<path class="st1" d="M1351.9,1767.4c-25,31-60,54-98,66l-16,5c-31,13-52,43-59,76c-9,37,4,79,32,106c10,9,22,16,35,20
		c14,4,27,11,38,20c28,21,49,48,71,74l-5-1c29-27,55-58,88-80c7-5,14-8,22-11c11-3,21-9,30-17c23-20,38-49,39-79c2-33-12-67-36-90
		c-9-8-20-14-32-18l-13-4C1410.9,1821.4,1375.9,1799.4,1351.9,1767.4z M1351.9,1767.4c29,35,66,56,110,68c16,4,31,14,43,27
		c44,50,39,125-11,168c-9,8-20,14-32,18c-40,15-78,64-110,93c-22-26-44-54-72-76c-10-7-20-14-32-18c-10-3-19-6-28-12s-17-14-24-22
		c-22-28-31-66-22-101c8-33,30-65,63-77l16-5C1291.9,1820.4,1325.9,1797.4,1351.9,1767.4z"/>
	<path class="st0" d="M1351.9,1758.4c-26,30-56,47-87,55c-14,4-26,11-35,21c-17.6,17.9-27.6,41.9-28,67l1,3c0,24,10,47,26,64
		c9,10,21,16,34,20c32,9,62,46,89,77c29-27,60-65,90-75c11-4,20-9,29-17c18-18,30-42,31-68v-3c0-25-10-49-27-67
		c-9.2-9.8-21-16.7-34-20c-33-10-64-26-90-57H1351.9z"/>
	<path class="st1" d="M1351.9,1758.4c-22.2,28.4-53.1,48.8-88,58c-11,3-21,9-29,17c-12.9,12.9-21.9,29.2-26,47c-8,35,6,75,36,95
		c6.7,4.6,14.1,8,22,10c11,3,20,9,29,15c23,18,41,41,60,62h-8c24-23,46-49,74-68l10-5l3-2l13-5c13-5,23-14,31-25c22-29,25-70,6-102
		c-8-16-22-30-39-36l-14-5C1399.9,1804.4,1371.9,1785.4,1351.9,1758.4z M1351.9,1758.4c19,23,46,41,75,50l20,6c13,4,24,12,33,22
		c35,40,33,100-4,138c-8,9-19,15-31,20l-6,2l-3,1l-9,5c-29,20-50,47-76,71c-24-28-54-69-90-80c-22.1-6.5-40.3-22.1-50-43
		c-21.8-40.2-13.5-90,20-121c9-8,20-14,31-18c34.2-8.5,65.2-26.9,89-53H1351.9z"/>
	
		<radialGradient id="SVGID_00000168117668163448876200000001307129382667655094_" cx="1351.9584" cy="5005.9653" r="121.2" fx="1351.9584" fy="5077.6655" gradientTransform="matrix(1 0 0 1 0 -3116.1655)" gradientUnits="userSpaceOnUse">
		<stop  offset="0" style="stop-color:#FFEAAC"/>
		<stop  offset="0.5" style="stop-color:#FDE8AA"/>
		<stop  offset="0.7" style="stop-color:#F6E2A6"/>
		<stop  offset="0.8" style="stop-color:#EAD79E"/>
		<stop  offset="0.9" style="stop-color:#DBCA95"/>
	</radialGradient>
	<path style="fill:url(#SVGID_00000168117668163448876200000001307129382667655094_);" d="M1351.9,1767.4c-21,24-45,37-70,44
		c-11,3-20,9-28,17c-13.4,14.4-20.9,33.3-21,53v2c0,20,8,38,21,52c7,7,17,13,27,16c26,7,49,36,71,62c23-23,48-53,72-61
		c8-3,16-7,23-13c15-14,24-34,25-55v-2c0-20-8-39-22-54c-7-7-17-13-27-16C1396.9,1805.4,1371.9,1792.4,1351.9,1767.4z"/>
	<path class="st1" d="M1351.9,1767.4c-17,21-39,37-65,45l-10,3c-14,6-24,17-31,29c-7,13-11,28-9,42c2,26,19,53,45,60
		c17,5,31,17,43,29l30,34h-7c18-17,34-36,54-51c7-5,14-9,22-11c11-4,21-12,29-22c20-26,19-64-1-90c-6-9-15-16-25-19l-19-7
		C1385.9,1800.4,1365.9,1786.4,1351.9,1767.4z M1351.9,1767.4c15,17,35,31,57,39l19,5c10,4,20,10,27,18c28,32,27,80-3,111
		c-6,6-12,10-20,14l-10,4c-7,3-13,7-18,11c-19,15-35,34-53,51c-19-22-44-56-72-65c-18-5-32-18-41-34c-13.5-25.2-12.7-55.5,2-80
		c8-13,20-25,35-30l11-3C1310.9,1801.4,1333.9,1786.4,1351.9,1767.4z"/>
	
		<radialGradient id="SVGID_00000119082453935762707590000011179409690717418425_" cx="1349.3583" cy="4865.0049" r="158.5538" fx="1349.3583" fy="4960.1772" gradientTransform="matrix(1 0 0 1 0 -3116.1655)" gradientUnits="userSpaceOnUse">
		<stop  offset="0.2" style="stop-color:#FFEAAC"/>
		<stop  offset="0.6" style="stop-color:#FDE8AA"/>
		<stop  offset="0.7" style="stop-color:#F6E2A6"/>
		<stop  offset="0.8" style="stop-color:#EAD79E"/>
		<stop  offset="0.9" style="stop-color:#DBCA95"/>
	</radialGradient>
	<path style="fill:url(#SVGID_00000119082453935762707590000011179409690717418425_);" d="M1349.9,1643.4c26,98,131,125,198,208
		c-72,13-138-25-198-75c-60,50-131,89-198,75C1221.9,1776.4,1327.9,1729.4,1349.9,1643.4z"/>
	<path class="st1" d="M1349.9,1643.4c13,48,50,82,89,110c42,31,85,60,117,101c-78,19-152-26-210-74h7c-56,46-127,91-202,76l-9-2l6-6
		c34-36,74-63,112-94C1297.9,1724.4,1335.9,1690.4,1349.9,1643.4z M1349.9,1643.4c-11,49-49,85-86,116s-76,60-109,95l-2-7
		c73,13,142-33,197-78c54,46,122,91,197,78l-3,7c-30-38-71-66-108-96c-39-30-76-66-87-115H1349.9z"/>
	<path class="st1" d="M1280.9,1954.4c11.3-49,35.8-94,71-130c11,10,21,21,30,34c20.2,28.9,34.5,61.5,42,96l-5-13l-2-4
		c-15.7-39-38.8-74.7-68-105h6c-24.8,26.2-45,56.2-60,89l-8,18L1280.9,1954.4z"/>
	<path class="st1" d="M1261.9,1948.4l5-19l7-19l6-16l7-16l5-10l8-16c14-24,31-47,52-66c15.5,13.7,29,29.5,40,47l18,29l8,16l7,16
		l8,21l4,14l5,19l-6-16l-1-2l-8-19l-7-16c-18.4-37.1-42.3-71.1-71-101h5l-26,29c-20,27-37,57-51,88l-8,18
		C1267.9,1935.4,1263.9,1943.4,1261.9,1948.4z"/>
	<path class="st1" d="M1296.9,1964.4c8-38.6,27.1-74.1,55-102c27.9,27.9,47,63.4,55,102l-4-11l-7-14l-3-7l-3-6
		c-10.8-20.3-24.7-38.8-41-55h6c-23.2,22.5-41.3,49.8-53,80L1296.9,1964.4z"/>
	<path class="st1" d="M1313.9,1971.4c4-25,16-49,34-68l4-4l3,2c18.9,18.9,31.2,43.5,35,70l-4-9c-8.9-20.2-21-38.8-36-55h5
		c-11,11-20,25-28,38L1313.9,1971.4z"/>
	<circle class="st27" cx="1352.1" cy="1959" r="13"/>
	<path class="st22" d="M1742.9,1360.4c49-41,75-89,89-140c6-21,17-41,33-56c29-28,67-44,108-44h5c39,1,76,17,103,44
		c16,14,27,33,33,54c15,52,43,102,93,145c-44,47-74,95-90,143c-6,17-14,33-27,46c-28,31-67,49-109,50h-5c-41,0-79-16-108-43
		c-16-15-27-34-33-55C1819.9,1451.4,1792.9,1401.4,1742.9,1360.4z"/>
	<path class="st1" d="M1741.9,1360.4l12-13c32-32,55-73,66-117l4-16c6-22,17-42,33-57c55-57,144-67,211-24c29,18,51,44,61,77
		c15.2,54.4,46.6,102.8,90,139l14,12l-13,14c-36.9,38.2-65.8,83.4-85,133c-7,21-17,40-33,56c-63.6,67.2-169.5,70.3-237,7
		c-21-19-35-44-41-71l-4-16c-12-40-33-77-62-108L1741.9,1360.4z M1743.9,1360.4c42.8,34.6,74.1,81.3,90,134l4,13c8,29,28,52,53,68
		c57,39,136,33,188-14c15-13,27-30,34-49l6-16c18-50,50-95,87-135v3c-47-39-79-90-95-149c-10-35-39-62-72-78
		c-61.6-29.5-135.3-14.8-181,36c-12,14-20,31-25,49l-7,21C1809.9,1288.4,1781.9,1330.4,1743.9,1360.4z"/>
	<path class="st23" d="M1752.9,1362.4c43-36,66-77,77-122c5-19,15-36,29-49c25-24,59-38,94-38h4c34,1,66,15,90,38c14,13,24,29,29,47
		c13,46,64,88,109,125c-39,41-92,84-106,127c-5,14-13,28-24,40c-24,26-58,42-95,43h-4c-36,0-69-14-94-38c-14-13-24-29-29-47
		C1819.9,1441.4,1796.9,1398.4,1752.9,1362.4z"/>
	<path class="st1" d="M1751.9,1362.4l15-14c28-28,49-63,60-101l6-19c17-44,64-72,110-76c47.7-3.1,93.5,18.9,121,58c7,10,11,21,14,32
		c18,49,69,87,107,120l2,1l-1,1l-57,57c-18,19-36,39-47,63l-7,18c-4,9-9,18-16,26c-50.5,57.1-137.7,62.5-194.8,12
		c-3.6-3.2-7-6.5-10.2-10c-11-13-19-28-23-44C1817,1438.3,1789.6,1395.3,1751.9,1362.4z M1753.9,1362.4l9,7
		c38.1,30,65.2,71.9,77,119c8,24,25,43,47,56c55.6,34.2,128,20.3,167-32c5-8,10-17,12-26l2-5c3-8,7-16,12-23c25-39,63-70,95-104
		l1,20c-20-18-41-35-60-54c-26.2-23.2-45.2-53.4-55-87c-5.9-16.2-16.3-30.5-30-41c-50.4-41.5-124.2-37.6-170,9
		c-11.2,10.8-19.4,24.2-24,39l-10,28C1810.9,1305.4,1785.9,1338.4,1753.9,1362.4z"/>
	<path class="st24" d="M1752.9,1362.4c37-30,56-66,67-104c4-16,12-30,24-42c22-20,50-32,81-32h3c29,1,56,13,77,32c12,11,20,25,24,40
		c11,40,55,75,93,107c-33,35-78,72-90,108c-5,13-11,25-20,34c-21,23-51,37-82,38h-4c-30,0-58-12-80-33c-11.4-11-19.7-24.8-24-40
		C1810.9,1430.4,1790.9,1393.4,1752.9,1362.4z"/>
	<path class="st1" d="M1752.9,1362.4c30-26,53-60,63-98l5-16c13-33,44-56,78-64c46.4-10.1,94.4,8.4,122,47c6,8,10,18,12,28
		c4,11,11,22,18,32c22,27,50,49,76,72c-28,32-78,70-92,110c-4,11-10,23-19,32c-43,49-118,54-167,10c-13.2-11.4-22.9-26.3-28-43
		C1808.9,1429.4,1787.9,1391.4,1752.9,1362.4z M1752.9,1362.4c32,25,55,59,67,97l4,12c4,12,10,23,19,33
		c43.1,45.9,115.2,48.2,161.1,5.1c2.8-2.6,5.4-5.3,7.9-8.1c7-9,13-19,16-30l11-22c22-33,54-59,81-88v5c-26-22-53-44-74-71
		c-8-10-15-22-19-34l-4-12c-4-11-11-22-20-30c-27-26-67-38-103-30c-32,8-63,29-76,60l-5,16
		C1807.9,1303.4,1783.9,1337.4,1752.9,1362.4z"/>
	<path class="st0" d="M1743.9,1362.4c31-25,47-55,56-87c3-13,10-25,20-35c18-17,42-27,67-27h3c24,1,47,11,64,27s17,21,20,33
		c9,33,46,62,78,89c-28,30-66,60-76,90c-4,11-9,21-17,29c-17.7,18.9-42.1,30.1-68,31h-3c-25,0-49-10-67-27c-10-9-17-21-20-34
		C1790.9,1418.4,1774.9,1388.4,1743.9,1362.4z"/>
	<path class="st1" d="M1743.9,1362.4c26.9-23.2,45.8-54.4,54-89c3-11,9-22,17-31c37.6-40.5,100.8-42.8,141.3-5.2
		c4.7,4.3,8.9,9.1,12.7,14.2c5,7,8,14,10,21c11,36,52,66,80,90c-23,26-51,47-70,76l-5,9l-2,3l-2,6c-4,12-11,23-20,31
		c-38,37-98,39-137,4c-10-9-18-20-22-33l-7-20C1784.9,1409.4,1767.9,1382.4,1743.9,1362.4z M1743.9,1362.4c25,19,43,45,54,74l7,20
		c6,17,20,31,36,40c43.9,25.6,100.2,10.8,125.8-33.1c0.8-1.3,1.5-2.6,2.2-3.9l5-13l1-4l6-10c18-27,45-49,67-73l1,7
		c-22-19-45-37-62-60c-7-8-13-18-16-29l-1-2l-8-19c-21.5-30.7-59.4-45.4-96-37c-17,4-34,13-47,26c-8,8-13,19-17,29l-7,21
		C1784.9,1321.4,1766.9,1344.4,1743.9,1362.4z"/>
	<path class="st4" d="M1752.9,1362.4c24-20,37-44,44-69c3-11,9-21,17-28c14-14,33-22,53-22h3c19,1,37,9,51,22c8,7,13,16,16,26
		c7,26,37,50,62,71c-22,24-53,48-61,73c-3,8-7,16-13,22c-14.2,15.4-34.1,24.4-55,25h-2c-20,0-39-8-53-21c-8-8-14-17-17-27
		C1790.9,1407.4,1777.9,1383.4,1752.9,1362.4z"/>
	<path class="st1" d="M1752.9,1362.4c20-17,34-40,41-65l3-11c5-15,17-27,30-35c24-15,56-15,80-2c16,9,29,23,34,40c9,29,43,54,65,73
		c-17,18-35,34-51,52l-11,18l-4,11c-3,7-8,14-14,20c-30.4,30.2-79,31.5-111,3c-8-8-14-17-18-27l-5-19
		C1783.9,1398.4,1770.9,1378.4,1752.9,1362.4z M1752.9,1362.4c19,15,34,34,42,56l7,19c4,10,11,19,19,26c27,20,64,21,91,0
		c10-7,17-17,21-29l11-21c15-20,34-36,51-54v7c-11-10-23-19-33-30c-13.7-11.1-23.8-26.1-29-43c-7-27-34-44-61-46c-14-1-29,2-41,9
		c-13,7-24,18-29,31l-4,11C1789.9,1323.4,1773.9,1346.4,1752.9,1362.4z"/>
	<path class="st31" d="M1854.9,1286.4c11,12,11,29,2,41l2,1c30,3,58,14,84,35c-26,20-54,30-84,34h-1c8,12,8,28-3,40
		c-17,20-53,17-65-7c-8-16,3-39-13-49c-18-13-16-26,0-39c15-11,5-33,13-49C1801.9,1269.4,1837.9,1265.4,1854.9,1286.4z"/>
	<path class="st31" d="M1837.9,1301.4c9,10,9,24,2,33h1c23,3,45,12,65,28c-20,16-42,25-65,28h-1c6,10,6,22-2,32
		c-11.2,13-30.8,14.4-43.7,3.2c-3-2.6-5.5-5.7-7.3-9.2c-6-13,2-31-9-39c-15-10-14-21,0-31c11-9,3-26,9-39
		C1796.9,1288.4,1823.9,1285.4,1837.9,1301.4z"/>
	<path class="st31" d="M1871.9,1270.4c14,15,14,35,2,50h3c37,5,73,18,106,43c-31.2,23.4-68.2,37.9-107,42c10,15,9,34-4,48
		c-22,25-66,20-82-8c-10-19,3-47-16-60c-23-15-21-32,0-47c19-13,6-40,16-60C1805.9,1250.4,1849.9,1245.4,1871.9,1270.4z"/>
	<circle class="st32" cx="1801.7" cy="1362.8" r="14.6"/>
	<path class="st1" d="M1801.9,1348.4c-8,0-14,7-13,15c2,15,24,15,26,0C1815.9,1355.4,1808.9,1348.4,1801.9,1348.4z M1801.9,1348.4
		c10,0,19,11,15,21c-5,15-26,15-31,0C1782.9,1359.4,1790.9,1348.4,1801.9,1348.4z"/>
	<path class="st4" d="M1628.9,1360.4c98,26,125,131,208,198c13-71-25-138-75-198c50-60,89-130,75-198
		C1761.9,1233.4,1714.9,1338.4,1628.9,1360.4z"/>
	<path class="st1" d="M1628.9,1360.4c49,11,86,48,115,86c30,38,58,79,96,108l-7,3c13-74-32-143-78-197c45-54,91-123,78-197l8,3
		c-40,37-72,82-108,123C1704.9,1320.4,1671.9,1351.4,1628.9,1360.4z M1628.9,1360.4c48-13,81-52,111-89c31-38,59-78,94-112l6-6l2,8
		c15,76-30,147-76,203v-7c49,58,93,131,74,210c-41-32-70-76-101-117C1710.9,1411.4,1676.9,1374.4,1628.9,1360.4z"/>
	<path class="st22" d="M955.9,1360.4c-49-41-76-89-89-140c-6-21-17-41-33-56c-29-28-68-44-108-44h-5c-39,1-76,17-104,44
		s-26,33-32,54c-15,52-43,102-93,145c44,47,74,95,90,143c5,17,14,33,26,46c29,31,68,49,110,50h5c41,0,79-16,108-43
		c16-15,27-34,33-55C878.9,1451.4,904.9,1401.4,955.9,1360.4z"/>
	<path class="st1" d="M954.9,1360.4c-43.7-35.3-74.9-83.7-89-138c-5-18-13-35-25-48c-45.4-51.2-119.1-66.2-181-37
		c-33,16-62,43-72,79c-16,59-49,109-95,148v-2c37,39,69,84,87,135l6,15c7,19,18,36,34,49c51,47,130,53,188,14c25-16,44-39,53-67
		l4-14l5-13C886.4,1434,915.9,1392.1,954.9,1360.4z M956.9,1360.4l-16,16c-32.7,34.8-55.8,77.6-67,124c-6,27-19,52-40,71
		c-67.4,63.8-173.7,60.9-237.5-6.5c-0.2-0.2-0.3-0.4-0.5-0.5c-15-16-25-35-32-56l-4-10c-18-46-48-87-82-123l-13-14l15-12
		c43-36.3,74-84.8,89-139c11-33,33-59,62-77c66-43,156-34,211,23c15,16,27,36,32,58l4,16c12,44,35,84,67,117L956.9,1360.4z"/>
	<path class="st23" d="M945.9,1362.4c-43-36-66-77-78-122c-5-19-15-36-29-49c-25-24-58-38-93-38h-5c-34,1-66,15-90,38
		c-13,13-23,29-28,47c-13,46-65,88-109,125c39,41,92,84,106,127c5,14,13,28,23,40c25,26,59,42,96,43h4c36,0,69-14,94-38
		c14-13,24-29,29-47C878.9,1441.4,901.9,1398.4,945.9,1362.4z"/>
	<path class="st1" d="M944.9,1362.4c-41.1-29.9-70.8-72.9-84-122c-5-15-13-28-23-39c-45.9-45.7-119-49.2-169-8
		c-16.2,11.9-28.2,28.7-34,48l-3,10c-5,14-13,26-22,38c-24,32-57,58-87,85l1-20c27,29,58,56,83,87c9,11,17,23,22,37c2,2,2,6,3,8
		c4,12,10,23,18,33c40.5,47.1,109.2,57.7,162,25c21-13,38-32,47-56c12.4-46.8,39.4-88.5,77-119L944.9,1362.4z M946.9,1362.4l-29,28
		c-24.2,27.6-41.6,60.5-51,96c-4,16-12,31-23,44c-51.9,55.8-139.2,59-195,7.1c-3.1-2.9-6.1-6-9-9.1c-7-8-12-17-17-26l-7-18
		c-10-25-29-44-47-63s-38-37-56-57l-1-1l1-1c38-33,90-71,107-120c4-11,8-23,14-32c27.7-38.7,73.5-60.3,121-57
		c55.1,2.6,102.1,40.7,116,94c11,38,32,73,61,101l14,14H946.9z"/>
	<path class="st24" d="M944.9,1362.4c-36-30-56-66-66-104c-4-16-13-30-25-42c-21-20-49-32-80-32h-3c-29,1-57,13-77,32
		c-11.5,10.9-19.7,24.8-24,40c-12,40-56,75-93,107c33,35,78,72,90,108c4,13,11,25,20,34c21,23,50,37,82,38h3c30,0,59-12,80-33
		c12-11,21-25,25-40C887.9,1430.4,907.9,1393.4,944.9,1362.4z"/>
	<path class="st1" d="M944.9,1362.4c-31-25-54-59-65-97l-6-16c-12-31-43-52-75-60c-38-9-79,4-106,32c-9,10-16,23-20,36
		c-4,14-12,27-20,38c-21,27-48,49-74,71v-5c27,29,59,54,81,88c4,7,8,14,10,22c4,11,9,21,17,30c42.2,47.4,114.9,51.6,162.4,9.4
		c2.3-2,4.5-4.2,6.6-6.4c9-10,15-21,19-33l4-12C890.9,1421.4,913.9,1387.4,944.9,1362.4z M944.9,1362.4c-34,29-56,67-67,110
		c-5,17-15,32-28,43c-49,44-124,39-168-10c-8-9-14-21-18-32c-14-40-64-78-93-110c27-23,55-44,76-72c8-10,14-21,18-32
		c5.5-20.5,17.4-38.8,34-52c29-22,66-31,101-23c33,8,65,31,77,64l5,16C892.9,1302.4,914.9,1336.4,944.9,1362.4z"/>
	<path class="st0" d="M954.9,1362.4c-31-25-47-55-56-87c-3-13-11-25-20-35c-18.1-17.2-42-26.9-67-27h-3c-25,1-47,11-64,27
		s-17,21-21,33c-9,33-45,62-77,89c28,30,66,60,76,90c3,11,9,21,16,29c18,19,43,30,69,31h3c25,0,49-10,67-27c9-9,16-21,20-34
		C906.9,1418.4,923.9,1388.4,954.9,1362.4z"/>
	<path class="st1" d="M954.9,1362.4c-28.3-21.9-48.6-52.5-58-87c-4-11-10-22-18-30c-12.9-12.9-29.2-21.9-47-26c-35-8-75,7-95,37
		c-4.2,6.4-7.2,13.5-9,21c-3,11-9,21-16,30c-18,22-40,41-62,59l1-7c22,24,49,46,67,74l6,9l1,4l5,13c5,12,15,23,25,31
		c30,22,71,25,103,6c16-9,29-22,36-40l4-13C908.9,1411.4,927.9,1383.4,954.9,1362.4z M954.9,1362.4c-24,20-41,46-51,75l-6,21
		c-4,13-12,24-22,33c-39,35-99,33-137-4c-9-8-16-19-20-31l-2-6l-2-3l-5-9c-19-29-47-50-70-76c28-24,69-54,80-90
		c6.2-22.5,21.9-41.1,43-51c40.2-21.8,90-13.5,121,20c8,9,14,20,17,32C909.6,1307.8,928.4,1338.7,954.9,1362.4z"/>
	
		<radialGradient id="SVGID_00000055671773914056797570000009671021503859874964_" cx="822.8583" cy="1338.2651" r="121.2626" fx="940.419" fy="1338.2651" gradientTransform="matrix(1 0 0 -1 0 2701.1653)" gradientUnits="userSpaceOnUse">
		<stop  offset="0.1" style="stop-color:#FFEAAC"/>
		<stop  offset="0.3" style="stop-color:#FAE5A8"/>
		<stop  offset="0.5" style="stop-color:#EBD89F"/>
		<stop  offset="0.7" style="stop-color:#D3C490"/>
		<stop  offset="0.8" style="stop-color:#C4B687"/>
	</radialGradient>
	<path style="fill:url(#SVGID_00000055671773914056797570000009671021503859874964_);" d="M945.9,1362.4c-25-20-38-44-44-69
		c-3-11-9-21-17-28c-14.2-13.8-33.2-21.7-53-22h-3c-19,1-37,9-51,22c-8,7-13,16-16,26c-7,26-37,50-62,71c22,24,53,48,61,73
		c2,8,7,16,13,22c14,15,33,25,54,25h3c20,0,39-8,53-21c8-8,14-17,16-27C907.9,1407.4,920.9,1383.4,945.9,1362.4z"/>
	<path class="st1" d="M945.9,1362.4c-21-16-37-39-45-64l-4-11c-5-13-16-24-29-31s-27-10-41-9c-27,2-54,19-61,46c-5,17-16,31-29,43
		l-34,30l1-7c16,18,36,34,50,54l12,21c3,12,11,22,21,29c27,20,64,20,90,0c9-7,16-16,20-26l6-19
		C911.9,1396.4,926.9,1377.4,945.9,1362.4z M945.9,1362.4c-18,16-31,36-39,58l-6,19c-3,10-9,19-18,26c-31.6,28.2-79.5,27.3-110-2
		c-6-6-11-13-14-20l-4-11l-12-18c-15-18-34-34-50-52c22-19,56-44,65-73c5-17,18-31,34-40c24-13,56-13,79,2c14,8,25,20,31,35l3,11
		C911.9,1322.4,925.9,1345.4,945.9,1362.4z"/>
	<path class="st31" d="M840.9,1286.4c-10.1,11.5-10.9,28.5-2,41l-2,1c-29,3-58,14-84,35c24.7,18.9,54.1,30.7,85,34c-8,12-7,28,3,40
		c17,20,53,17,65-7c8-16-3-39,13-49c18-13,17-26,0-39c-15-11-5-33-13-49C893.9,1269.4,857.9,1265.4,840.9,1286.4z"/>
	<path class="st31" d="M857.9,1301.4c-8,10-8,24-1,33h-2c-23,3-45,12-65,28c18.9,15.4,41.8,25.1,66,28c-6,10-6,22,2,32
		c14,16,41,13,51-6c6-13-2-31,10-39c14-10,13-21,0-31c-12-9-4-26-10-39c-8.8-15.3-28.4-20.6-43.7-11.8
		C862.5,1297.2,860,1299.1,857.9,1301.4z"/>
	<path class="st31" d="M823.9,1270.4c-12.7,14-13.5,35-2,50h-3c-37,5-73,18-105,43c31,23.2,67.6,37.7,106,42c-9,15-9,34,4,48
		c22,25,67,20,82-8c11-19-3-47,16-60c23-15,21-32,0-47c-19-13-6-40-16-60C890.9,1250.4,845.9,1245.4,823.9,1270.4z"/>
	<circle class="st32" cx="894.3" cy="1362.8" r="14.6"/>
	<path class="st1" d="M893.9,1348.4c11,0,19,11,16,21c-5,15-26,15-31,0C875.9,1359.4,883.9,1348.4,893.9,1348.4z M893.9,1348.4
		c-7,0-14,7-13,15c3,15,24,15,26,0C908.9,1355.4,901.9,1348.4,893.9,1348.4z"/>
	
		<radialGradient id="SVGID_00000027568698271640879230000001480841175576888976_" cx="964.0962" cy="1340.7651" r="158.5541" fx="1063.8671" fy="1340.7651" gradientTransform="matrix(1 0 0 -1 0 2701.1653)" gradientUnits="userSpaceOnUse">
		<stop  offset="0" style="stop-color:#FFEAAC"/>
		<stop  offset="0.3" style="stop-color:#FAE5A8"/>
		<stop  offset="0.5" style="stop-color:#EBD89F"/>
		<stop  offset="0.8" style="stop-color:#D3C490"/>
		<stop  offset="1" style="stop-color:#C4B687"/>
	</radialGradient>
	<path style="fill:url(#SVGID_00000027568698271640879230000001480841175576888976_);" d="M1069.9,1360.4c-98,26-125,131-209,198
		c-12-71,26-138,76-198c-50-60-89-130-76-198C936.9,1233.4,983.9,1338.4,1069.9,1360.4z"/>
	<path class="st1" d="M1069.9,1360.4c-49,14-82,51-111,90c-30,41-60,85-101,117c-18-79,26-152,74-210v7c-46-56-90-127-75-203l1-8
		l7,6c35,34,63,74,93,112C987.9,1308.4,1021.9,1347.4,1069.9,1360.4z M1069.9,1360.4c-49-11-85-49-116-85c-32-37-60-77-96-109l8-3
		c-13,74,32,143,78,197c-46,55-91,123-78,197l-8-3c39-30,67-70,96-108C983.9,1408.4,1020.9,1371.4,1069.9,1360.4z"/>
	<path class="st22" d="M1743.9,1360.4c49-41,76-89,89-140s17-41,33-56c29-28,68-44,108-44h5c39,1,76,17,104,44c15,14,26,33,32,54
		c15,52,43,102,93,145c-44,47-74,95-90,143c-5,17-14,33-26,46c-29,31-68,49-110,50h-5c-41,0-79-16-108-43c-16-15-27-34-33-55
		C1820.9,1451.4,1794.9,1401.4,1743.9,1360.4z"/>
	<path class="st1" d="M1742.9,1360.4l12-13c32-32,55-73,67-117l4-16c5-22,17-42,32-57c55-57,145-67,211-24c29,18,51,44,62,77
		c4,13,8,27,14,40c17,38,43,72,75,99l15,12l-13,14c-37.3,38.1-66.5,83.4-86,133c-7,21-17,40-33,56c-63.6,67.2-169.5,70.3-237,7
		c-21-19-34-44-40-71l-5-16c-12-40-33-77-62-108L1742.9,1360.4z M1744.9,1360.4c42.8,34.6,74.1,81.3,90,134l4,13c9,29,28,52,53,68
		c58,39,137,33,188-14c16-13,27-30,34-49l6-16c19-50,50-95,87-135v3c-46-39-79-90-95-149c-10-35-38-62-71-78
		c-61.9-30-136.2-15.3-182,36c-12,14-20,31-25,49l-6,21C1810.9,1288.4,1782.9,1330.4,1744.9,1360.4z"/>
	<path class="st23" d="M1753.9,1362.4c43-36,66-77,78-122c5-19,15-36,29-49c25-24,58-38,93-38h5c34,1,66,15,90,38c13,13,23,29,28,47
		c13,46,65,88,109,125c-39,41-92,84-106,127c-5,14-13,28-23,40c-25,26-59,42-96,43h-4c-36,0-69-14-94-38c-14-13-24-29-29-47
		C1820.9,1441.4,1797.9,1398.4,1753.9,1362.4z"/>
	<path class="st1" d="M1752.9,1362.4l15-14c29-28,49-63,61-101l5-19c18-44,64-72,110-76c48-3.5,94.4,18.6,122,58c6,10,10,21,14,32
		c17,49,68,87,107,120l1,1l-1,1c-18,20-38,38-56,57s-37,39-47,63l-8,18c-4,9-9,18-16,26c-50.8,56.8-138,61.7-194.9,11
		c-3.2-2.8-6.2-5.8-9.1-9c-11-13-19-28-24-44C1818,1438.3,1790.6,1395.3,1752.9,1362.4z M1754.9,1362.4l10,7
		c37.1,31,63.9,72.5,77,119c8,24,25,43,46,56c52.8,32.7,121.5,22.1,162-25c8-10,14-21,18-33c0-3,2-6,3-8c5-14,13-26,22-37
		c25-31,56-58,83-87l1,20c-30-27-63-53-87-85c-10-13-19-27-24-43l-4-13c-5.9-16.2-16.3-30.5-30-41c-50.4-41.5-124.2-37.6-170,9
		c-10.6,11-18.4,24.4-23,39l-11,28C1812.9,1305.4,1786.9,1338.4,1754.9,1362.4z"/>
	<path class="st24" d="M1754.9,1362.4c36-30,56-66,66-104c4-16,13-30,25-42c21-20,49-32,80-32h3c29,1,57,13,77,32c12,11,20,25,24,40
		c12,40,56,75,93,107c-33,35-78,72-90,108c-4,13-11,25-20,34c-21,23-50,37-82,38h-3c-30,0-59-12-80-33c-11.8-10.8-20.4-24.7-25-40
		C1811.9,1430.4,1791.9,1393.4,1754.9,1362.4z"/>
	<path class="st1" d="M1754.9,1362.4c30-26,52-60,63-98l4-16c13-33,45-56,78-64c46.4-10.1,94.4,8.4,122,47c6,8,10,18,13,28
		c4,11,10,22,18,32c21,27,49,49,75,72c-28,32-78,70-92,110c-4,11-10,23-18,32c-44,49-119,54-168,10c-13.2-11.4-22.9-26.3-28-43
		C1810.9,1429.4,1788.9,1391.4,1754.9,1362.4z M1754.9,1362.4c31,25,54,59,66,97l4,12c4,12,11,23,19,33
		c43.1,45.9,115.2,48.2,161.1,5.1c2.8-2.6,5.4-5.3,7.9-8.1c8-9,13-19,17-30c2-8,6-15,10-22c22-33,54-59,81-88v5c-26-22-53-44-74-71
		c-7-10-15-22-19-34l-4-12c-4-11-11-22-20-30c-27-26-67-38-103-30c-32,8-63,29-75,60l-6,16
		C1808.9,1303.4,1785.9,1337.4,1754.9,1362.4z"/>
	<path class="st0" d="M1744.9,1362.4c31-25,47-55,56-87c3-13,11-25,20-35c18-17,42-27,67-27h3c25,1,47,11,64,27s17,21,21,33
		c9,33,45,62,77,89c-28,30-66,60-76,90s-9,21-16,29c-17.9,19.2-42.8,30.3-69,31h-3c-25,0-49-10-67-27c-9-9-16-21-20-34
		C1792.9,1418.4,1775.9,1388.4,1744.9,1362.4z"/>
	<path class="st1" d="M1744.9,1362.4c26.9-23.2,45.8-54.4,54-89c3-11,9-22,17-31c37.2-40.8,100.5-43.7,141.3-6.4
		c5.1,4.7,9.7,9.8,13.7,15.4l9,21c11,36,53,66,80,90c-23,26-51,47-70,76l-5,9l-1,3l-3,6c-4,12-11,23-20,31c-37,37-98,39-137,4
		c-10-9-18-20-22-33l-6-20c-10-29-27-56-50-76H1744.9z M1744.9,1362.4c25,19,44,45,54,74l7,20c7,17,20,31,36,40c32,19,73,16,103-6
		c10-8,20-19,25-31l5-13l1-4l6-10c18-27,45-49,67-73l1,7c-22-19-44-37-62-60c-7-8-13-18-16-29l-1-2c-2-7-4-14-8-19
		c-21.3-30.4-58.8-44.9-95-37c-29.7,5.9-54.2,26.7-65,55c-1,7-4,14-7,21C1785.9,1321.4,1767.9,1344.4,1744.9,1362.4z"/>
	
		<radialGradient id="SVGID_00000099647473234743830060000011386925196324683419_" cx="-537.4415" cy="1338.1652" r="121.3119" fx="-419.833" fy="1338.1652" gradientTransform="matrix(-1 0 0 -1 1339.4167 2701.1653)" gradientUnits="userSpaceOnUse">
		<stop  offset="0.1" style="stop-color:#FFEAAC"/>
		<stop  offset="0.3" style="stop-color:#FAE5A8"/>
		<stop  offset="0.5" style="stop-color:#EBD89F"/>
		<stop  offset="0.7" style="stop-color:#D3C490"/>
		<stop  offset="0.8" style="stop-color:#C4B687"/>
	</radialGradient>
	<path style="fill:url(#SVGID_00000099647473234743830060000011386925196324683419_);" d="M1753.9,1362.4c25-20,38-44,44-69
		c3-11,9-21,17-28c14-14,33-22,54-22h2c19,1,37,9,51,22c8,7,13,16,16,26c7,26,37,50,62,71c-22,24-52,48-60,73
		c-11.5,27.8-38,46.4-68,48l-3-1c-20,0-39-8-53-21c-8-8-14-17-16-27C1791.9,1407.4,1778.9,1383.4,1753.9,1362.4z"/>
	<path class="st1" d="M1753.9,1362.4c20-17,34-40,41-65l3-11c6-15,17-27,31-35c23-15,55-15,79-2c16,9,29,23,34,40c9,29,43,54,65,73
		c-16,18-35,34-50,52l-12,18l-4,11c-3,7-8,14-14,20c-30.3,29.6-78.2,30.9-110,3c-9-8-15-17-18-27l-6-19
		C1784.9,1398.4,1771.9,1378.4,1753.9,1362.4z M1753.9,1362.4c19,15,34,34,43,56l6,19c4,10,11,19,20,26c26,20,63,21,90,0
		c10-7,18-17,22-29c2-7,6-14,11-21c14-20,34-36,50-54l1,7l-34-30c-12-12-24-26-29-43c-7-27-34-44-60-46c-15-1-29,2-42,9
		s-24,18-29,31l-4,11C1790.9,1323.4,1774.9,1346.4,1753.9,1362.4z"/>
	<path class="st31" d="M1858.9,1286.4c11,12,11,29,2,41l2,1c29,3,58,14,84,35c-26,20-54,30-84,34h-1c8,12,7,28-3,40
		c-17,20-53,17-65-7c-8-16,3-39-13-49c-18-13-17-26,0-39c15-11,5-33,13-49C1805.9,1269.4,1841.9,1265.4,1858.9,1286.4z"/>
	<path class="st31" d="M1841.9,1301.4c8,10,8,24,1,33h2c23,3,45,12,65,28c-20,16-42,25-65,28h-1c6,10,6,22-2,32
		c-11.2,13-30.8,14.4-43.7,3.2c-3-2.6-5.5-5.7-7.3-9.2c-6-13,2-31-10-39c-14-10-13-21,0-31c12-9,4-26,10-39
		C1800.9,1288.4,1827.9,1285.4,1841.9,1301.4z"/>
	<path class="st31" d="M1875.9,1270.4c14,15,13,35,2,50h3c37,5,73,18,105,43c-31,23.2-67.6,37.7-106,42c10,15,9,34-4,48
		c-22,25-67,20-82-8c-10-19,3-47-16-60c-23-15-21-32,0-47c19-13,6-40,16-60C1808.9,1250.4,1853.9,1245.4,1875.9,1270.4z"/>
	<circle class="st32" cx="1805.6" cy="1362.8" r="14.6"/>
	<path class="st1" d="M1805.9,1348.4c-8,0-14,7-13,15c2,15,23,15,26,0C1819.9,1355.4,1812.9,1348.4,1805.9,1348.4z M1805.9,1348.4
		c10,0,18,11,15,21c-5,15-26,15-31,0C1786.9,1359.4,1794.9,1348.4,1805.9,1348.4z"/>
	
		<radialGradient id="SVGID_00000000925342456664412520000016776826572944206471_" cx="-396.2036" cy="1340.7651" r="158.7287" fx="-296.3226" fy="1340.7651" gradientTransform="matrix(-1 0 0 -1 1339.4167 2701.1653)" gradientUnits="userSpaceOnUse">
		<stop  offset="0" style="stop-color:#FFEAAC"/>
		<stop  offset="0.3" style="stop-color:#FAE5A8"/>
		<stop  offset="0.5" style="stop-color:#EBD89F"/>
		<stop  offset="0.8" style="stop-color:#D3C490"/>
		<stop  offset="1" style="stop-color:#C4B687"/>
	</radialGradient>
	<path style="fill:url(#SVGID_00000000925342456664412520000016776826572944206471_);" d="M1629.9,1360.4c98,26,125,131,209,198
		c12-71-26-138-76-198c50-60,89-130,76-198C1762.9,1233.4,1715.9,1338.4,1629.9,1360.4z"/>
	<path class="st1" d="M1629.9,1360.4c49,11,86,48,116,86c29,38,57,79,96,108l-8,3c13-74-32-143-78-197c46-54,91-123,78-197l8,3
		c-40,37-71,82-107,123c-29,31-62,62-104,71H1629.9z M1629.9,1360.4c48-13,82-52,112-89c30-38,58-78,93-112l7-6l1,8
		c15,76-29,147-76,203l1-7c48,58,92,131,74,210c-42-32-71-76-101-117C1711.9,1411.4,1678.9,1374.4,1629.9,1360.4z"/>
	<path class="st37" d="M1441.9,968.4c0-88,71-160,159-160C1600.9,896.4,1529.9,968.4,1441.9,968.4z"/>
	<path class="st37" d="M1346.9,1084.4c6.3-34.8,21.8-67.3,45-94l8-9c16.2-13.8,36.7-21.5,58-22v1l-18,12c-11,6-20,14-30,21l-4,3
		l-4,3l-8,7l-3,4l-9,10l-4,7l-8,11l-1,2c-8,14-15,29-20,44H1346.9z M1253.9,968.4c0-88-71-160-159-160
		C1094.9,896.4,1165.9,968.4,1253.9,968.4z"/>
	<path class="st37" d="M1347.9,1085.4c-10-27-23-53-42-74l-8-8l-8-7c-16.5-13.2-33.8-25.3-52-36v-1c23.4,0.7,45.6,10.4,62,27l15,17
		l8,12l4,7l7,14l2,6c6,14,10,28,13,42l-2,1H1347.9z M1441.9,1749.4c0,88,71,160,159,160C1600.9,1821.4,1529.9,1749.4,1441.9,1749.4z
		"/>
	<path class="st37" d="M1348.9,1632.4c10,27,23,53,42,75l7,7l8,7c16.5,13.2,33.8,25.3,52,36v2l-17-3c-17-4-33-12-45-24l-14-18l-8-11
		l-5-8l-6-13l-3-7c-6-14-10-28-13-42L1348.9,1632.4z M1253.9,1749.4c0,88-71,160-159,160C1094.9,1821.4,1165.9,1749.4,1253.9,1749.4
		z"/>
	<path class="st37" d="M1348.9,1633.4c-6.1,35.2-21.7,68-45,95l-8,8c-15.8,13.9-35.9,22-57,23l-1-2l19-12c10-6,19-14,29-21l4-3l4-3
		l8-7l4-4l8-10l5-7l7-11l1-2c8-14,15-29,21-44H1348.9z M1738.9,1452.4c88,0,159,72,159,160
		C1809.9,1612.4,1738.9,1540.4,1738.9,1452.4z"/>
	<path class="st37" d="M1621.9,1358.4c35.2,6.1,68,21.7,95,45l8,8c13.9,15.8,22,35.9,23,57h-1l-12-18l-21-29l-4-4l-3-5l-7-7l-4-4
		l-10-8l-6-5l-11-7l-3-2c-14-8-28-14-44-20l1-1H1621.9z M1738.9,1265.4c88,0,159-72,159-160
		C1809.9,1105.4,1738.9,1177.4,1738.9,1265.4z"/>
	<path class="st37" d="M1621.9,1358.4c27-10,53-23,74-42l8-7l6-8c13.6-16.4,25.9-33.8,37-52h1l-2,17c-4,16-12,33-25,44
		c-5,6-11,11-17,15l-12,8l-7,4l-14,7l-6,3c-14,5-28,10-43,12V1358.4z M956.9,1452.4c-88,0-159,72-159,160
		C885.9,1612.4,956.9,1540.4,956.9,1452.4z"/>
	<path class="st37" d="M1073.9,1359.4c-27,10-53,23-74,42l-7,7l-7,9c-13.2,16.5-25.3,33.8-36,52l-2-1l2-17c4-16,13-33,25-44
		c5-6,12-11,18-15l11-8l7-4l14-7l7-3c13-5,28-10,42-12V1359.4z M956.9,1265.4c-88,0-159-72-159-160
		C885.9,1105.4,956.9,1177.4,956.9,1265.4z"/>
	<path class="st37" d="M1073.9,1359.4c-35.2-6.1-68-21.7-95-45l-8-8c-13.9-15.8-22-35.9-23-57h2l11,18l22,29l3,4l3,5l7,7l4,4l10,8
		l7,5l11,7l2,2c14,8,29,14,44,20V1359.4z"/>
	
		<radialGradient id="SVGID_00000100374267843919196500000009603643853311082885_" cx="1110.3583" cy="1342.2651" r="44.7" fx="1144.1583" fy="1342.2651" gradientTransform="matrix(1 0 0 -1 0 2701.1653)" gradientUnits="userSpaceOnUse">
		<stop  offset="0" style="stop-color:#3C2C83"/>
		<stop  offset="0.1" style="stop-color:#412B7F"/>
		<stop  offset="0.3" style="stop-color:#512B76"/>
		<stop  offset="0.4" style="stop-color:#6C2B67"/>
		<stop  offset="0.6" style="stop-color:#922A52"/>
		<stop  offset="0.7" style="stop-color:#C12A37"/>
		<stop  offset="0.8" style="stop-color:#E52A24"/>
	</radialGradient>
	<path style="fill:url(#SVGID_00000100374267843919196500000009603643853311082885_);" d="M1070.9,1359.4c21-19,41-32,58-29
		c5,13,12,22,21,28c-10,7-17,16-21,29c-17,3-37-10-58-29V1359.4z"/>
	<path class="st1" d="M1070.9,1359.4c4-6,9-12,14-16c12-12,28-22,45-20h4l2,4c3,8,8,14,13,20c3,4,11,9,15,12l-9,6c-7,5-12,10-16,17
		l-5,11l-4,1c-12,2-25-3-35-11C1085.9,1376.4,1076.9,1368.4,1070.9,1359.4z M1071.9,1359.4c15,12,36,31,57,27h-1c4-11,11-21,21-28v1
		c-9-7-16-18-21-29l1,1C1107.9,1328.4,1086.9,1346.4,1071.9,1359.4z"/>
	
		<radialGradient id="SVGID_00000139271202788810016170000006659748311998923444_" cx="413.9584" cy="1342.2651" r="44.7" fx="447.7584" fy="1342.2651" gradientTransform="matrix(-1 0 0 -1 1999.4167 2701.1653)" gradientUnits="userSpaceOnUse">
		<stop  offset="0" style="stop-color:#3C2C83"/>
		<stop  offset="0.1" style="stop-color:#412B7F"/>
		<stop  offset="0.3" style="stop-color:#512B76"/>
		<stop  offset="0.4" style="stop-color:#6C2B67"/>
		<stop  offset="0.6" style="stop-color:#922A52"/>
		<stop  offset="0.7" style="stop-color:#C12A37"/>
		<stop  offset="0.8" style="stop-color:#E52A24"/>
	</radialGradient>
	<path style="fill:url(#SVGID_00000139271202788810016170000006659748311998923444_);" d="M1624.9,1359.4c-21-19-41-32-58-29
		c-5,13-12,22-21,28c10,7,17,16,21,29c17,3,37-10,58-29V1359.4z"/>
	<path class="st1" d="M1624.9,1359.4c-16-13-37-31-58-28l1-1c-5,11-12,22-21,29v-1c10,7,17,17,21,28h-1
		C1588.9,1390.4,1608.9,1371.4,1624.9,1359.4z M1624.9,1359.4c-6,9-15,17-24,24c-10,7-23,13-35,11l-4-1l-5-11c-4-7-9-12-16-17l-8-6
		c4-4,11-8,14-12c6-6,10-13,13-20l2-4h4c17-2,33,8,45,19l15,16L1624.9,1359.4z"/>
	
		<radialGradient id="SVGID_00000142147506373007655000000008635395311793631112_" cx="2000.1085" cy="2453.3152" r="44.7" fx="2033.9086" fy="2453.3152" gradientTransform="matrix(6.123234e-17 1 1 -6.123234e-17 -1104.957 -878.2086)" gradientUnits="userSpaceOnUse">
		<stop  offset="0" style="stop-color:#3C2C83"/>
		<stop  offset="0.1" style="stop-color:#412B7F"/>
		<stop  offset="0.3" style="stop-color:#512B76"/>
		<stop  offset="0.4" style="stop-color:#6C2B67"/>
		<stop  offset="0.6" style="stop-color:#922A52"/>
		<stop  offset="0.7" style="stop-color:#C12A37"/>
		<stop  offset="0.8" style="stop-color:#E52A24"/>
	</radialGradient>
	<path style="fill:url(#SVGID_00000142147506373007655000000008635395311793631112_);" d="M1347.9,1082.4c19,21,31,41,28,57
		c-12,6-21,13-28,21c-7-9-16-16-28-21C1315.9,1122.4,1328.9,1102.4,1347.9,1082.4z"/>
	<path class="st1" d="M1347.9,1081.4c6,4,11,9,16,15c11,12,22,27,20,45l-1,3l-4,2c-7,4-14,8-20,14l-11,14l-6-9c-5-6-11-11-17-15
		l-12-5v-4c-3-13,3-25,10-36C1329.9,1096.4,1338.9,1088.4,1347.9,1081.4z M1347.9,1082.4c-13,15-31,36-27,57h-1c11,4,22,11,29,21h-2
		c8-10,18-17,29-21C1378.9,1118.4,1359.9,1097.4,1347.9,1082.4z"/>
	
		<radialGradient id="SVGID_00000090293245827393555980000009076570766175027888_" cx="-475.7919" cy="2453.3152" r="44.7" fx="-441.9919" fy="2453.3152" gradientTransform="matrix(0 -1 1 0 -1104.957 1121.2083)" gradientUnits="userSpaceOnUse">
		<stop  offset="0" style="stop-color:#3C2C83"/>
		<stop  offset="0.1" style="stop-color:#412B7F"/>
		<stop  offset="0.3" style="stop-color:#512B76"/>
		<stop  offset="0.4" style="stop-color:#6C2B67"/>
		<stop  offset="0.6" style="stop-color:#922A52"/>
		<stop  offset="0.7" style="stop-color:#C12A37"/>
		<stop  offset="0.8" style="stop-color:#E52A24"/>
	</radialGradient>
	<path style="fill:url(#SVGID_00000090293245827393555980000009076570766175027888_);" d="M1347.9,1635.4c19-21,31-41,28-57
		c-12-6-21-13-28-21c-7,9-16,16-28,21C1315.9,1595.4,1328.9,1615.4,1347.9,1635.4z"/>
	<path class="st1" d="M1347.9,1635.4c12-15,31-36,28-57c-11-4-21-11-29-21h2c-7,10-17,17-29,21h1
		C1316.9,1599.4,1334.9,1620.4,1347.9,1635.4z M1347.9,1636.4c-9-7-18-15-25-24c-7-10-12-23-10-36v-4l12-5c6-4,12-9,17-15l6-9
		c3,4,8,11,12,14c5,6,12,10,19,14l4,2l1,3c2,18-9,33-20,46L1347.9,1636.4z"/>
	
		<radialGradient id="SVGID_00000160907130645846226820000002228903994849156271_" cx="1075.8583" cy="1752.0652" r="117.1" fx="1126.1583" fy="1847.0652" gradientTransform="matrix(1 0 0 -1 0 2701.1653)" gradientUnits="userSpaceOnUse">
		<stop  offset="0" style="stop-color:#FFEAAB"/>
		<stop  offset="0" style="stop-color:#FEE4A6"/>
		<stop  offset="0.2" style="stop-color:#FCD49B"/>
		<stop  offset="0.3" style="stop-color:#F8B988"/>
		<stop  offset="0.3" style="stop-color:#F3936E"/>
		<stop  offset="0.4" style="stop-color:#EC634C"/>
		<stop  offset="0.5" style="stop-color:#E52A24"/>
	</radialGradient>
	<path style="fill:url(#SVGID_00000160907130645846226820000002228903994849156271_);" d="M1127.9,1043.4c-162,0-90-117-72-189
		c6,53,41,69,54,108C1118.9,989.4,1100.9,1016.4,1127.9,1043.4z"/>
	<path class="st1" d="M1127.9,1043.4c-38,3-90,0-106-42c-8-22-4-47,2-69c4-17,10-33,15-48c7-20,15-52,20-72l4,41c2,26,15,47,30,67
		c8,11,15,23,20,35l1,4c2,7,3,16,3,24C1114.9,1007.4,1110.9,1023.4,1127.9,1043.4z M1127.9,1043.4c-21-17-19-36-19-60
		c-1-9-2-17-6-24c-8-20-23-34-36-53c-10.1-15.4-16.6-32.8-19-51l15,1l-10,32l-15,47c-5,16-8,32-7,48c0,15,7,29,19,39
		C1070.9,1037.4,1101.9,1041.4,1127.9,1043.4z"/>
	
		<radialGradient id="SVGID_00000058546799326485779510000009709416725853128842_" cx="310.0585" cy="1752.0652" r="117.1" fx="360.3585" fy="1847.0652" gradientTransform="matrix(-1 0 0 -1 1930.4167 2701.1653)" gradientUnits="userSpaceOnUse">
		<stop  offset="0" style="stop-color:#FFEAAB"/>
		<stop  offset="0" style="stop-color:#FEE4A6"/>
		<stop  offset="0.2" style="stop-color:#FCD49B"/>
		<stop  offset="0.3" style="stop-color:#F8B988"/>
		<stop  offset="0.3" style="stop-color:#F3936E"/>
		<stop  offset="0.4" style="stop-color:#EC634C"/>
		<stop  offset="0.5" style="stop-color:#E52A24"/>
	</radialGradient>
	<path style="fill:url(#SVGID_00000058546799326485779510000009709416725853128842_);" d="M1568.9,1043.4c162,0,90-117,72-189
		c-6,53-42,69-55,108C1577.9,989.4,1595.9,1016.4,1568.9,1043.4z"/>
	<path class="st1" d="M1568.9,1043.4c25-2,56-6,77-22c13-9,19-23,20-39c0-15-3-31-7-47l-16-47c-3-10-7-21-9-32l14-1
		c-2.2,18.3-8.7,35.8-19,51c-12,19-28,33-36,53c-4,7-5,15-5,23C1586.9,1007.4,1588.9,1026.4,1568.9,1043.4z M1568.9,1043.4
		c17-20,13-36,11-60c-0.7-9.5,0.6-19.1,4-28c4-12,12-24,19-35c15-20,28-41,30-67l4-41c6,20,13,52,20,71c6,16,11,32,15,49
		c6,22,10,46,2,69C1657.9,1042.4,1606.9,1046.4,1568.9,1043.4z"/>
	
		<radialGradient id="SVGID_00000163783498250068411930000013267973653741213341_" cx="1075.8583" cy="4564.2656" r="117.1" fx="1126.1583" fy="4659.2656" gradientTransform="matrix(1 0 0 1 0 -2804.1655)" gradientUnits="userSpaceOnUse">
		<stop  offset="0" style="stop-color:#FFEAAB"/>
		<stop  offset="0" style="stop-color:#FEE4A6"/>
		<stop  offset="0.2" style="stop-color:#FCD49B"/>
		<stop  offset="0.3" style="stop-color:#F8B988"/>
		<stop  offset="0.3" style="stop-color:#F3936E"/>
		<stop  offset="0.4" style="stop-color:#EC634C"/>
		<stop  offset="0.5" style="stop-color:#E52A24"/>
	</radialGradient>
	<path style="fill:url(#SVGID_00000163783498250068411930000013267973653741213341_);" d="M1127.9,1666.4c-162,0-90,117-72,189
		c6-53,41-69,54-108C1118.9,1720.4,1100.9,1693.4,1127.9,1666.4z"/>
	<path class="st1" d="M1127.9,1666.4c-26,2-57,6-78,21c-11.8,9.5-18.8,23.8-19,39c-1,16,2,32,7,47c4,16,10,32,15,47l10,33l-15,1
		c2.2-18.3,8.7-35.8,19-51c13-19,28-33,36-53c4-7,5-15,6-24C1108.9,1702.4,1106.9,1683.4,1127.9,1666.4z M1127.9,1666.4
		c-17,20-13,36-11,60c0.7,9.5-0.6,19.1-4,28c-5,12-12,24-20,35c-15,20-28,41-30,66l-4,42c-5-20-13-52-20-72l-15-48c-6-22-10-47-2-69
		C1037.9,1666.4,1089.9,1663.4,1127.9,1666.4z"/>
	
		<radialGradient id="SVGID_00000136409363032008082840000007782929456707507344_" cx="310.0585" cy="4564.2656" r="117.1" fx="360.3585" fy="4659.2656" gradientTransform="matrix(-1 0 0 1 1930.4167 -2803.1655)" gradientUnits="userSpaceOnUse">
		<stop  offset="0" style="stop-color:#FFEAAB"/>
		<stop  offset="0" style="stop-color:#FEE4A6"/>
		<stop  offset="0.2" style="stop-color:#FCD49B"/>
		<stop  offset="0.3" style="stop-color:#F8B988"/>
		<stop  offset="0.3" style="stop-color:#F3936E"/>
		<stop  offset="0.4" style="stop-color:#EC634C"/>
		<stop  offset="0.5" style="stop-color:#E52A24"/>
	</radialGradient>
	<path style="fill:url(#SVGID_00000136409363032008082840000007782929456707507344_);" d="M1568.9,1666.4c162,0,90,117,72,189
		c-6-53-42-69-55-108C1577.9,1720.4,1595.9,1693.4,1568.9,1666.4z"/>
	<path class="st1" d="M1568.9,1666.4c38-3,89,0,105,42c8,22,4,47-2,69l-14,48c-8,20-15,52-20,72l-5-42c-2-25-14-46-30-66
		c-7-11-15-23-19-36l-1-3c-3-7-4-16-3-24c2-24,6-40-11-61V1666.4z M1568.9,1666.4c20,17,18,36,19,60c0,9,1,16,5,24c8,20,24,34,36,52
		c10.2,15.7,16.7,33.4,19,52l-15-1l10-33l16-47c4-15,7-31,7-47c-1-15-7-29-20-39c-21-15-52-19-77-22V1666.4z"/>
	
		<radialGradient id="SVGID_00000180334992023905542120000001543812263399743380_" cx="1965.6085" cy="2863.1152" r="117.1" fx="2015.9086" fy="2958.1152" gradientTransform="matrix(6.123234e-17 1 1 -6.123234e-17 -1109.957 -883.2086)" gradientUnits="userSpaceOnUse">
		<stop  offset="0" style="stop-color:#FFEAAB"/>
		<stop  offset="0" style="stop-color:#FEE4A6"/>
		<stop  offset="0.2" style="stop-color:#FCD49B"/>
		<stop  offset="0.3" style="stop-color:#F8B988"/>
		<stop  offset="0.3" style="stop-color:#F3936E"/>
		<stop  offset="0.4" style="stop-color:#EC634C"/>
		<stop  offset="0.5" style="stop-color:#E52A24"/>
	</radialGradient>
	<path style="fill:url(#SVGID_00000180334992023905542120000001543812263399743380_);" d="M1658.9,1134.4c0-162,117-90,189-72
		c-53,6-68,42-108,54C1712.9,1125.4,1685.9,1107.4,1658.9,1134.4z"/>
	<path class="st1" d="M1658.9,1134.4c-2-38,1-90,43-105c22-9,46-4,69,1l48,15c20,7,52,15,72,20l-42,4c-25,2-46,15-66,30
		c-11,8-23,16-36,20l-3,1c-8,3-16,3-24,3C1695.9,1121.4,1678.9,1117.4,1658.9,1134.4z M1658.9,1134.4c18-20,37-19,61-19
		c8,0,16-2,24-5c19-9,33-24,52-36c15.7-10.2,33.4-16.7,52-19l-1,14l-33-10c-16-5-31-11-47-15c-15-4-31-8-47-7c-15,1-30,7-39,20
		C1664.9,1078.4,1661.9,1108.4,1658.9,1134.4z"/>
	
		<radialGradient id="SVGID_00000100375879684753732370000011112816985715743875_" cx="-579.6918" cy="2863.1152" r="117.1" fx="-529.3918" fy="2958.1152" gradientTransform="matrix(0 -1 1 0 -1108.957 1047.2083)" gradientUnits="userSpaceOnUse">
		<stop  offset="0" style="stop-color:#FFEAAB"/>
		<stop  offset="0" style="stop-color:#FEE4A6"/>
		<stop  offset="0.2" style="stop-color:#FCD49B"/>
		<stop  offset="0.3" style="stop-color:#F8B988"/>
		<stop  offset="0.3" style="stop-color:#F3936E"/>
		<stop  offset="0.4" style="stop-color:#EC634C"/>
		<stop  offset="0.5" style="stop-color:#E52A24"/>
	</radialGradient>
	<path style="fill:url(#SVGID_00000100375879684753732370000011112816985715743875_);" d="M1658.9,1575.4c0,162,117,90,189,72
		c-53-6-68-42-108-54C1712.9,1584.4,1685.9,1602.4,1658.9,1575.4z"/>
	<path class="st1" d="M1658.9,1575.4c3,26,6,56,22,77c10,13,24,19,39,20c16,1,32-3,47-7l47-15l33-10l1,14c-18.6-2-36.5-8.5-52-19
		c-18-12-32-27-52-36c-8-3-15-5-24-5c-24,0-43,1-60-19H1658.9z M1658.9,1575.4c21,17,37,13,61,11c9.2-0.6,18.4,0.8,27,4
		c13,4,25,12,36,19c20,16,41,29,66,31l42,4c-21,5-52,13-72,20l-48,15c-23,5-47,9-69,1C1659.9,1665.4,1656.9,1613.4,1658.9,1575.4z"
		/>
	
		<radialGradient id="SVGID_00000181775005704384439860000007023606273019188644_" cx="1965.6085" cy="3453.2153" r="117.1" fx="2015.9086" fy="3548.2153" gradientTransform="matrix(0 1 -1 0 4395.3735 -883.2086)" gradientUnits="userSpaceOnUse">
		<stop  offset="0" style="stop-color:#FFEAAB"/>
		<stop  offset="0" style="stop-color:#FEE4A6"/>
		<stop  offset="0.2" style="stop-color:#FCD49B"/>
		<stop  offset="0.3" style="stop-color:#F8B988"/>
		<stop  offset="0.3" style="stop-color:#F3936E"/>
		<stop  offset="0.4" style="stop-color:#EC634C"/>
		<stop  offset="0.5" style="stop-color:#E52A24"/>
	</radialGradient>
	<path style="fill:url(#SVGID_00000181775005704384439860000007023606273019188644_);" d="M1036.9,1134.4c0-162-117-90-189-72
		c53,6,69,42,108,54C982.9,1125.4,1009.9,1107.4,1036.9,1134.4z"/>
	<path class="st1" d="M1036.9,1134.4c-2-26-6-56-22-77c-9-13-23-19-39-20c-15-1-32,3-47,7c-16,4-31,10-47,15l-32,10l-1-15
		c18.3,2.2,35.8,8.7,51,19c19,13,33,28,53,37c7,3,15,5,23,5C999.9,1115.4,1018.9,1113.4,1036.9,1134.4z M1036.9,1134.4
		c-20-17-37-13-61-11c-9.2,0.6-18.4-0.8-27-4c-13-4-24-12-35-20c-20-15-41-28-67-30l-42-4c21-5,53-13,72-20l48-15c23-5,47-10,70-1
		C1035.9,1044.4,1039.9,1096.4,1036.9,1134.4z"/>
	
		<radialGradient id="SVGID_00000150809288220873239490000004466748651942722434_" cx="-579.6918" cy="3453.2153" r="117.1" fx="-529.3918" fy="3548.2153" gradientTransform="matrix(6.123234e-17 -1 -1 -6.123234e-17 4396.3735 1047.2083)" gradientUnits="userSpaceOnUse">
		<stop  offset="0" style="stop-color:#FFEAAB"/>
		<stop  offset="0" style="stop-color:#FEE4A6"/>
		<stop  offset="0.2" style="stop-color:#FCD49B"/>
		<stop  offset="0.3" style="stop-color:#F8B988"/>
		<stop  offset="0.3" style="stop-color:#F3936E"/>
		<stop  offset="0.4" style="stop-color:#EC634C"/>
		<stop  offset="0.5" style="stop-color:#E52A24"/>
	</radialGradient>
	<path style="fill:url(#SVGID_00000150809288220873239490000004466748651942722434_);" d="M1036.9,1575.4c0,162-117,90-189,72
		c53-6,69-42,108-54C982.9,1584.4,1009.9,1602.4,1036.9,1575.4z"/>
	<path class="st1" d="M1036.9,1575.4c3,38-1,90-42,105c-23,8-47,4-69-1c-17-4-33-10-49-15c-19-7-51-15-71-20l41-4c26-3,47-15,67-30
		c11-8,22-16,35-20l3-1c8-3,16-3,24-3C999.9,1588.4,1016.9,1592.4,1036.9,1575.4z M1036.9,1575.4c-17,20-36,19-61,19c-8,0-16,2-23,5
		c-20,9-34,24-53,36c-15.4,10.1-32.8,16.6-51,19l1-14l32,10l47,15c16,4,32,8,47,7c16-1,30-7,39-20
		C1030.9,1631.4,1034.9,1601.4,1036.9,1575.4z"/>
	<circle class="st37" cx="1519.1" cy="1012.1" r="22.5"/>
	<circle class="st37" cx="1177.1" cy="1012.1" r="22.5"/>
	<circle class="st37" cx="1519.1" cy="1696.1" r="22.5"/>
	<circle class="st37" cx="1177.1" cy="1696.1" r="22.5"/>
	<circle class="st37" cx="1690.1" cy="1525.1" r="22.5"/>
	<circle class="st37" cx="1690.1" cy="1183.1" r="22.5"/>
	<circle class="st37" cx="1006.1" cy="1525.1" r="22.5"/>
	<circle class="st37" cx="1006.1" cy="1183.1" r="22.5"/>
</g>
</svg>
