<?xml version="1.0" encoding="utf-8"?>
<!-- Generator: Adobe Illustrator 28.0.0, SVG Export Plug-In . SVG Version: 6.00 Build 0)  -->
<svg version="1.1" id="a" xmlns="http://www.w3.org/2000/svg" xmlns:xlink="http://www.w3.org/1999/xlink" x="0px" y="0px"
	 viewBox="0 0 2699.7 2699.8" style="enable-background:new 0 0 2699.7 2699.8;" xml:space="preserve">
<style type="text/css">
	.st0{fill:url(#SVGID_1_);stroke:#1D1D1B;stroke-width:7;stroke-miterlimit:10;}
	.st1{fill:url(#SVGID_00000082355835929384512470000016721828881541940158_);}
	.st2{fill:#1D1D1B;}
	.st3{fill:url(#SVGID_00000060742443182166801930000009382095388011096495_);}
	.st4{fill:url(#SVGID_00000166675628320508625580000017204088308234884287_);}
	.st5{fill:url(#SVGID_00000028320217329001597130000006912322984186013880_);}
	.st6{fill:url(#SVGID_00000163040767766623220590000018299806257945567912_);}
	.st7{fill:url(#SVGID_00000057834112216581243910000014232295968026455698_);}
	.st8{fill:url(#SVGID_00000119817989485810252500000000344582904100931253_);}
	.st9{fill:url(#SVGID_00000140000057132837463100000012176956032790344580_);}
	.st10{fill:#1D1D1B;stroke:#1D1D1B;stroke-miterlimit:10;}
	.st11{fill:#FDC41D;}
	.st12{fill:#E52A24;}
	.st13{fill:#20A637;}
	.st14{fill:#23AFB8;}
	.st15{fill:#FDC41E;}
	.st16{fill:#FFEAAC;}
	.st17{fill:#60B563;}
	.st18{fill:#57935D;}
	.st19{stroke:#1D1D1B;stroke-miterlimit:10;}
	.st20{fill:#FFFFFF;stroke:#1D1D1B;stroke-miterlimit:10;}
</style>
<g>
	
		<radialGradient id="SVGID_1_" cx="1345.8583" cy="1351.2651" r="165" gradientTransform="matrix(1 0 0 -1 0 2701.1653)" gradientUnits="userSpaceOnUse">
		<stop  offset="0.3" style="stop-color:#CEBF8D"/>
		<stop  offset="0.7" style="stop-color:#FFEAAB"/>
	</radialGradient>
	<path class="st0" d="M1510.9,1349.9c-16-26-34-40-53-47c9-17,11-40,5-70c-27-7-50-6-70,4c-7-21-23-38-47-52c-25,16-40,34-46,52
		c-18-8-41-10-71-4c-7,27-6,50,5,70c-19,7-36,21-53,47c14,24,31,39,53,46c-10.3,22.3-11.7,47.7-4,71c29,6,52,4,70-5
		c6,19,21,36,46,53c24-14,40-31,47-53c20,10,43,11,70,4c6-29,4-52-4-70C1479.9,1388.9,1497.9,1373.9,1510.9,1349.9z"/>
	
		<radialGradient id="SVGID_00000032647787420621833080000011588888642662880906_" cx="1858.9323" cy="3175.9434" r="51.2" fx="1858.9323" fy="3227.1433" gradientTransform="matrix(-0.7071 0.7071 0.7071 0.7071 458.0073 -2166.8784)" gradientUnits="userSpaceOnUse">
		<stop  offset="0.3" style="stop-color:#A31008"/>
		<stop  offset="0.7" style="stop-color:#E30B17"/>
	</radialGradient>
	<path style="fill:url(#SVGID_00000032647787420621833080000011588888642662880906_);" d="M1424.9,1429.9c-7-32-21-55-43-72
		c-10-8-22-8-29-1c-7,8-7,20,1,30C1371.9,1408.9,1395.9,1422.9,1424.9,1429.9z"/>
	<path class="st2" d="M1424.9,1429.9c-8-27-22-53-45-69c-15-11-33-3-28,16c2,6,7,11,12,16
		C1379.9,1410.9,1401.9,1421.9,1424.9,1429.9z M1424.9,1429.9c-29.2-4.7-55.8-19.6-75-42l-4-9c-8-25,17-38,36-25
		C1406.9,1371.9,1420.9,1399.9,1424.9,1429.9z"/>
	
		<radialGradient id="SVGID_00000078764143930977442830000018277083068602520465_" cx="1858.7323" cy="1747.8873" r="51.2" fx="1858.7323" fy="1799.0873" gradientTransform="matrix(-0.7071 0.7071 -0.7071 -0.7071 3852.772 1227.902)" gradientUnits="userSpaceOnUse">
		<stop  offset="0.3" style="stop-color:#A31008"/>
		<stop  offset="0.7" style="stop-color:#E30B17"/>
	</radialGradient>
	<path style="fill:url(#SVGID_00000078764143930977442830000018277083068602520465_);" d="M1265.9,1270.9c32,6,56,21,72,43
		c7,9,8,22,1,29c-8,7-21,6-30-2C1286.9,1322.9,1272.9,1298.9,1265.9,1270.9z"/>
	<path class="st2" d="M1265.9,1270.9c30,3,58,18,76,42c13,20,0,44-24,37c-4-1-8-3-11-6l-6-5
		C1282.9,1320.9,1270.9,1295.9,1265.9,1270.9z M1265.9,1270.9c8,23,19,44,37,61c5,4,10,9,17,11c18,5,26-13,16-27
		C1318.9,1291.9,1292.9,1277.9,1265.9,1270.9z"/>
	
		<radialGradient id="SVGID_00000046297762770131292930000002699702931819802808_" cx="461.8304" cy="3022.2893" r="51.2" fx="461.8304" fy="3073.4893" gradientTransform="matrix(-0.7071 -0.7071 -0.7071 0.7071 3766.0864 -417.2012)" gradientUnits="userSpaceOnUse">
		<stop  offset="0.3" style="stop-color:#A31008"/>
		<stop  offset="0.7" style="stop-color:#E30B17"/>
	</radialGradient>
	<path style="fill:url(#SVGID_00000046297762770131292930000002699702931819802808_);" d="M1265.9,1429.9c31-7,55-21,72-43
		c7-10,7-22,1-29c-8-7-21-7-30,1C1286.9,1376.9,1272.9,1400.9,1265.9,1429.9z"/>
	<path class="st2" d="M1265.9,1429.9c27-8,53-22,69-45c11-14,3-33-16-28c-6,2-11,7-16,12C1284.9,1384.9,1273.9,1406.9,1265.9,1429.9
		z M1265.9,1429.9c4.7-29.2,19.6-55.8,42-75l9-4c24-7,38,17,25,36C1323.9,1411.9,1294.9,1425.9,1265.9,1429.9z"/>
	
		<radialGradient id="SVGID_00000182495958332871075180000014733875290446177963_" cx="461.6304" cy="1901.5415" r="51.2" fx="461.6304" fy="1952.7415" gradientTransform="matrix(-0.7071 -0.7071 0.7071 -0.7071 371.436 2978.4551)" gradientUnits="userSpaceOnUse">
		<stop  offset="0.3" style="stop-color:#A31008"/>
		<stop  offset="0.7" style="stop-color:#E30B17"/>
	</radialGradient>
	<path style="fill:url(#SVGID_00000182495958332871075180000014733875290446177963_);" d="M1424.9,1270.9c-6,32-21,56-43,72
		c-10,8-22,8-29,1c-7-8-7-20,1-30C1372.9,1291.9,1395.9,1277.9,1424.9,1270.9z"/>
	<path class="st2" d="M1424.9,1270.9c-4,30-18,58-43,76c-19,13-43,0-36-24c1-4,3-8,6-11l5-6
		C1374.9,1287.9,1398.9,1275.9,1424.9,1270.9z M1424.9,1270.9c-23,8-44,19-61,37c-5,5-10,10-12,17c-5,18,14,26,28,16
		C1402.9,1323.9,1417.9,1297.9,1424.9,1270.9z"/>
	
		<radialGradient id="SVGID_00000134936189580780568290000005401758515981276572_" cx="1345.8583" cy="1412.6652" r="51.2" fx="1345.8583" fy="1463.8651" gradientTransform="matrix(1 0 0 -1 0 2701.1653)" gradientUnits="userSpaceOnUse">
		<stop  offset="0.3" style="stop-color:#A31008"/>
		<stop  offset="0.7" style="stop-color:#E30B17"/>
	</radialGradient>
	<path style="fill:url(#SVGID_00000134936189580780568290000005401758515981276572_);" d="M1346.9,1237.9c-18,26-25,54-21,81
		c2,12,10,21,20,21c11,0,19-10,20-22C1368.9,1289.9,1361.9,1262.9,1346.9,1237.9z"/>
	<path class="st2" d="M1346.9,1237.9c-14,24-22,52-18,81c3,17,22,25,31,8l3-9l1-8C1364.9,1284.9,1357.9,1259.9,1346.9,1237.9z
		 M1346.9,1237.9c15,21,24,47,23,73v7l-4,12c-12,22-38,15-43-9c-5-30,5-60,24-84V1237.9z"/>
	
		<radialGradient id="SVGID_00000155843822485179823470000012280320365071376038_" cx="1345.6249" cy="3511.0654" r="51.2979" fx="1345.6249" fy="3562.3633" gradientTransform="matrix(1 0 0 1 0 -2100.1655)" gradientUnits="userSpaceOnUse">
		<stop  offset="0.3" style="stop-color:#A31008"/>
		<stop  offset="0.7" style="stop-color:#E30B17"/>
	</radialGradient>
	<path style="fill:url(#SVGID_00000155843822485179823470000012280320365071376038_);" d="M1346.9,1461.9c-18-27-25-54-21-81
		c2-12,10-21,20-21s19,10,20,22c3,28-5,55-20,80H1346.9z"/>
	<path class="st2" d="M1346.9,1461.9c-19-23-29-54-24-84c4-23,31-30,43-8l3,12l1,7C1369.9,1414.9,1360.9,1440.9,1346.9,1461.9z
		 M1346.9,1461.9c11-22,18-47,16-73v-7l-3-9c-10-17-28-9-31,8C1324.9,1408.9,1332.9,1437.9,1346.9,1461.9z"/>
	
		<radialGradient id="SVGID_00000172404372163368593440000014866699661657372047_" cx="2225.1086" cy="2509.2153" r="51.2" fx="2225.1086" fy="2560.4153" gradientTransform="matrix(6.123234e-17 1 1 -6.123234e-17 -1101.957 -875.2086)" gradientUnits="userSpaceOnUse">
		<stop  offset="0.3" style="stop-color:#A31008"/>
		<stop  offset="0.7" style="stop-color:#E30B17"/>
	</radialGradient>
	<path style="fill:url(#SVGID_00000172404372163368593440000014866699661657372047_);" d="M1457.9,1350.9c-27-18-54-25-81-21
		c-12,2-21,10-21,20c0,11,10,19,22,20C1405.9,1372.9,1432.9,1365.9,1457.9,1350.9z"/>
	<path class="st2" d="M1457.9,1350.9c-24-14-52-22-81-18c-17,3-25,21-8,31l9,3l7,1C1410.9,1368.9,1435.9,1361.9,1457.9,1350.9z
		 M1457.9,1350.9c-21,15-47,23-73,23h-7l-12-4c-22-12-15-38,9-43C1403.9,1322.9,1434.9,1331.9,1457.9,1350.9z"/>
	
		<radialGradient id="SVGID_00000042722564009863924670000014759107929531686834_" cx="2224.8765" cy="2414.6155" r="51.2109" fx="2224.8765" fy="2465.8264" gradientTransform="matrix(0 1 -1 0 3699.3738 -875.2086)" gradientUnits="userSpaceOnUse">
		<stop  offset="0.3" style="stop-color:#A31008"/>
		<stop  offset="0.7" style="stop-color:#E30B17"/>
	</radialGradient>
	<path style="fill:url(#SVGID_00000042722564009863924670000014759107929531686834_);" d="M1233.9,1350.9c26-18,54-25,81-21
		c12,2,21,10,21,20s-10,19-22,20c-29,3-55-5-81-19H1233.9z"/>
	<path class="st2" d="M1233.9,1350.9c23-19,54-29,83-24c24,4,31,31,9,43l-12,3l-7,1c-26,0-52-9-73-24V1350.9z M1233.9,1350.9
		c22,11,47,18,72,16h8l9-3c17-10,9-28-9-31C1285.9,1328.9,1257.9,1336.9,1233.9,1350.9z"/>
	<circle class="st10" cx="1345.9" cy="1349.8" r="11.8"/>
	<path class="st11" d="M943.9,661.9c-71-76-171-109-300-97l46-34c50-36,119-28,158,19l95,112H943.9z"/>
	<path class="st2" d="M943.9,661.9c-48-49-111-79-178-89c-46-8-93-6-139-1l33-25l19-14l18-12c52.6-31.2,120.2-17.8,157,31
		C883.9,587.9,912.9,625.9,943.9,661.9z M943.9,661.9c-35.9-42-73.2-82.7-112-122c-40-35-100-36-142-3l-43,32l-3-9
		C754.9,549.9,867.9,573.9,943.9,661.9z"/>
	<path class="st11" d="M940.9,658.9c-63-69-154-98-270-88l42-30c44-33,107-26,142,17S940.9,658.9,940.9,658.9z"/>
	<path class="st2" d="M940.9,658.9c-34-35-78-60-125-73c-53-14-108-14-162-8l31-23c10-7,23-18,33-24c47.8-28.6,109.5-16.5,143,28
		C887.9,591.9,912.9,625.9,940.9,658.9z M940.9,658.9c-28-33-58-64-86-96l-14-15c-37-30-91-31-128-1l-39,28l-3-9
		C770.9,556.9,873.9,578.9,940.9,658.9z"/>
	<path class="st11" d="M943.9,661.9c-57-61-136-87-239-77l37-27c39-30,94-23,126,15L943.9,661.9z"/>
	<path class="st2" d="M943.9,661.9c-39-38-89-63-143-70c-37-6-76-5-113-1l29-21l15-12l16-11c42.2-24.3,96-13.1,125,26
		C896.9,602.9,918.9,632.9,943.9,661.9z M943.9,661.9c-25-29-52-56-77-84l-13-13c-32.2-27-78.9-27.9-112-2l-34,26l-4-9
		c89-9,180,11,239,82H943.9z"/>
	<circle class="st12" cx="962.5" cy="432.9" r="18.9"/>
	<path class="st2" d="M948.9,445.9c-10-9-7-26,6-32c17-8,34,10,26,27C974.9,452.9,958.9,455.9,948.9,445.9z M948.9,445.9
		c6.6,7.4,18,8,25.4,1.4c7.4-6.6,8-18,1.4-25.4c-3.3-3.7-7.9-5.8-12.8-6C945.9,414.9,937.9,434.9,948.9,445.9z"/>
	<circle class="st12" cx="999.7" cy="379.3" r="18.9"/>
	<path class="st2" d="M985.9,365.9c10-10,27-7,33,6c7,16-10,34-27,26C979.9,391.9,976.9,375.9,985.9,365.9z M985.9,365.9
		c-6.9,7.2-6.6,18.6,0.6,25.4c7.2,6.9,18.6,6.6,25.4-0.6c3.1-3.2,4.8-7.4,5-11.9C1017.9,362.9,997.9,354.9,985.9,365.9z"/>
	<circle class="st12" cx="927.9" cy="379.3" r="18.9"/>
	<path class="st2" d="M946.9,378.9c-0.1,11-9.2,19.9-20.3,19.7s-19.9-9.2-19.7-20.3c0.1-8.2,5.3-15.6,13-18.5
		C932.9,355.9,946.9,365.9,946.9,378.9z M946.9,378.9c-0.3-9.9-8.6-17.7-18.6-17.4c-9.9,0.3-17.7,8.6-17.4,18.6
		c0.1,4.4,1.9,8.7,5,11.9C926.9,402.9,946.9,395.9,946.9,378.9z M886.9,468.9c-4,47,15,92,43,128c10,13,20,24,31,35
		c-12-10-23-21-33-33c-21-24-39-51-47-82c-5-16-7-32-7-48H886.9z"/>
	<path class="st13" d="M877.9,475.9c34-19,67-19,100,0C944.9,488.9,911.9,488.9,877.9,475.9z"/>
	<path class="st2" d="M877.9,475.9l8-6l16-7c16-6,33-8,50-3c14,3,27,10,39,17l-24,8C937.9,492.9,904.9,490.9,877.9,475.9z
		 M878.9,475.9c33,12,65,12,98-1l1,1C947.6,456.9,909.1,456.9,878.9,475.9z"/>
	<path class="st13" d="M879.9,476.9c-21-32-26-62,0-90C903.9,416.9,903.9,446.9,879.9,476.9z"/>
	<path class="st2" d="M879.9,477.9c-17-19-28-47-18-72c4-11,11-19,18-27l4,5c14,17,23,39,16,61C896.9,457.9,888.9,468.9,879.9,477.9
		z M879.9,476.9c23-30,24-59-1-89h1C852.9,415.9,860.9,446.9,879.9,476.9z"/>
	<path class="st12" d="M860.9,514.9c-29-31-40-74-35-128c-56,6-89,36-94,94c45-13,87,5,128,34H860.9z"/>
	<path class="st2" d="M860.9,514.9c-33-34-41-83-37-129l3,2c-56,6-88,37-93,93l-2-2l8-2C783.9,467.9,825.9,489.9,860.9,514.9z
		 M860.9,514.9c-37-25-83-47-128-33l-3,1c1-13,4-26,9-39c14-39,50-56,89-59C822.9,429.9,828.9,479.9,860.9,514.9z"/>
	<path class="st14" d="M844.9,498.9c-24-26-34-62-29-108c-48,5-75,30-79,79C773.9,458.9,809.9,474.9,844.9,498.9z"/>
	<path class="st2" d="M844.9,498.9c-28-28-35-70-31-108l2,2c-46,5-73,30-77,77l-3-2l7-2C779.9,458.9,815.9,477.9,844.9,498.9z
		 M844.9,498.9c-31-21-70-39-108-27h-2c1-11,2-22,7-33c12-33,42-47,76-50C812.9,426.9,817.9,468.9,844.9,498.9z"/>
	<path class="st15" d="M830.9,485.9c-20-22-28-53-24-91c-40,4-63,25-67,66C771.9,451.9,801.9,464.9,830.9,485.9z"/>
	<path class="st2" d="M830.9,485.9c-23-24-29-59-26-91l2,2c-39,4-61,25-65,64l-2-2l6-1c31-6,61,9,85,27V485.9z M830.9,485.9
		c-26-18-58-33-90-23l-2,1c0-10,2-20,5-29c11-28,37-40,65-42C804.9,424.9,808.9,459.9,830.9,485.9z"/>
	<path class="st16" d="M819.9,473.9c-17-18-24-44-21-76c-33,3-52,21-55,56C769.9,445.9,794.9,456.9,819.9,473.9z"/>
	<path class="st2" d="M819.9,473.9c-20-20-25-49-22-76l2,2c-22,2-42,12-50,33l-5,21l-2-2C770.9,443.9,797.9,457.9,819.9,473.9z
		 M819.9,473.9c-22-14-49-27-76-19l-2,1v-2c1-15,6-30,17-41s27-16,42-17C797.9,422.9,800.9,452.9,819.9,473.9z"/>
	<path class="st12" d="M1073.9,484.9c-31,29-74,40-128,35c6,56,36,88,94,94C1026.9,568.9,1044.9,526.9,1073.9,484.9z"/>
	<path class="st2" d="M1073.9,484.9c-34,33-83,41-129,36l2-1c6,55,37,87,93,92l-2,2l-3-8C1026.9,561.9,1048.9,519.9,1073.9,484.9z
		 M1073.9,484.9c-25,37-47,83-33,128l1,3c-13-1-26-4-39-8c-39-15-56-51-59-90C988.9,522.9,1037.9,516.9,1073.9,484.9z"/>
	<path class="st14" d="M1051.9,506.9c-24,22-58,31-100,27c4,44,28,70,73,74C1014.9,572.9,1028.9,539.9,1051.9,506.9z"/>
	<path class="st2" d="M1051.9,506.9c-26,26-65,33-101,29l2-2c5,43,29,68,72,72l-2,2l-1-7C1014.9,566.9,1031.9,533.9,1051.9,506.9z
		 M1051.9,506.9c-19,29-36,65-25,100l1,3c-11-1-21-3-31-7c-31-11-45-40-47-71C984.9,535.9,1023.9,531.9,1051.9,506.9z"/>
	<path class="st15" d="M1034.9,523.9c-19,18-45,25-79,21c4,35,22,55,58,58C1005.9,575.9,1016.9,549.9,1034.9,523.9z"/>
	<path class="st2" d="M1034.9,523.9c-20,21-51,26-79,23l2-2c3,23,13,43,35,51c7,3,14,4,21,5l-2,2
		C1003.9,574.9,1017.9,546.9,1034.9,523.9z M1034.9,523.9c-15,23-28,51-19,79v2h-2c-15-1-31-6-42-18c-10.9-12.1-17.3-27.7-18-44
		C982.9,546.9,1012.9,542.9,1034.9,523.9z"/>
	<path class="st16" d="M1021.9,536.9c-15,14-36,20-62,17c3,27,17,43,45,45C998.9,577.9,1007.9,556.9,1021.9,536.9z"/>
	<path class="st2" d="M1021.9,536.9c-16,17-40,21-62,19l2-2c2,17,10,33,27,39c5,3,11,4,16,4l-2,3
		C996.9,576.9,1007.9,554.9,1021.9,536.9z M1021.9,536.9c-12,19-22,42-14,64c-13-1-27-4-36-14c-9-9-13-22-14-35
		C979.9,554.9,1003.9,551.9,1021.9,536.9z"/>
	<path class="st11" d="M1037.9,489.9c-33-135,173-121,231-190C1302.9,441.9,1101.9,424.9,1037.9,489.9z"/>
	<path class="st2" d="M1037.9,489.9c-29-86,53-120,119-144c34-14,79-26,103-54l15-18c8,31,15,60,3,91c-25,61-110,74-166,91
		C1085.9,463.9,1058.9,471.9,1037.9,489.9z M1037.9,489.9c51-63,214-63,223-151c1-12,0-24-3-37l20,5c-10,12-22,20-36,27
		c-37,20-78,30-117,44C1069.9,397.9,1026.9,422.9,1037.9,489.9z"/>
	<path class="st11" d="M1776.9,661.9c70-76,170-109,299-97l-46-34c-49-36-119-28-158,19L1776.9,661.9z"/>
	<path class="st2" d="M1776.9,661.9c75-88,188-112,300-102l-4,9l-43-32c-47.2-36.4-114.7-29.9-154,15
		C1843.7,589.3,1810.7,626,1776.9,661.9z M1776.9,661.9l89-110c36.8-48.8,104.4-62.2,157-31c7,3,12,8,18,12l19,14l33,25
		c-46-5-93-7-138,1C1887.9,582.9,1823.9,612.9,1776.9,661.9z"/>
	<path class="st11" d="M1778.9,658.9c64-69,154-98,270-88l-41-30c-45-33-108-26-143,17S1778.9,658.9,1778.9,658.9z"/>
	<path class="st2" d="M1778.9,658.9c68-80,170-102,271-93l-4,9l-38-28c-43.3-35.1-106.9-28.5-142.1,14.8c-0.3,0.4-0.6,0.8-0.9,1.2
		C1836.9,594.9,1806.9,625.9,1778.9,658.9z M1778.9,658.9l81-100c33.4-43.9,94.4-56,142-28c10,6,24,17,33,24l31,23
		c-54-6-109-6-162,8C1856.9,598.9,1813.9,623.9,1778.9,658.9z"/>
	<path class="st11" d="M1776.9,661.9c56-61,135-87,238-77l-36-27c-39.3-29.4-94.7-22.8-126,15L1776.9,661.9z"/>
	<path class="st2" d="M1776.9,661.9c59-71,150-90,239-82l-3,9l-35-26c-38.6-30.4-94.6-23.7-125,15c0,0,0,0,0,0
		C1827.9,605.9,1800.9,632.9,1776.9,661.9z M1776.9,661.9c24-29,46-59,71-88c28.9-38.6,82-49.7,124-26c6,2,11,7,16,10l15,12l30,21
		c-38-4-77-5-114,1C1865.9,598.9,1814.9,623.9,1776.9,661.9z"/>
	<circle class="st12" cx="1757.6" cy="432.9" r="18.9"/>
	<path class="st2" d="M1770.9,445.9c7.4-6.6,8-18,1.4-25.4s-18-8-25.4-1.4c-3.9,3.5-6.1,8.6-6,13.8
		C1739.9,448.9,1759.9,457.9,1770.9,445.9z M1770.9,445.9c-9,10-26,7-32-5c-8-17,10-35,27-27
		C1777.9,419.9,1780.9,436.9,1770.9,445.9z"/>
	<circle class="st12" cx="1720.4" cy="379.3" r="18.9"/>
	<path class="st2" d="M1733.9,365.9c-6.6-7.4-18-8-25.4-1.4c-7.4,6.6-8,18-1.4,25.4c3.5,3.9,8.6,6.1,13.8,6
		C1736.9,396.9,1744.9,377.9,1733.9,365.9z M1733.9,365.9c10,9,7,26-6,32c-16,8-34-10-26-26C1707.9,358.9,1723.9,355.9,1733.9,365.9
		z"/>
	<circle class="st12" cx="1792.2" cy="379.3" r="18.9"/>
	<path class="st2" d="M1772.9,378.9c-0.2,9.9,7.6,18.2,17.6,18.4c9.9,0.2,18.2-7.6,18.4-17.6c0.1-4.8-1.7-9.4-5-12.9
		C1792.9,354.9,1773.9,362.9,1772.9,378.9z M1772.9,378.9c0-13,14-23,27-18c17,6,17,31,0,37C1786.9,402.9,1772.9,392.9,1772.9,378.9
		z M1846.9,468.9c0,65-40,123-88,163c11-11,22-22,31-35c28-36,47-81,44-128H1846.9z"/>
	<path class="st13" d="M1841.9,475.9c-30.3-19-68.7-19-99,0C1775.9,488.9,1808.9,488.9,1841.9,475.9z"/>
	<path class="st2" d="M1841.9,475.9l-9-3c-6-3-13-4-19-5c-24-5-48,0-69,13l-1-10l6,2c26,9,53,11,79,5l7-1L1841.9,475.9z
		 M1841.9,475.9c-31,13-68,13-100,0h-1l1-1C1774.9,455.9,1809.9,455.9,1841.9,475.9z"/>
	<path class="st13" d="M1840.9,476.9c20-32,25-62,0-90C1815.9,416.9,1815.9,446.9,1840.9,476.9z"/>
	<path class="st2" d="M1840.9,476.9l4-11c12-27,13-52-8-75h8c-16,19-23,40-15,64l10,22H1840.9z M1840.9,476.9c-25-29-25-60-1-90h1
		c27,28,20,61,0,91V476.9z"/>
	<path class="st12" d="M1859.9,514.9c28-31,40-74,34-128c56,6,89,36,94,94C1943.9,467.9,1900.9,485.9,1859.9,514.9z"/>
	<path class="st2" d="M1859.9,514.9c31-35,37-85,32-130c39,3,75,20,90,59c5,13,7,26,8,39l-3-1
		C1941.9,467.9,1896.9,489.9,1859.9,514.9z M1859.9,514.9c34-25,76-47,120-38l8,2l-2,2c-5-56-37-87-92-92l2-2
		C1899.9,431.9,1891.9,480.9,1859.9,514.9z"/>
	<path class="st14" d="M1875.9,498.9c23-26,33-62,28-108c48,5,75,30,80,79C1945.9,458.9,1910.9,474.9,1875.9,498.9z"/>
	<path class="st2" d="M1875.9,498.9c26-30,31-72,26-110c34,3,64,17,77,50c4,11,6,22,6,33h-2C1944.9,459.9,1906.9,477.9,1875.9,498.9
		z M1875.9,498.9c28-21,64-40,101-32l7,1l-2,2c-5-47-31-72-78-77l2-2C1909.9,428.9,1902.9,470.9,1875.9,498.9z"/>
	<path class="st15" d="M1888.9,485.9c20-22,28-53,24-91c40,4,63,25,67,66C1948.9,451.9,1918.9,464.9,1888.9,485.9z"/>
	<path class="st2" d="M1888.9,485.9c22-26,26-61,22-93c29,2,55,14,65,42c4,9,5,19,6,29l-3-1c-31-10-64,5-90,22V485.9z M1888.9,485.9
		c24-19,54-34,85-28l6,2l-2,1c-4-39-26-60-65-64l2-2C1918.9,426.9,1912.9,461.9,1888.9,485.9z"/>
	<path class="st16" d="M1899.9,473.9c17-18,24-44,21-76c33,3,53,21,56,56c-27-8-52,3-76,20H1899.9z"/>
	<path class="st2" d="M1899.9,473.9c19-21,22-51,19-78c24,2,46,12,55,36c3,8,4,16,5,24l-3-1C1949.9,446.9,1921.9,459.9,1899.9,473.9
		z M1899.9,473.9c22-16,49-30,77-22l-2,2c-1-7-2-14-5-21c-8-21-28-31-49-33l2-2C1924.9,424.9,1919.9,454.9,1899.9,473.9z"/>
	<path class="st12" d="M1646.9,484.9c31,29,73,40,128,35c-6,56-37,88-94,94c13-45-6-87-35-129H1646.9z"/>
	<path class="st2" d="M1646.9,484.9c35,32,84,38,130,33c-3,39-21,75-60,89c-12,5-25,8-39,9l1-3c14-45-8-91-33-128H1646.9z
		 M1646.9,484.9c25,35,47,77,38,121l-3,8l-1-2c55-5,86-37,92-92l2,2c-45,4-95-4-129-37H1646.9z"/>
	<path class="st14" d="M1667.9,506.9c24,22,58,31,101,27c-5,44-29,70-74,74C1704.9,572.9,1690.9,539.9,1667.9,506.9z"/>
	<path class="st2" d="M1667.9,506.9c28,25,67,29,103,25c-3,31-17,60-47,71c-10,4-21,6-32,7l1-3
		C1703.9,571.9,1686.9,535.9,1667.9,506.9z M1667.9,506.9c20,27,37,60,30,95l-1,6l-2-2c43-4,67-29,72-72l2,2
		C1732.9,539.9,1693.9,532.9,1667.9,506.9z"/>
	<path class="st15" d="M1684.9,523.9c19,18,46,25,79,21c-4,35-22,55-58,58C1713.9,575.9,1702.9,549.9,1684.9,523.9z"/>
	<path class="st2" d="M1684.9,523.9c22,19,53,23,81,19c-2,25-12,48-37,57c-8,3-17,4-25,5l1-3
		C1712.9,574.9,1699.9,546.9,1684.9,523.9z M1684.9,523.9c17,23,31,51,23,80l-2-3c7-1,15-2,21-5c23-8,33-28,35-51l2,2
		C1735.9,549.9,1705.9,544.9,1684.9,523.9z"/>
	<path class="st16" d="M1698.9,536.9c15,14,35,20,61,17c-3,27-17,43-45,45c6-21-3-42-17-62H1698.9z"/>
	<path class="st2" d="M1698.9,536.9c17,15,41,18,63,15c-1,13-4,26-14,35c-9,10-22,14-35,14c8-22-3-44-15-64H1698.9z M1698.9,536.9
		c13,18,24,40,18,63l-2-3c6,0,11-1,17-4c17-6,25-22,27-39l1,2c-21,2-46-2-62-19H1698.9z"/>
	<path class="st11" d="M1682.9,489.9c32-135-173-121-232-190c-34,142,168,125,231,190H1682.9z"/>
	<path class="st2" d="M1682.9,489.9c12-76-46-99-107-119c-26-8-53-16-78-27c-14-6-27-12-39-21l-17-16l20-5c-3,13-4,25-3,37
		C1468.9,426.9,1631.9,426.9,1682.9,489.9z M1682.9,489.9c-22-18-49-26-75-34c-56-17-140-30-165-91c-13-31-5-60,2-90l15,17
		c7,9,18,16,29,23c23,13,49,21,74,31c66,24,148,58,119,144H1682.9z"/>
	<path class="st11" d="M943.9,2038.9c-71,76-171,109-300,97l46,34c50,37,119,28,158-19l95-112H943.9z"/>
	<path class="st2" d="M943.9,2038.9c-76,88-189,112-300,102l3-9l43,32c47.4,37.1,115.6,30.5,155-15
		C877,2111.5,910,2074.8,943.9,2038.9z M943.9,2038.9c-31,36-60,74-90,110c-36.8,48.8-104.4,62.2-157,31l-18-12l-19-14l-33-25
		c46,5,93,7,139-1C832.9,2117.9,895.9,2087.9,943.9,2038.9z"/>
	<path class="st11" d="M940.9,2041.9c-63,69-154,98-270,88l42,30c44,34,107,26,142-17S940.9,2041.9,940.9,2041.9z"/>
	<path class="st2" d="M940.9,2041.9c-67,80-170,102-270,93l3-9l39,28c43.6,34.8,107.1,27.7,141.9-15.9c0,0,0,0,0.1-0.1
		C882.9,2105.9,912.9,2074.9,940.9,2041.9z M940.9,2041.9l-81,100c-33.4,43.9-94.4,56-142,28c-10-6-23-17-33-24l-31-23
		c54,6,109,6,162-8C862.9,2101.9,906.9,2076.9,940.9,2041.9z"/>
	<path class="st11" d="M943.9,2038.9c-57,61-136,87-239,77l37,28c39,29,94,22,126-16L943.9,2038.9z"/>
	<path class="st2" d="M943.9,2038.9c-60,71-151,91-240,82l4-9l34,26c38.6,30.4,94.6,23.7,125-15c0,0,0,0,0,0
		C891.9,2094.9,918.9,2067.9,943.9,2038.9z M943.9,2038.9c-25,29-47,59-71,89c-9,10-18,19-30,25c-29.3,17.1-65.4,17.5-95,1l-16-11
		l-15-12l-29-21c37,4,76,5,113-1c54-7,104-32,142-70H943.9z"/>
	<circle class="st12" cx="962.5" cy="2268" r="18.9"/>
	<path class="st2" d="M948.9,2254.9c-6.9,7.2-6.6,18.6,0.6,25.4c7.2,6.9,18.6,6.6,25.4-0.6c3.1-3.2,4.8-7.4,5-11.9
		C979.9,2251.9,960.9,2242.9,948.9,2254.9z M948.9,2254.9c10-10,27-7,32,5c8,17-9,35-26,27C941.9,2280.9,938.9,2263.9,948.9,2254.9z
		"/>
	<circle class="st12" cx="999.7" cy="2321.6" r="18.9"/>
	<path class="st2" d="M985.9,2334.9c6.6,7.4,18,8,25.4,1.4c7.4-6.6,8-18,1.4-25.4c-3.3-3.7-7.9-5.8-12.8-6
		C983.9,2303.9,974.9,2322.9,985.9,2334.9z M985.9,2334.9c-9-9-6-26,6-32c17-8,34,10,27,26C1012.9,2341.9,995.9,2344.9,985.9,2334.9
		z"/>
	<circle class="st12" cx="927.9" cy="2321.6" r="18.9"/>
	<path class="st2" d="M946.9,2321.9c0.2-9.9-7.6-18.2-17.6-18.4c-9.9-0.2-18.2,7.6-18.4,17.6c-0.1,4.8,1.7,9.4,5,12.9
		C926.9,2345.9,946.9,2337.9,946.9,2321.9z M946.9,2321.9c0,13-14,23-27,18c-17-6-17-31,0-37
		C932.9,2297.9,946.9,2307.9,946.9,2321.9z M873.9,2231.9c-1-65,39-122,87-163l-31,35c-28,36-47,81-43,128H873.9z"/>
	<path class="st13" d="M877.9,2224.9c34,19,67,19,100,0C944.9,2212.9,911.9,2212.9,877.9,2224.9z"/>
	<path class="st2" d="M878.9,2224.9l9,4l18,5c24,4,48-1,69-13l1,9l-6-2c-26-9-52-10-79-5l-6,1L878.9,2224.9z M877.9,2224.9
		c32-13,68-13,100,0h1l-1,1C947.2,2245,908.2,2244.7,877.9,2224.9z"/>
	<path class="st13" d="M879.9,2223.9c-21,32-26,62,0,90C903.9,2283.9,903.9,2253.9,879.9,2223.9z"/>
	<path class="st2" d="M879.9,2223.9l-5,11c-12,27-13,53,9,75h-8c15-19,23-40,14-64C887.9,2237.9,883.9,2230.9,879.9,2223.9z
		 M879.9,2223.9c25,29,24,60,0,90v1l-1-1C852.9,2285.9,859.9,2252.9,879.9,2223.9z"/>
	<path class="st12" d="M860.9,2185.9c-29,31-40,74-35,128c-56-6-89-36-94-94c45,13,87-5,128-34H860.9z"/>
	<path class="st2" d="M860.9,2185.9c-32,35-38,85-33,130c-39-3-75-20-90-59c-4-13-7-26-8-39l3,1
		C777.9,2232.9,823.9,2210.9,860.9,2185.9z M860.9,2185.9c-35,25-77,47-121,38l-8-2l2-2c5,56,37,87,93,92l-2,2
		C819.9,2268.9,827.9,2219.9,860.9,2185.9z"/>
	<path class="st14" d="M844.9,2201.9c-24,26-34,62-29,108c-48-5-75-30-79-79C773.9,2241.9,809.9,2226.9,844.9,2201.9z"/>
	<path class="st2" d="M844.9,2201.9c-27,30-32,72-27,110c-34-3-64-17-76-50c-4-11-6-22-7-33h2
		C774.9,2240.9,813.9,2222.9,844.9,2201.9z M844.9,2201.9c-29,21-65,40-102,32l-7-1l3-2c4,47,31,72,77,77l-2,2
		C809.9,2271.9,816.9,2229.9,844.9,2201.9z"/>
	<path class="st15" d="M830.9,2215.9c-20,22-28,52-24,90c-40-4-63-25-67-66C771.9,2248.9,801.9,2235.9,830.9,2215.9z"/>
	<path class="st2" d="M830.9,2215.9c-22,25-26,60-22,92c-28-2-54-14-65-42c-3-9-5-19-6-29l3,1
		C772.9,2247.9,804.9,2232.9,830.9,2215.9z M830.9,2215.9c-24,18-54,33-85,27l-6-1l2-2c4,39,26,60,65,64l-2,2
		C801.9,2273.9,807.9,2238.9,830.9,2215.9z"/>
	<path class="st16" d="M819.9,2226.9c-17,18-24,44-21,76c-33-3-52-21-55-56C769.9,2254.9,794.9,2243.9,819.9,2226.9z"/>
	<path class="st2" d="M819.9,2226.9c-19,21-22,51-19,78c-24-2-46-12-54-36c-4-8-5-16-5-24l2,1
		C770.9,2253.9,797.9,2240.9,819.9,2226.9z M819.9,2226.9c-22,17-49,30-77,22l2-2l5,21c8,21,28,31,50,33l-2,2
		C794.9,2275.9,799.9,2245.9,819.9,2226.9z"/>
	<path class="st12" d="M1073.9,2215.9c-31-29-74-40-128-35c6-56,36-88,94-94C1026.9,2131.9,1044.9,2173.9,1073.9,2215.9z"/>
	<path class="st2" d="M1073.9,2215.9c-35-32-85-38-130-33c3-39,20-75,59-89c13-5,26-8,39-9l-1,3
		C1026.9,2132.9,1048.9,2178.9,1073.9,2215.9z M1073.9,2215.9c-25-35-47-77-38-121l2-8l2,2c-56,5-87,37-92,93l-2-2
		C990.9,2174.9,1039.9,2182.9,1073.9,2215.9z"/>
	<path class="st14" d="M1051.9,2193.9c-24-22-58-31-100-27c4-44,28-70,73-74C1014.9,2127.9,1028.9,2160.9,1051.9,2193.9z"/>
	<path class="st2" d="M1051.9,2193.9c-28-25-67-29-102-25c2-31,16-60,47-71c10-4,20-6,31-6l-1,2
		C1015.9,2128.9,1032.9,2164.9,1051.9,2193.9z M1051.9,2193.9c-20-27-37-60-30-94l1-7l2,2c-43,4-67,29-72,72l-2-2
		C986.9,2161.9,1025.9,2167.9,1051.9,2193.9z"/>
	<path class="st15" d="M1034.9,2176.9c-19-17-45-24-79-21c4-35,22-55,58-58C1005.9,2124.9,1016.9,2150.9,1034.9,2176.9z"/>
	<path class="st2" d="M1034.9,2176.9c-22-19-53-23-81-19c2-25,13-48,37-57c8-3,17-4,25-5v3
		C1006.9,2125.9,1019.9,2153.9,1034.9,2176.9z M1034.9,2176.9c-17-22-31-51-23-79l2,2c-7,1-14,2-21,5c-22,8-32,29-35,51l-2-2
		C983.9,2150.9,1014.9,2155.9,1034.9,2176.9z"/>
	<path class="st16" d="M1021.9,2163.9c-15-14-36-20-62-17c3-27,17-43,45-45c-6,21,3,41,17,61V2163.9z"/>
	<path class="st2" d="M1021.9,2163.9c-18.3-13.7-41.5-19.1-64-15c1-13,5-26,14-35c9-10,23-14,36-14c-8,22,2,44,14,63V2163.9z
		 M1021.9,2163.9c-14-18-25-40-18-63l1,3c-5,0-11,1-16,3c-17,7-25,23-27,40l-2-2C981.9,2142.9,1005.9,2146.9,1021.9,2163.9z"/>
	<path class="st11" d="M1037.9,2210.9c-33,135,173,121,231,191C1302.9,2259.9,1101.9,2275.9,1037.9,2210.9z"/>
	<path class="st2" d="M1037.9,2210.9c-12,76,46,99,106,119c26,9,54,17,79,27c20.2,9.3,38.8,21.8,55,37l-20,5c3-13,4-25,3-37
		C1251.9,2273.9,1088.9,2273.9,1037.9,2210.9z M1037.9,2210.9c21,18,48,26,74,34c56,17,141,30,166,91c12,31,5,60-3,90l-15-17
		c-7-9-17-16-29-23c-23-12-49-21-74-31C1090.9,2330.9,1008.9,2297.9,1037.9,2210.9z"/>
	<path class="st11" d="M1776.9,2038.9c70,76,170,109,299,97l-46,34c-49,37-119,28-158-19L1776.9,2038.9z"/>
	<path class="st2" d="M1776.9,2038.9c47,49,111,79,178,89c45,8,92,6,138,1l-33,25l-19,14c-6,4-11,9-17,12
		c-52.8,31.8-121.1,18.4-158-31C1835.9,2112.9,1807.9,2074.9,1776.9,2038.9z M1776.9,2038.9c35.5,42.3,72.5,83.3,111,123
		c41,34,101,35,142,2l43-32l4,9C1964.9,2150.9,1851.9,2126.9,1776.9,2038.9z"/>
	<path class="st11" d="M1778.9,2041.9c64,69,154,98,270,88l-41,30c-45,34-108,26-143-17S1778.9,2041.9,1778.9,2041.9z"/>
	<path class="st2" d="M1778.9,2041.9c34,35,78,60,125,73c53,14,108,14,162,8l-31,23c-10,7-23,18-33,24c-47.6,28-108.6,15.9-142-28
		L1778.9,2041.9z M1778.9,2041.9c28,33,58,64,86,96l15,15c36,31,90,31,128,1l38-28l4,9C1948.9,2143.9,1846.9,2121.9,1778.9,2041.9z"
		/>
	<path class="st11" d="M1776.9,2038.9c56,61,135,87,238,77l-36,28c-39.5,29.2-95,22.1-126-16L1776.9,2038.9z"/>
	<path class="st2" d="M1776.9,2038.9c38,39,88,63,142,71c37,6,76,4,114,0l-30,22l-15,11l-16,11c-42,23.7-95.1,12.6-124-26
		L1776.9,2038.9z M1776.9,2038.9c24,29,51,56,76,84c30.7,38.4,86.6,44.6,125,14l35-24l3,8
		C1926.9,2129.9,1835.9,2109.9,1776.9,2038.9z"/>
	<circle class="st12" cx="1757.6" cy="2268" r="18.9"/>
	<path class="st2" d="M1770.9,2254.9c10,9,7,26-6,32c-16,8-34-10-26-27C1744.9,2247.9,1761.9,2244.9,1770.9,2254.9z M1770.9,2254.9
		c-6.6-7.4-18-8-25.4-1.4c-7.4,6.6-8,18-1.4,25.4c3.5,3.9,8.6,6.1,13.8,6C1773.9,2285.9,1781.9,2265.9,1770.9,2254.9z"/>
	<circle class="st12" cx="1720.4" cy="2321.6" r="18.9"/>
	<path class="st2" d="M1733.9,2334.9c-9,10-26,7-32-6c-8-16,9-34,26-26C1740.9,2308.9,1743.9,2325.9,1733.9,2334.9z M1733.9,2334.9
		c6.9-7.2,6.6-18.6-0.6-25.4c-7.2-6.9-18.6-6.6-25.4,0.6c-3.1,3.2-4.8,7.4-5,11.9C1702.9,2337.9,1721.9,2345.9,1733.9,2334.9z"/>
	<circle class="st12" cx="1792.2" cy="2321.6" r="18.9"/>
	<path class="st2" d="M1772.9,2321.9c0.1-11,9.2-19.9,20.3-19.7c11,0.1,19.9,9.2,19.7,20.3c-0.1,8.2-5.3,15.6-13,18.5
		C1786.9,2344.9,1772.9,2334.9,1772.9,2321.9z M1772.9,2321.9c0.3,9.9,8.6,17.7,18.6,17.4c9.9-0.3,17.7-8.6,17.4-18.6
		c-0.1-4.4-1.9-8.7-5-11.9C1792.9,2297.9,1773.9,2304.9,1772.9,2321.9z M1833.9,2231.9c3-47-16-92-44-128c-9-13-20-24-31-35
		c12,10,23,21,34,33c21,24,38,51,47,82c4,16,6,32,7,48H1833.9z"/>
	<path class="st13" d="M1841.9,2224.9c-30.3,19-68.7,19-99,0C1775.9,2212.9,1808.9,2212.9,1841.9,2224.9z"/>
	<path class="st2" d="M1841.9,2224.9l-8,6l-15,7c-16,7-34,8-51,4c-14-3-26-11-38-18l23-8C1781.9,2207.9,1814.9,2209.9,1841.9,2224.9
		z M1841.9,2224.9c-34-12-66-12-99,1v-1c33,19,65,18,98,0H1841.9z"/>
	<path class="st13" d="M1840.9,2223.9c20,32,25,62,0,90C1815.9,2283.9,1815.9,2253.9,1840.9,2223.9z"/>
	<path class="st2" d="M1840.9,2223.9c17,18,28,46,18,71c-4,11-11,19-19,27l-4-5c-15-16.5-21-39.3-16-61c4-13,11-24,20-33
		L1840.9,2223.9z M1840.9,2223.9c-24,30-24,59,0,89h-1c27-28,20-59,0-89H1840.9z"/>
	<path class="st12" d="M1859.9,2185.9c28,31,40,74,34,128c56-6,89-36,94-94C1943.9,2232.9,1900.9,2214.9,1859.9,2185.9z"/>
	<path class="st2" d="M1859.9,2185.9c32,34,40,83,36,129l-2-2c55-6,87-37,92-93l2,2l-8,3C1935.9,2232.9,1893.9,2211.9,1859.9,2185.9
		z M1859.9,2185.9c37,25,82,47,127,33l3-1c-1,13-3,26-8,39c-15,39-51,56-90,59C1897.9,2270.9,1890.9,2221.9,1859.9,2185.9z"/>
	<path class="st14" d="M1875.9,2201.9c23,26,33,62,28,108c48-5,75-30,80-79C1945.9,2241.9,1910.9,2226.9,1875.9,2201.9z"/>
	<path class="st2" d="M1875.9,2201.9c27,28,34,70,30,108l-2-2c47-5,73-30,78-77l2,2l-7,2C1939.9,2241.9,1903.9,2223.9,1875.9,2201.9
		z M1875.9,2201.9c31,21,69,39,107,27h3c-1,11-3,22-7,33c-13,33-43,47-77,50C1906.9,2273.9,1901.9,2231.9,1875.9,2201.9z"/>
	<path class="st15" d="M1888.9,2215.9c20,22,28,52,24,90c40-4,63-25,67-66C1948.9,2248.9,1918.9,2235.9,1888.9,2215.9z"/>
	<path class="st2" d="M1888.9,2215.9c23,23,29,58,26,90l-2-1c39-5,61-26,65-65l2,2l-6,1C1942.9,2248.9,1912.9,2233.9,1888.9,2215.9z
		 M1888.9,2215.9c26,17,59,32,90,22l3-1c-1,10-2,20-6,29c-10,28-36,40-65,42C1914.9,2275.9,1910.9,2240.9,1888.9,2215.9z"/>
	<path class="st16" d="M1899.9,2226.9c17,18,24,44,21,76c33-3,53-21,56-56c-27,8-52-3-76-20H1899.9z"/>
	<path class="st2" d="M1899.9,2226.9c20,20,25,49,23,76l-2-1c21-3,41-13,49-34c3-7,4-14,5-21l2,2
		C1948.9,2256.9,1921.9,2243.9,1899.9,2226.9z M1899.9,2226.9c23,14,50,27,76,19l3-1v2c-2,15-6,30-17,41c-11.9,10.5-27.1,16.5-43,17
		C1921.9,2277.9,1918.9,2247.9,1899.9,2226.9z"/>
	<path class="st12" d="M1646.9,2215.9c31-29,73-40,128-35c-6-56-37-88-94-94c13,45-6,87-35,129H1646.9z"/>
	<path class="st2" d="M1646.9,2215.9c33-33,83-41,128-36l-2,2c-6-56-36-88-92-93l2-2l2,8C1693.9,2138.9,1671.9,2180.9,1646.9,2215.9
		z M1646.9,2215.9c24-37,46-83,32-128l-1-2c14,1,27,3,39,8c39,14,57,50,60,89C1730.9,2177.9,1681.9,2183.9,1646.9,2215.9z"/>
	<path class="st14" d="M1667.9,2193.9c24-22,58-31,101-27c-5-44-29-70-74-74C1704.9,2127.9,1690.9,2160.9,1667.9,2193.9z"/>
	<path class="st2" d="M1667.9,2193.9c26-26,65-32,101-29l-2,2c-5-43-29-68-72-72l2-2l1,7C1704.9,2133.9,1687.9,2166.9,1667.9,2193.9
		z M1667.9,2193.9c19-29,36-65,25-100l-1-2c11,0,22,2,32,6c30,11,44,40,47,71C1734.9,2164.9,1695.9,2168.9,1667.9,2193.9z"/>
	<path class="st15" d="M1684.9,2176.9c19-17,46-24,79-21c-4-35-22-55-58-58C1713.9,2124.9,1702.9,2150.9,1684.9,2176.9z"/>
	<path class="st2" d="M1684.9,2176.9c21-20,51-26,79-23l-2,2c-2-22-12-43-35-51c-6-3-14-4-21-5l2-2
		C1715.9,2125.9,1701.9,2153.9,1684.9,2176.9z M1684.9,2176.9c15-23,28-51,20-78l-1-3h2c16,1,31,6,42,18c12,11,17,28,18,44
		C1737.9,2153.9,1706.9,2157.9,1684.9,2176.9z"/>
	<path class="st16" d="M1698.9,2163.9c15-14,35-20,61-17c-3-27-17-43-45-45c6,21-3,41-17,61L1698.9,2163.9z"/>
	<path class="st2" d="M1698.9,2163.9c15-17,40-21,62-19l-2,2c-2-17-10-33-27-40c-6-2-11-3-17-3l2-3
		C1722.9,2123.9,1711.9,2145.9,1698.9,2163.9z M1698.9,2163.9c12-20,22-42,14-64c12,0,26,4,35,14c10,9,13,22,14,35
		C1739.9,2145.9,1715.9,2148.9,1698.9,2163.9z"/>
	<path class="st11" d="M1682.9,2210.9c32,135-173,121-232,191c-34-142,168-126,231-191H1682.9z"/>
	<path class="st2" d="M1682.9,2210.9c29,86-54,120-120,144c-34,14-79,27-103,54l-15,18c-7-31-15-60-2-91c25-61,109-74,165-91
		c26-8,53-16,74-34H1682.9z M1682.9,2210.9c-51,63-214,63-224,151c-1,12,0,24,3,37l-20-5c10-12,23-20,36-27c37-20,78-29,117-44
		c56-19,98-45,87-112H1682.9z"/>
	<path class="st11" d="M2047.9,933.9c77-70,109-170,97-300l35,46c36,50,28,119-20,159L2047.9,933.9z"/>
	<path class="st2" d="M2047.9,933.9c49-47,80-111,90-178c7-46,6-93,1-139l25,34l14,19l12,17c31.2,52.6,17.8,120.2-31,157
		C2121.9,874.9,2083.9,902.9,2047.9,933.9z M2047.9,933.9c42.3-35.5,83.3-72.5,123-111c35-41,35-101,2-143l-31-43l8-3
		c11,111-13,225-101,300H2047.9z"/>
	<path class="st11" d="M2051.9,930.9c69-63,98-153,87-270l31,42c33,44,26,107-17,142S2051.9,930.9,2051.9,930.9z"/>
	<path class="st2" d="M2051.9,930.9c35-34,60-77,73-125c14-52,14-108,8-162l23,32c7,9,18,23,24,33c28,47.6,15.9,108.6-28,142
		C2118.9,877.9,2083.9,903.9,2051.9,930.9z M2051.9,930.9c33-27,63-57,96-86l14-14c31-37,32-91,2-128l-29-39l9-3
		C2153.9,760.9,2131.9,863.9,2051.9,930.9z"/>
	<path class="st11" d="M2048.9,933.9c61-56,86-136,77-239l27,37c29,39,23,95-15,126S2048.9,933.9,2048.9,933.9z"/>
	<path class="st2" d="M2048.9,933.9c38-38,62-89,70-142c6-38,4-76,0-114l22,29l11,16l11,16c23.7,42,12.6,95.1-26,124
		C2107.9,886.9,2076.9,908.9,2048.9,933.9z M2048.9,933.9c29-24,56-51,84-76l13-13c27-32,28-80,1-113l-25-34l9-3
		C2138.9,783.9,2119.9,874.9,2048.9,933.9z"/>
	<circle class="st12" cx="2277.6" cy="952.9" r="18.9"/>
	<path class="st2" d="M2263.9,939.9c10-10,27-7,33,5c7,17-10,35-27,27C2257.9,965.9,2254.9,948.9,2263.9,939.9z M2263.9,939.9
		c-6.9,7.2-6.6,18.6,0.6,25.4c7.2,6.9,18.6,6.6,25.4-0.6c3.1-3.2,4.8-7.4,5-11.9C2295.9,936.9,2275.9,927.9,2263.9,939.9z"/>
	<circle class="st12" cx="2331.2" cy="990.1" r="18.9"/>
	<path class="st2" d="M2344.9,976.9c9,9,6,26-6,32c-17,8-34-10-26-27C2317.9,969.9,2334.9,966.9,2344.9,976.9z M2344.9,976.9
		c-6.6-7.4-18-8-25.4-1.4c-7.4,6.6-8,18-1.4,25.4c3.3,3.7,7.9,5.8,12.8,6c16,1,25-19,13-30H2344.9z"/>
	<circle class="st12" cx="2331.2" cy="918.3" r="18.9"/>
	<path class="st2" d="M2330.9,936.9c-13,0-23-14-18-26c6-18,31-18,37,0C2354.9,922.9,2344.9,936.9,2330.9,936.9z M2330.9,936.9
		c9.9,0.2,18.2-7.6,18.4-17.6s-7.6-18.2-17.6-18.4c-4.8-0.1-9.4,1.7-12.9,5C2306.9,916.9,2314.9,936.9,2330.9,936.9z M2240.9,876.9
		c-46-3-91,15-127,44c-13,9-24,20-35,31c30.3-36.9,70.1-64.9,115-81c15-4,32-7,48-7L2240.9,876.9z"/>
	<path class="st13" d="M2234.9,868.9c19,33,19,66,0,99C2221.9,934.9,2221.9,901.9,2234.9,868.9z"/>
	<path class="st2" d="M2234.9,868.9l6,8c3,4,5,10,7,15c6,16,7,34,3,50c-3,14-10,27-17,39l-8-23
		C2216.9,927.9,2219.9,894.9,2234.9,868.9z M2234.9,868.9c-12,34-12,66,0,99h-1C2253.9,934.9,2252.9,901.9,2234.9,868.9z"/>
	<path class="st13" d="M2233.9,869.9c31-21,62-26,89,0C2292.9,893.9,2263.9,893.9,2233.9,869.9z"/>
	<path class="st2" d="M2232.9,869.9c19-17,47-28,72-18c10,4,19,11,27,19l-5,4c-18,13-40,22-62,16
		C2252.9,886.9,2241.9,879.9,2232.9,869.9z M2233.9,869.9c30,24,59,24,89,0v1C2294.9,843.9,2263.9,850.9,2233.9,869.9z"/>
	<path class="st12" d="M2195.9,850.9c31-28,74-40,128-34c-6-57-36-89-94-94C2242.9,766.9,2224.9,808.9,2195.9,850.9z"/>
	<path class="st2" d="M2195.9,850.9c33-33,83-41,128-36l-2,2c-5-55-36-87-92-92l2-3l2,9C2242.9,774.9,2220.9,816.9,2195.9,850.9z
		 M2195.9,850.9c25-37,46-83,32-128v-2c13,1,26,3,39,8c38,14,56,50,59,90C2280.9,812.9,2230.9,819.9,2195.9,850.9z"/>
	<path class="st14" d="M2211.9,834.9c26-24,62-33,108-29c-5-47-31-74-79-79C2251.9,763.9,2235.9,799.9,2211.9,834.9z"/>
	<path class="st2" d="M2211.9,834.9c28-28,70-34,108-31l-2,2c-5-46-31-73-77-77l1-2l2,7C2251.9,770.9,2232.9,805.9,2211.9,834.9z
		 M2211.9,834.9c20-31,39-69,27-107l-1-3c11,1,23,3,33,7c33,12,48,43,51,76C2282.9,803.9,2241.9,808.9,2211.9,834.9z"/>
	<path class="st15" d="M2224.9,821.9c22-20,52-29,91-25c-4-40-26-62-67-66C2258.9,761.9,2245.9,791.9,2224.9,821.9z"/>
	<path class="st2" d="M2224.9,821.9c24-24,59-30,91-26l-2,2c-4-39-25-62-65-65l2-3l2,7C2258.9,767.9,2242.9,797.9,2224.9,821.9z
		 M2224.9,821.9c17-27,33-59,23-91l-1-2c10,1,19,2,28,6c28,10,41,36,43,64C2285.9,794.9,2249.9,798.9,2224.9,821.9z"/>
	<path class="st16" d="M2236.9,809.9c18-17,44-24,76-20c-4-34-22-53-56-56c8,26-3,51-21,76H2236.9z"/>
	<path class="st2" d="M2236.9,809.9c19-20,49-25,76-22l-2,2c-2-22-12-41-34-49c-6-3-13-4-20-5l2-3
		C2266.9,760.9,2252.9,788.9,2236.9,809.9z M2236.9,809.9c14-22,27-49,18-76l-1-2h3c15,1,30,6,41,17s15,27,17,43c-28-4-57,0-79,18
		H2236.9z"/>
	<path class="st12" d="M2224.9,1063.9c-28-31-40-74-34-128c-56,6-89,36-94,94C2140.9,1016.9,2183.9,1034.9,2224.9,1063.9z"/>
	<path class="st2" d="M2224.9,1063.9c-32-33-40-83-36-128l2,2c-55,6-87,36-92,92l-2-2l8-2
		C2148.9,1016.9,2190.9,1038.9,2224.9,1063.9z M2224.9,1063.9c-37-24-82-46-127-32h-3c1-13,3-26,8-38c15-39,51-57,90-60
		C2186.9,978.9,2193.9,1028.9,2224.9,1063.9z"/>
	<path class="st14" d="M2203.9,1042.9c-23-25-32-58-27-101c-45,5-70,28-74,74C2137.9,1005.9,2170.9,1019.9,2203.9,1042.9z"/>
	<path class="st2" d="M2203.9,1042.9c-26-27-33-66-29-101l2,2c-43,4-68,28-72,72l-2-2l6-2c35-7,68,10,95,30V1042.9z M2203.9,1042.9
		c-29-20-65-37-100-26l-3,1c1-10,3-21,6-31c12-31,41-45,72-47c-5,36,0,75,25,102V1042.9z"/>
	<path class="st15" d="M2186.9,1025.9c-18-20-25-46-22-79c-34,3-54,22-57,57c27-8,53,4,79,21V1025.9z"/>
	<path class="st2" d="M2186.9,1025.9c-21-21-26-52-23-79l2,1c-23,3-43,13-52,35c-2,7-4,14-4,21l-3-1c29-9,57,5,80,22V1025.9z
		 M2186.9,1025.9c-23-15-51-28-79-20l-2,1v-3c1-15,6-31,17-42c12-11,28-16,44-17c-3,28,0,58,19,80L2186.9,1025.9z"/>
	<path class="st16" d="M2172.9,1011.9c-13-15-19-35-16-62c-27,3-43,18-46,46C2132.9,989.9,2152.9,997.9,2172.9,1011.9z"/>
	<path class="st2" d="M2172.9,1011.9c-16-16-20-40-18-62l2,2c-17,2-33,10-40,27l-4,17l-2-2C2132.9,986.9,2155.9,998.9,2172.9,1011.9
		z M2172.9,1011.9c-19-12-41-22-63-14c0-13,4-26,13-36c10-9,23-13,36-14C2155.9,970.9,2157.9,994.9,2172.9,1011.9z"/>
	<path class="st11" d="M2220.9,1027.9c134-33,120,173,190,232C2268.9,1292.9,2285.9,1091.9,2220.9,1027.9z"/>
	<path class="st2" d="M2220.9,1027.9c86-29,120,54,144,120c13,34,26,79,54,103l17,15c-31,7-59,15-90,2c-61-25-74-109-92-165
		C2246.9,1076.9,2237.9,1049.9,2220.9,1027.9z M2220.9,1027.9c62,51,62,214,150,223c12,2,25,0,37-3l-4,20c-12-10-21-22-28-35
		c-19-37-29-78-43-117C2312.9,1059.9,2286.9,1017.9,2220.9,1027.9z"/>
	<path class="st11" d="M2047.9,1766.9c77,70,109,170,97,300l35-46c36-50,28-119-20-159L2047.9,1766.9z"/>
	<path class="st2" d="M2047.9,1766.9c89,75,113,189,102,300l-9-3l32-43c37.3-47.2,31.2-115.3-14-155
		C2121.1,1833.8,2084.1,1800.8,2047.9,1766.9z M2047.9,1766.9c36,31,74,59,111,90c48.8,36.8,62.2,104.4,31,157l-12,17l-14,20l-25,33
		c5-46,6-93-1-139C2127.9,1877.9,2096.9,1813.9,2047.9,1766.9z"/>
	<path class="st11" d="M2051.9,1769.9c69,63,98,153,87,270l31-42c33-45,26-107-17-143L2051.9,1769.9z"/>
	<path class="st2" d="M2051.9,1769.9c80,67,102,170,92,270l-9-3l29-39c34.5-43.8,27-107.3-16.8-141.8c-0.1-0.1-0.1-0.1-0.2-0.2
		C2114.9,1826.9,2084.9,1796.9,2051.9,1769.9z M2051.9,1769.9c32,27,67,53,100,80c43.9,33.4,56,94.4,28,142c-6,10-17,24-24,33
		l-23,32c6-54,6-110-9-162C2111.9,1846.9,2086.9,1803.9,2051.9,1769.9z"/>
	<path class="st11" d="M2048.9,1766.9c61,56,86,136,77,239l27-37c29-39,23-95-15-126S2048.9,1766.9,2048.9,1766.9z"/>
	<path class="st2" d="M2048.9,1766.9c71,59,90,150,82,239l-9-3l25-34c31-38.2,25.2-94.2-13-125.2c-0.3-0.3-0.7-0.5-1-0.8
		L2048.9,1766.9z M2048.9,1766.9c28,25,59,47,88,71c38.6,28.9,49.7,82,26,124l-11,16l-11,16l-22,29c4-38,6-76,0-114
		c-8-53-32-104-71-142H2048.9z"/>
	<circle class="st12" cx="2277.6" cy="1748" r="18.9"/>
	<path class="st2" d="M2263.9,1761.9c7.2,6.8,18.6,6.5,25.4-0.7c6.8-7.2,6.5-18.6-0.7-25.4c-2.9-2.8-6.7-4.5-10.7-4.9
		C2261.9,1730.9,2252.9,1749.9,2263.9,1761.9z M2263.9,1761.9c-9-10-6-27,6-33c17-7,34,10,27,27
		C2290.9,1767.9,2273.9,1770.9,2263.9,1761.9z"/>
	<circle class="st12" cx="2331.2" cy="1710.8" r="18.9"/>
	<path class="st2" d="M2344.9,1723.9c6.9-7.2,6.6-18.6-0.6-25.4c-7.2-6.9-18.6-6.6-25.4,0.6c-3.1,3.2-4.8,7.4-5,11.9
		C2313.9,1726.9,2332.9,1735.9,2344.9,1723.9z M2344.9,1723.9c-10,10-27,7-33-5c-7-17,10-35,27-27
		C2350.9,1697.9,2353.9,1714.9,2344.9,1723.9z"/>
	<circle class="st12" cx="2331.2" cy="1782.6" r="18.9"/>
	<path class="st2" d="M2330.9,1763.9c-9.9,0.3-17.7,8.6-17.4,18.6c0.3,9.9,8.6,17.7,18.6,17.4c4.4-0.1,8.7-1.9,11.9-5
		C2354.9,1783.9,2347.9,1763.9,2330.9,1763.9z M2330.9,1763.9c14,0,24,14,19,26c-6,18-31,18-37,0
		C2307.9,1777.9,2317.9,1763.9,2330.9,1763.9z M2241.9,1836.9c-66,1-123-39-164-87l36,31c36,28,81,46,127,43L2241.9,1836.9z"/>
	<path class="st13" d="M2234.9,1831.9c19-33,19-66,0-99C2221.9,1765.9,2221.9,1798.9,2234.9,1831.9z"/>
	<path class="st2" d="M2234.9,1831.9l3-9l5-18c5-24-1-48-13-69l10-1l-2,6c-9,25-11,52-6,79l2,6L2234.9,1831.9z M2234.9,1832.9
		c-13-32-13-68-1-100l1-2v2c19,32,20,67,0,99V1832.9z"/>
	<path class="st13" d="M2233.9,1830.9c31,21,62,26,89,0C2292.9,1806.9,2263.9,1806.9,2233.9,1830.9z"/>
	<path class="st2" d="M2233.9,1830.9l11,5c27,11,52,12,75-9v8c-19-16-41-23-64-15L2233.9,1830.9z M2232.9,1830.9c30-25,61-25,91-1v1
		C2294.9,1857.9,2262.9,1850.9,2232.9,1830.9z"/>
	<path class="st12" d="M2195.9,1849.9c31,29,74,40,128,34c-6,57-36,89-94,94C2242.9,1933.9,2224.9,1891.9,2195.9,1849.9z"/>
	<path class="st2" d="M2195.9,1849.9c35,31,85,38,130,32c-3,40-21,76-59,90c-13,5-26,7-39,8v-2
		C2241.9,1932.9,2219.9,1886.9,2195.9,1849.9z M2195.9,1849.9c25,34,47,77,38,120l-2,9l-2-3c56-4,86-37,92-92l2,2
		C2278.9,1890.9,2228.9,1882.9,2195.9,1849.9z"/>
	<path class="st14" d="M2211.9,1865.9c26,24,62,34,108,29c-5,47-31,75-79,79C2251.9,1936.9,2235.9,1900.9,2211.9,1865.9z"/>
	<path class="st2" d="M2211.9,1865.9c30,26,71,32,110,27c-3,33-18,64-51,76c-10,4-22,6-33,7l1-3
		C2250.9,1935.9,2231.9,1896.9,2211.9,1865.9z M2211.9,1865.9c21,29,40,64,32,101l-2,7l-1-2c46-4,72-31,77-77l2,2
		C2281.9,1900.9,2239.9,1893.9,2211.9,1865.9z"/>
	<path class="st15" d="M2224.9,1879.9c22,20,52,28,91,24c-4,40-26,63-67,66C2258.9,1938.9,2245.9,1908.9,2224.9,1879.9z"/>
	<path class="st2" d="M2224.9,1879.9c25,22,61,26,93,22c-2,28-15,54-43,64c-9,4-18,5-28,6l1-2c10-32-6-64-23-91V1879.9z
		 M2224.9,1879.9c18,24,34,54,28,85l-2,6l-2-3c39-3,61-26,65-64l2,2C2283.9,1908.9,2248.9,1902.9,2224.9,1879.9z"/>
	<path class="st16" d="M2236.9,1890.9c18,17,44,24,76,20c-4,34-22,53-56,56c8-26-3-51-21-76H2236.9z"/>
	<path class="st2" d="M2236.9,1890.9c21,18,51,22,78,18c-2,24-12,46-36,55c-8,3-16,4-25,5l1-2
		C2263.9,1939.9,2250.9,1912.9,2236.9,1890.9z M2236.9,1890.9c16,22,30,49,22,77l-2-3c7,0,14-2,20-5c22-8,32-27,34-49l2,2
		c-27,3-57-2-77-22H2236.9z"/>
	<path class="st12" d="M2224.9,1636.9c-28,31-40,74-34,128c-56-6-89-36-94-94C2140.9,1683.9,2183.9,1665.9,2224.9,1636.9z"/>
	<path class="st2" d="M2224.9,1636.9c-31,35-37,85-32,130c-39-3-75-21-90-59c-5-13-7-26-8-39h3
		C2142.9,1682.9,2187.9,1660.9,2224.9,1636.9z M2224.9,1636.9c-34,25-76,47-120,38l-8-2l2-2c5,56,37,86,92,92l-2,2
		C2184.9,1719.9,2192.9,1669.9,2224.9,1636.9z"/>
	<path class="st14" d="M2203.9,1658.9c-23,24-32,57-27,100c-45-5-70-28-74-74C2137.9,1695.9,2170.9,1680.9,2203.9,1658.9z"/>
	<path class="st2" d="M2203.9,1658.9c-25,27-30,66-25,102c-32-2-60-16-72-47c-3-10-5-20-6-31l3,1
		C2138.9,1694.9,2174.9,1677.9,2203.9,1658.9z M2203.9,1658.9c-27,19-60,37-95,30l-7-2l3-2c4,44,29,68,72,72l-2,2
		C2170.9,1723.9,2177.9,1684.9,2203.9,1658.9z"/>
	<path class="st15" d="M2186.9,1675.9c-18,19-25,45-22,78c-34-3-54-22-57-57C2134.9,1704.9,2160.9,1692.9,2186.9,1675.9z"/>
	<path class="st2" d="M2186.9,1675.9c-20,22-23,52-20,80c-24-2-47-12-56-37c-3-8-5-16-5-25l2,1
		C2135.9,1703.9,2163.9,1689.9,2186.9,1675.9z M2186.9,1675.9c-23,17-51,31-80,22l2-2l5,22c9,22,29,32,52,35l-2,1c-3-27,2-58,22-79
		h1V1675.9z"/>
	<path class="st16" d="M2172.9,1688.9c-14,17.4-19.8,40-16,62c-27-3-43-18-46-46C2132.9,1711.9,2152.9,1702.9,2172.9,1688.9z"/>
	<path class="st2" d="M2172.9,1688.9c-15,18-17,42-14,64c-13-1-26-5-36-14c-9-10-13-23-14-36
		C2131.9,1710.9,2153.9,1700.9,2172.9,1688.9z M2172.9,1688.9c-17,14-39,25-62,18l2-2l4,17c7,17,23,25,40,27l-2,2
		C2152.9,1728.9,2156.9,1704.9,2172.9,1688.9z"/>
	<path class="st11" d="M2220.9,1672.9c134,33,120-173,190-231C2268.9,1407.9,2285.9,1608.9,2220.9,1672.9z"/>
	<path class="st2" d="M2220.9,1672.9c76,12,98-46,119-107c8-26,16-53,27-78c6-13,12-26,21-38l16-17l4,20c-12-3-25-5-37-3
		C2282.9,1458.9,2282.9,1621.9,2220.9,1672.9z M2220.9,1672.9c17-21,25-48,33-74c17-56,31-141,92-166c31-13,59-5,90,3l-18,14
		c-8,8-16,18-22,29c-13,23-22,49-31,74C2340.9,1619.9,2306.9,1701.9,2220.9,1672.9z"/>
	<path class="st11" d="M643.9,942.9c-77-71-109-171-97-300l-34,46c-37,50-29,119,19,158S643.9,942.9,643.9,942.9z"/>
	<path class="st2" d="M643.9,942.9c-89-75-113-189-102-300l9,3l-32,43c-37.3,47.2-31.2,115.3,14,155
		C570.6,876,607.6,909,643.9,942.9z M643.9,942.9c-36-31-74-60-111-90c-48.8-36.8-62.2-104.4-31-157l12-18l15-19l24-33
		c-5,46-6,93,1,139C563.9,831.9,594.9,894.9,643.9,942.9z"/>
	<path class="st11" d="M639.9,939.9c-69-63-98-153-87-270l-31,42c-33,44-25,107,17,142L639.9,939.9z"/>
	<path class="st2" d="M639.9,939.9c-80-67-101-170-92-270l9,3l-29,39c-34.5,43.8-27,107.3,16.8,141.8c0.1,0.1,0.1,0.1,0.2,0.2
		C576.9,882.9,607.9,912.9,639.9,939.9z M639.9,939.9c-32-27-67-53-100-80c-43.9-33.4-56-94.4-28-142l24-34l23-31c-5,54-6,110,9,162
		C579.9,861.9,605.9,905.9,639.9,939.9z"/>
	<path class="st11" d="M643.9,942.9c-62-56-87-136-78-239l-27,37c-29.4,39.3-22.8,94.7,15,126l89,76H643.9z"/>
	<path class="st2" d="M643.9,942.9c-72-60-91-151-83-240l9,4l-25,34c-30.6,38.4-24.4,94.3,14,125
		C586.9,891.9,613.9,917.9,643.9,942.9z M643.9,942.9c-29-25-60-47-89-71c-10-8-19-18-26-30c-16.4-29.2-16.4-64.8,0-94l11-17l11-15
		l22-29c-4,38-6,76,0,114C580.9,853.9,604.9,904.9,643.9,942.9z"/>
	<circle class="st12" cx="414.2" cy="961.7" r="18.9"/>
	<path class="st2" d="M427.9,947.9c-7.2-6.8-18.6-6.5-25.4,0.7c-6.8,7.2-6.5,18.6,0.7,25.4c2.9,2.8,6.7,4.5,10.7,4.9
		C430.9,978.9,438.9,959.9,427.9,947.9z M427.9,947.9c9,10,6,27-6,32c-17,8-34-9-26-26C400.9,941.9,417.9,938.9,427.9,947.9z"/>
	<circle class="st12" cx="360.7" cy="998.8" r="18.9"/>
	<path class="st2" d="M346.9,985.9c-6.9,7.2-6.6,18.6,0.6,25.4c7.2,6.9,18.6,6.6,25.4-0.6c3.1-3.2,4.8-7.4,5-11.9
		C377.9,982.9,358.9,973.9,346.9,985.9z M346.9,985.9c10-10,27-7,33,5c7,17-10,35-27,27C340.9,1011.9,337.9,994.9,346.9,985.9z"/>
	<circle class="st12" cx="360.7" cy="927.1" r="18.9"/>
	<path class="st2" d="M360.9,945.9c9.9,0.2,18.2-7.6,18.4-17.6c0.2-9.9-7.6-18.2-17.6-18.4c-4.8-0.1-9.4,1.7-12.9,5
		C336.9,925.9,343.9,945.9,360.9,945.9z M360.9,945.9c-14,0-24-14-19-26c6-18,31-18,38,0C383.9,931.9,373.9,945.9,360.9,945.9z
		 M449.9,872.9c66-1,123,39,164,87l-35-31c-37-28-82-47-128-43L449.9,872.9z"/>
	<path class="st13" d="M456.9,877.9c-19,30.3-19,68.7,0,99c13-33,13-66,0-100V877.9z"/>
	<path class="st2" d="M456.9,877.9l-3,9l-5,18c-5,24,1,48,13,69l-10,1l2-6c9-26,11-52,6-79l-2-6L456.9,877.9z M456.9,876.9
		c13,32,13,68,1,100l-1,1v-1C437.4,946.4,437.4,907.4,456.9,876.9z"/>
	<path class="st13" d="M458.9,878.9c-32-21-63-26-90,0C398.9,902.9,428.9,902.9,458.9,878.9z"/>
	<path class="st2" d="M457.9,878.9l-11-5c-27-11-52-13-75,9v-8c19,15,41,23,64,14C443.9,886.9,450.9,882.9,457.9,878.9z
		 M458.9,878.9c-30,25-61,25-91,1v-1C396.9,851.9,428.9,858.9,458.9,878.9z"/>
	<path class="st12" d="M495.9,859.9c-31-29-74-40-128-35c6-56,36-88,94-94C448.9,775.9,466.9,817.9,495.9,859.9z"/>
	<path class="st2" d="M495.9,859.9c-35-32-85-38-130-33c3-39,21-75,59-89c13-5,26-7,39-8v2C449.9,776.9,471.9,822.9,495.9,859.9z
		 M495.9,859.9c-25-35-47-77-38-120l2-9l2,2c-56,5-86,37-92,93l-2-2C412.9,818.9,462.9,826.9,495.9,859.9z"/>
	<path class="st14" d="M479.9,843.9c-26-24-62-34-108-29c5-48,31-75,79-79C440.9,772.9,455.9,808.9,479.9,843.9z"/>
	<path class="st2" d="M479.9,843.9c-30-27-71-32-109-27c2-33,17-64,50-76c10-4,22-6,33-7l-1,2C440.9,773.9,459.9,812.9,479.9,843.9z
		 M479.9,843.9c-21-29-39-65-32-101l2-8l2,3c-47,4-73,31-78,77l-2-2C409.9,808.9,451.9,815.9,479.9,843.9z"/>
	<path class="st15" d="M466.9,829.9c-22-20-52-28-91-24c4-40,26-63,67-66C432.9,770.9,445.9,800.9,466.9,829.9z"/>
	<path class="st2" d="M466.9,829.9c-25-22-60-26-93-22c2-28,15-54,43-64c9-4,18-6,28-6l-1,2C433.9,771.9,449.9,803.9,466.9,829.9z
		 M466.9,829.9c-18-24-34-54-28-85l2-6l2,2c-39,4-61,26-65,65l-2-2C407.9,800.9,442.9,806.9,466.9,829.9z"/>
	<path class="st16" d="M455.9,818.9c-19-17-44-24-77-20c4-34,22-53,56-56C426.9,768.9,437.9,793.9,455.9,818.9z"/>
	<path class="st2" d="M455.9,818.9c-22-18-51-22-79-18c2-24,12-46,36-55c8-3,16-5,25-5l-1,2C428.9,769.9,440.9,796.9,455.9,818.9z
		 M455.9,818.9c-17-22-31-49-23-77l2,3c-7,0-14,2-20,4c-22,8-31,28-34,50l-2-2C405.9,793.9,435.9,798.9,455.9,818.9z"/>
	<path class="st12" d="M466.9,1072.9c28-31,40-74,34-128c56,6,89,36,94,94C550.9,1025.9,507.9,1043.9,466.9,1072.9z"/>
	<path class="st2" d="M466.9,1072.9c31-35,37-85,32-130c39,3,75,20,90,59c5,13,7,26,8,39l-3-1
		C548.9,1025.9,503.9,1047.9,466.9,1072.9z M466.9,1072.9c34-25,76-47,120-38l8,2l-2,2c-5-56-37-86-92-92l2-2
		C506.9,989.9,498.9,1039.9,466.9,1072.9z"/>
	<path class="st14" d="M487.9,1050.9c23-24,32-58,27-100c45,4,70,28,74,73C553.9,1013.9,520.9,1028.9,487.9,1050.9z"/>
	<path class="st2" d="M487.9,1050.9c25-28,30-67,25-102c32,2,60,16,72,47c3,10,5,20,6,31l-3-1
		C552.9,1014.9,516.9,1031.9,487.9,1050.9z M487.9,1050.9c27-20,60-37,95-30l7,2l-3,2c-4-44-29-68-72-72l2-2
		C520.9,985.9,513.9,1024.9,487.9,1050.9h1H487.9z"/>
	<path class="st15" d="M505.9,1033.9c17-19,24-45,21-79c34,4,54,23,57,58c-27-8-53,3-79,21H505.9z"/>
	<path class="st2" d="M505.9,1033.9c19-22,22-52,19-81c24,2,47,13,56,38c3,8,5,16,5,25l-2-1c-28-9-56,5-79,19H505.9z M505.9,1033.9
		c22-17,50-31,79-23l-2,2l-5-21c-9-22-29-32-52-35l3-2C530.9,982.9,525.9,1013.9,505.9,1033.9z"/>
	<path class="st16" d="M518.9,1020.9c14-15,19-36,16-62c28,3,43,18,46,46C558.9,997.9,538.9,1006.9,518.9,1020.9z"/>
	<path class="st2" d="M518.9,1020.9c15-18,17-42,14-64c13,1,26,5,36,14c9,10,13,23,14,36C559.9,998.9,537.9,1008.9,518.9,1020.9z
		 M518.9,1020.9c17-14,40-25,62-18l-2,2l-4-17c-7-17-22-25-40-27l2-2C538.9,980.9,534.9,1004.9,518.9,1020.9z"/>
	<path class="st11" d="M470.9,1036.9c-134-33-120,173-190,231C422.9,1301.9,405.9,1100.9,470.9,1036.9z"/>
	<path class="st2" d="M470.9,1036.9c-76-12-98,46-118,107c-9,26-17,53-28,78c-6,13-12,26-21,38c-4,6-10,12-16,17l-4-20
		c12,3,25,5,37,3C408.9,1250.9,408.9,1087.9,470.9,1036.9z M470.9,1036.9c-17,21-25,48-33,74c-17,56-31,141-92,166c-31,13-59,5-90-3
		l18-14c9-8,16-18,22-29c13-24,22-49,31-75C350.9,1089.9,384.9,1007.9,470.9,1036.9z"/>
	<path class="st11" d="M643.9,1775.9c-77,70-109,170-97,300l-34-47c-37-49-29-118,19-158L643.9,1775.9z"/>
	<path class="st2" d="M643.9,1775.9c-49,47-80,111-90,178c-7,46-6,93-1,139l-25-34l-14-19l-12-17c-31.2-52.6-17.8-120.2,31-157
		C569.9,1834.9,607.9,1806.9,643.9,1775.9z M643.9,1775.9c-42.3,35.5-83.3,72.5-123,111c-35,41-35,101-2,142l32,44l-9,3
		C530.9,1964.9,554.9,1850.9,643.9,1775.9z"/>
	<path class="st11" d="M639.9,1777.9c-69,64-98,154-87,271l-31-42c-33-45-25-107,17-143L639.9,1777.9z"/>
	<path class="st2" d="M639.9,1777.9c-34,35-60,78-72,125c-15,53-14,109-9,163l-23-32l-24-33c-28-47.6-15.9-108.6,28-142
		C572.9,1831.9,607.9,1805.9,639.9,1777.9z M639.9,1777.9c-33,28-63,58-95,86l-15,15c-31,37-32,90-2,128l29,39l-9,3
		C537.9,1947.9,559.9,1845.9,639.9,1777.9z"/>
	<path class="st11" d="M643.9,1775.9c-62,56-87,136-78,239l-27-37c-29.4-39.3-22.8-94.7,15-126l89-76H643.9z"/>
	<path class="st2" d="M643.9,1775.9c-39,38-63,89-71,142c-6,38-4,76,0,114l-22-30l-11-15l-11-16c-23.7-42-12.6-95.1,26-124
		c29-24,60-47,88-71H643.9z M643.9,1775.9c-30,24-57,51-85,76l-13,13c-27.3,32.6-27.7,79.9-1,113l25,34l-9,3c-8-89,11-180,82-239
		H643.9z"/>
	<circle class="st12" cx="414.2" cy="1756.8" r="18.9"/>
	<path class="st2" d="M427.9,1769.9c-10,10-27,7-32-5c-8-17,9-35,26-27C433.9,1743.9,436.9,1760.9,427.9,1769.9z M427.9,1769.9
		c6.9-7.2,6.6-18.6-0.6-25.4c-7.2-6.9-18.6-6.6-25.4,0.6c-3.1,3.2-4.8,7.4-5,11.9C396.9,1772.9,415.9,1781.9,427.9,1769.9z"/>
	<circle class="st12" cx="360.7" cy="1719.6" r="18.9"/>
	<path class="st2" d="M346.9,1732.9c-9-9-6-26,6-32c17-8,34,10,27,27C373.9,1739.9,356.9,1742.9,346.9,1732.9z M346.9,1732.9
		c6.6,7.4,18,8,25.4,1.4c7.4-6.6,8-18,1.4-25.4c-3.3-3.7-7.9-5.8-12.8-6c-16-1-25,18-13,30H346.9z"/>
	<circle class="st12" cx="360.7" cy="1791.3" r="18.9"/>
	<path class="st2" d="M360.9,1772.9c13-1,23,13,18,26c-6,18-30,18-37,0C336.9,1785.9,346.9,1771.9,360.9,1772.9z M360.9,1772.9
		c-9.9-0.2-18.2,7.6-18.4,17.6c-0.2,9.9,7.6,18.2,17.6,18.4c4.8,0.1,9.4-1.7,12.9-5C384.9,1792.9,376.9,1772.9,360.9,1772.9z
		 M450.9,1832.9c46,3,91-15,128-44c12-9,24-20,35-31l-33,34c-24,21-52,38-83,47c-15,4-31,7-48,7L450.9,1832.9z"/>
	<path class="st13" d="M456.9,1840.9c-19-30.3-19-68.7,0-99C469.9,1774.9,469.9,1807.9,456.9,1840.9z"/>
	<path class="st2" d="M456.9,1840.9l-6-8l-7-15c-6-16-7-34-3-50c3-14,10-27,17-39l8,23C474.9,1781.9,471.9,1813.9,456.9,1840.9z
		 M456.9,1840.9c12-34,13-66,0-99h1C438.5,1772,438.1,1810.4,456.9,1840.9z"/>
	<path class="st13" d="M458.9,1839.9c-32,20-63,25-90,0C398.9,1814.9,428.9,1814.9,458.9,1839.9z"/>
	<path class="st2" d="M458.9,1839.9c-19,17-47,28-72,18c-10-4-19-11-27-19l5-4c18-13,40-22,62-16
		C438.9,1822.9,449.9,1829.9,458.9,1839.9z M457.9,1839.9c-30-24-59-24-89,0v-1C396.9,1865.9,427.9,1858.9,457.9,1839.9z"/>
	<path class="st12" d="M495.9,1858.9c-31,28-74,40-128,34c6,57,36,89,94,94C448.9,1942.9,466.9,1900.9,495.9,1858.9z"/>
	<path class="st2" d="M495.9,1858.9c-33,33-83,41-128,36l2-2c5,55,36,87,92,92l-2,3l-2-9C448.9,1934.9,470.9,1892.9,495.9,1858.9z
		 M495.9,1858.9c-25,37-46,83-32,128v2c-13-1-26-3-39-8c-38-14-56-50-59-90C410.9,1896.9,460.9,1889.9,495.9,1858.9z"/>
	<path class="st14" d="M479.9,1874.9c-26,24-62,33-108,29c5,47,31,74,79,79C440.9,1945.9,455.9,1909.9,479.9,1874.9z"/>
	<path class="st2" d="M479.9,1874.9c-28,27-70,34-108,30l2-1c5,46,31,73,78,77l-2,2l-2-7C440.9,1938.9,458.9,1903.9,479.9,1874.9z
		 M479.9,1874.9c-20,31-39,69-27,107l1,3c-11-1-23-3-33-7c-33-13-48-43-50-76C408.9,1905.9,450.9,1900.9,479.9,1874.9z"/>
	<path class="st15" d="M466.9,1887.9c-22,20-52,28-91,25c4,39,26,62,67,66C432.9,1947.9,445.9,1917.9,466.9,1887.9z"/>
	<path class="st2" d="M466.9,1887.9c-24,24-59,30-91,26l2-2c4,39,26,62,65,65l-2,2l-2-6C432.9,1941.9,448.9,1911.9,466.9,1887.9z
		 M466.9,1887.9c-17,26-33,59-23,90l1,3c-9-1-19-2-28-6c-28-10-41-36-43-64C406.9,1914.9,441.9,1909.9,466.9,1887.9z"/>
	<path class="st16" d="M455.9,1899.9c-19,16-44,23-77,20c4,34,22,53,56,56C426.9,1949.9,437.9,1923.9,455.9,1899.9z"/>
	<path class="st2" d="M455.9,1899.9c-21.3,18.1-49.4,26.1-77,22l2-2c2,22,12,41,34,49c6,3,13,4,20,5l-2,2c-8-28,6-55,22-77
		L455.9,1899.9z M455.9,1899.9c-15,22-28,49-19,75l1,3h-3c-15-2-30-6-41-17c-10.5-11.9-16.5-27.1-17-43c28,3,57,0,79-19V1899.9z"/>
	<path class="st12" d="M466.9,1645.9c28,31,40,73,34,128c56-6,89-36,94-94c-44,13-87-6-128-35V1645.9z"/>
	<path class="st2" d="M466.9,1645.9c32,33,40,83,36,128l-2-2c55-6,87-36,92-92l2,2l-8,2C542.9,1692.9,500.9,1670.9,466.9,1645.9z
		 M466.9,1645.9c37,24,82,46,127,32l3-1c-1,14-3,27-8,39c-15,39-51,57-90,60C504.9,1729.9,497.9,1680.9,466.9,1645.9z"/>
	<path class="st14" d="M487.9,1666.9c23,25,32,58,27,101c45-5,70-29,74-74C553.9,1703.9,520.9,1689.9,487.9,1666.9z"/>
	<path class="st2" d="M487.9,1666.9c26,26,33,66,29,101l-2-2c43-5,68-28,72-72l2,2l-6,2C547.9,1703.9,514.9,1686.9,487.9,1666.9z
		 M487.9,1666.9c29,19,65,36,100,25h3c-1,10-3,21-6,31c-12,31-40,44-72,47C517.9,1733.9,512.9,1694.9,487.9,1666.9z"/>
	<path class="st15" d="M505.9,1683.9c17,19,24,46,21,79c34-3,54-22,57-57c-27,8-53-4-79-22H505.9z"/>
	<path class="st2" d="M505.9,1683.9c20,21,25,51,22,79l-2-2c23-2,43-12,52-34c2-7,4-14,4-22l3,2c-29,9-57-6-80-23H505.9z
		 M505.9,1683.9c22,15,50,28,78,20l2-1v3c-1,15-6,30-17,42c-12.3,10.6-27.8,16.6-44,17C527.9,1736.9,524.9,1705.9,505.9,1683.9z"/>
	<path class="st16" d="M518.9,1697.9c14,15,19,35,16,62c28-3,43-18,46-46C558.9,1719.9,538.9,1711.9,518.9,1697.9z"/>
	<path class="st2" d="M518.9,1697.9c16,16,20,40,18,62l-2-2c18-2,33-10,40-27l4-17l2,2C558.9,1722.9,535.9,1710.9,518.9,1697.9z
		 M518.9,1697.9c19,12,41,22,64,14c-1,13-5,26-14,36c-10,9-23,12-36,13C535.9,1738.9,533.9,1714.9,518.9,1697.9z"/>
	<path class="st11" d="M470.9,1681.9c-134,33-120-173-190-232C422.9,1415.9,405.9,1617.9,470.9,1681.9z"/>
	<path class="st2" d="M470.9,1681.9c-86,29-120-54-144-120c-13-34-26-79-53-103l-18-15c31-7,59-15,90-2c61,25,75,109,92,165
		C445.9,1632.9,453.9,1659.9,470.9,1681.9z M470.9,1681.9c-62-51-62-214-150-223c-12-2-25,0-37,3l4-20c12,10,21,22,28,35
		c19,37,29,78,43,117C378.9,1649.9,404.9,1691.9,470.9,1681.9z"/>
	<path class="st17" d="M853.9-0.1c38,114,20,163-7,194s-5,107,50,105s40,1,59,5c11-15,26-29,42-41c28.4-20.1,35.2-59.4,15.1-87.8
		c-9.1-12.9-22.7-21.8-38.1-25.2C934.9,140.9,891.9,111.9,853.9-0.1z"/>
	<path class="st2" d="M853.9-0.1c22,48,41,108,26,161c-4,15-12,30-23,42c-17,21-13.7,51.9,7.3,68.9c2.4,1.9,5,3.6,7.7,5.1
		c7,3,14,5,21,5h5c21-1,41,1,62,5l-18,6c13-17,29-31,46-43l10-9l4-6v-1l1-1c12.1-24.2,2.4-53.6-21.8-65.8c-2.6-1.3-5.4-2.4-8.2-3.2
		c-16-4-31-11-44-21C885.9,108.9,865.9,50.9,853.9-0.1z M853.9-0.1c23,48,52,110,103,131l22,6c21,4,40,17,50,35c11,18,15,41,10,61
		c-5,19-16,34-32,45c-17,13-31,28-44,45l-10-2c-19-4-38-5-57-5l-20-2c-42.2-11-67.6-54.1-56.6-96.3c3-11.7,8.7-22.5,16.6-31.7l8-8
		C881.9,129.9,864.9,54.9,853.9-0.1z"/>
	<path class="st18" d="M890.9,111.9c24,72,13,103-4,123c-23,26-4,67,31,66c13-1,25,0,38,3c7-10,16-18,26-26c28-20,19-64-14-71
		S914.9,181.9,890.9,111.9z"/>
	<path class="st2" d="M890.9,111.9c15,31,28,71,16,106l-9,18l-4,5c-9.5,13.6-6.3,32.3,7.3,41.8c2.7,1.9,5.6,3.3,8.7,4.2c3,1,5,2,8,1
		c13,0,27,1,40,3l-12,5c9-11,19-21,31-29c18-15,11-44-11-51c-6-1-11-3-17-6c-6-4-13-8-18-13c-23-22-34-55-40-86V111.9z M890.9,111.9
		c14,27,31,64,60,79l16,5l4,1c27.5,6.2,44.7,33.6,38.4,61c-2.6,11.5-9.1,21.7-18.4,29c-10,7-19,15-25,24l-5,7c-12-3-25-5-37-5h-9
		c-30-1-53-29-49-58c2-10,6-19,13-26l2-3c6-6,10-13,13-21c4-12,5-25,5-38C897.9,148.9,894.9,129.9,890.9,111.9z"/>
	<path class="st17" d="M1846.9-0.1c-39,114-21,163,7,194c36,42,5,107-50,105c-21-1-40,1-59,5c-12-15-26-29-43-41
		c-28.3-20.2-34.9-59.6-14.7-87.9c9.3-13,23.1-21.9,38.7-25.1C1765.9,140.9,1808.9,111.9,1846.9-0.1z"/>
	<path class="st2" d="M1846.9-0.1c-12,55-28,130,10,177l8,9c14,16,21,38,19,59c-4.1,40.5-38.3,71.2-79,71c-19,0-38,1-57,5l-11,2
		c-12-17-26-32-44-45c-33.8-24.3-43-70.7-21-106c10-18,29-31,49-35c8-1,15-3,22-6C1794.9,109.9,1823.9,47.9,1846.9-0.1z M1846.9-0.1
		c-12,51-31,106-72,141c-14,11-30,18-47,23c-25.6,6.8-40.9,33.1-34,58.7c0.9,3.6,2.3,7,4,10.3v1l1,1l4,6l9,8c18,13,34,27,47,44
		l-18-7c20-4,41-5,62-4h5c7,0,14-2,20-5c17-9,27-28,26-47c-1-10-4-19-11-27c-10-12-18-27-22-42C1805.9,106.9,1824.9,47.9,1846.9-0.1
		z"/>
	<path class="st18" d="M1809.9,111.9c-25,72-13,103,4,123c23,26,3,67-32,66s-25,0-37,3c-7-10-16-18-27-26c-17.7-13.2-21.3-38.3-8-56
		c5.7-7.6,13.8-12.9,23-15C1758.9,200.9,1785.9,181.9,1809.9,111.9z"/>
	<path class="st2" d="M1809.9,111.9c-6,29-13,64-3,93c3,7,7,15,13,21l2,3c18.3,21.4,15.7,53.6-5.7,71.9
		c-8.5,7.2-19.1,11.5-30.3,12.1h-9c-12,0-25,2-37,5l-5-7c-7-9-16-17-25-24c-22.2-17.3-26.2-49.3-8.9-71.6c0.9-1.2,1.9-2.3,2.9-3.4
		c7-8,16-13,26-15l4-1l16-5C1777.9,175.9,1795.9,138.9,1809.9,111.9z M1809.9,111.9c-7,30-18,63-40,85c-9.8,9.3-21.9,15.9-35,19
		c-22,7-29,36-11,51c11,8,22,18,31,29l-12-4c13-3,26-4,40-3l8-1c15.9-4.7,24.9-21.4,20.2-37.3c-0.9-3.1-2.3-6-4.2-8.7l-4-6
		c-4-5-7-11-9-18C1781.9,183.9,1794.9,142.9,1809.9,111.9z"/>
	<path class="st17" d="M853.9,2699.9c38-114,20-163-7-194c-23.2-25.9-21.1-65.7,4.8-89c12.4-11.1,28.6-16.9,45.2-16c20,1,40-1,59-5
		c11,15,26,28,42,40c28.8,19.5,36.4,58.6,16.9,87.5c-9.3,13.8-23.7,23.3-39.9,26.5C934.9,2558.9,891.9,2587.9,853.9,2699.9z"/>
	<path class="st2" d="M853.9,2699.9c11-55,27-130-11-178l-7-8c-14.5-16-21.5-37.5-19-59c4.1-40.5,38.3-71.2,79-71c19,0,38-1,57-5
		l10-2c13,17,27,32,44,45c34.2,24,43.8,70.4,22,106c-11,18.1-29.2,30.8-50,35l-22,6C905.9,2589.9,876.9,2651.9,853.9,2699.9z
		 M853.9,2699.9c12-51,31-106,72-141c14-11,30-19,47-23c25.6-6.8,40.9-33.1,34-58.7c-0.9-3.6-2.3-7-4-10.3l-1-1v-1l-4-6l-10-9
		c-17-12-33-26-46-43l18,6c-21,4-41,6-62,5h-5c-7,0-14,2-20,5c-17,9-28,28-26,47c1,10,4,19,10,27c11,12,19,27,23,42
		C894.9,2591.9,875.9,2651.9,853.9,2699.9z"/>
	<path class="st18" d="M890.9,2587.9c24-72,13-103-4-123c-23-26-4-67,31-66c13,0,25-1,38-3c7,9,16,18,26,25c28,21,19,64-14,72
		C941.9,2498.9,914.9,2516.9,890.9,2587.9z"/>
	<path class="st2" d="M890.9,2587.9c6-29,13-64,3-93c-3-8-7-15-13-21l-2-3c-7-7-11-16-13-26c-4-29,19-57,49-58h8c13,0,26-2,38-5l5,7
		c6,9,15,17,25,24c24,18,26,54,6,75c-7,7-17,13-26,15h-4l-16,6C922.9,2523.9,904.9,2560.9,890.9,2587.9z M890.9,2587.9
		c6-30,18-63,40-85c9.7-9.7,21.7-16.6,35-20c22-6,29-36,11-50c-12-8-22-18-31-29l12,4c-13,3-27,4-40,3l-8,1
		c-15.9,4.7-24.9,21.4-20.2,37.3c0.9,3.1,2.3,6,4.2,8.7l4,5c3,6,7,12,9,19C918.9,2515.9,905.9,2556.9,890.9,2587.9z"/>
	<path class="st17" d="M1846.9,2699.9c-39-114-21-163,7-194c36-42,5-107-50-105c-21,1-40-1-59-5c-12,15-26,28-43,40
		c-28.7,19.6-36.2,58.8-16.6,87.5c9.5,13.9,24.1,23.4,40.6,26.5C1765.9,2558.9,1808.9,2587.9,1846.9,2699.9z"/>
	<path class="st2" d="M1846.9,2699.9c-22-49-41-108-26-161c4-15,12-30,22-42c7-8,10-18,11-27c1-19-9-38-26-47c-6-3-13-5-20-5h-5
		c-21,1-42-1-62-5l18-6c-13,17-29,31-47,43l-9,9l-4,6l-1,1v1c-12.1,24.2-2.4,53.6,21.8,65.8c2.6,1.3,5.4,2.4,8.2,3.2
		c16,4,31,11,44,21C1814.9,2590.9,1834.9,2647.9,1846.9,2699.9z M1846.9,2699.9c-23-48-53-110-104-131c-7-3-14-5-22-6
		c-20-4-39-17-49-35c-21.8-35.6-12.2-82,22-106c17-13,31-28,43-45l11,2c19,4,38,5,57,5c7,0,14,0,20,2c32,8,56,37,59,69
		c2,21-5,43-19,58l-8,9C1818.9,2569.9,1834.9,2644.9,1846.9,2699.9z"/>
	<path class="st18" d="M1809.9,2587.9c-25-72-13-103,4-123c23-26,3-67-32-66c-12,0-25-1-37-3c-7,9-16,18-27,25
		c-18.1,12.7-22.5,37.6-9.9,55.7c5.9,8.4,14.8,14.3,24.9,16.3C1758.9,2498.9,1785.9,2516.9,1809.9,2587.9z"/>
	<path class="st2" d="M1809.9,2587.9c-15-31-28-72-16-106c2-7,5-13,9-18l4-6c3-4,5-9,6-13c2-15-8-30-22-33l-8-1c-13,1-27,0-40-3
		l12-4c-9,11-19,21-31,29c-12.2,10.4-13.6,28.7-3.3,40.9c3.7,4.4,8.7,7.6,14.3,9.1l17,7c6,3,12,8,18,13
		C1791.9,2524.9,1802.9,2557.9,1809.9,2587.9z M1809.9,2587.9c-14-27-32-64-60-79c-5-3-11-5-16-6l-4-1c-10-2-19-7-26-14
		c-19.5-20.3-18.9-52.6,1.4-72.1c1.4-1.4,3-2.7,4.6-3.9c9-7,18-15,25-24l5-6c12,3,25,5,37,5h9c28.1,1.6,49.7,25.6,48.1,53.7
		c-0.6,11.1-4.9,21.8-12.1,30.3l-2,3c-6,6-10,13-13,21c-4,12-5,25-5,37C1802.9,2550.9,1805.9,2569.9,1809.9,2587.9z"/>
	<path class="st17" d="M2699.9,853.9c-113,38-162,20-194-7c-25.9-23.2-65.7-21.1-89,4.8c-11.1,12.4-16.9,28.6-16,45.2
		c1,20,0,40-4,59c15,11,28,25,40,42c20.1,28.4,59.4,35.2,87.8,15.1c12.9-9.1,21.8-22.7,25.2-38.1
		C2558.9,933.9,2587.9,890.9,2699.9,853.9z"/>
	<path class="st2" d="M2699.9,853.9c-48,22-107,41-160,26c-16-5-30-13-43-23c-8-6-17-10-27-11c-19-1-38,9-46,26c-4,6-5,13-6,20v6
		c1,20,0,41-4,61l-7-17c17,13,32,29,44,46c2,3,5,7,9,9l5,4l1,1h1c24.2,12.1,53.6,2.4,65.8-21.8c1.3-2.6,2.4-5.4,3.2-8.2
		c4-15,11-31,21-44C2590.9,884.9,2648.9,864.9,2699.9,853.9z M2699.9,853.9c-47,22-110,52-131,103c-3,7-4,14-6,22c-4,20-17,39-35,50
		c-35.6,21.8-82,12.2-106-22c-12-17-28-32-45-44l2-11c4-18,5-38,5-57l2-20c8-32,37-56,69-59c21-2,43,5,59,19l9,8
		C2569.9,880.9,2644.9,864.9,2699.9,853.9z"/>
	<path class="st18" d="M2588.9,890.9c-72,24-103,13-123-5c-27-23-68-3-67,32c1,13,0,25-3,37c10,7,18,16,26,27c20,28,64,19,72-15
		C2498.9,941.9,2517.9,913.9,2588.9,890.9z"/>
	<path class="st2" d="M2588.9,890.9c-32,14-72,28-107,16l-18-10l-5-4c-4-3-9-5-14-6c-14-2-30,8-33,23v7c0,14-1,27-3,41l-5-13
		c12,9,21,20,29,32c15,18,45,11,51-11l6-17c4-7,8-13,13-18C2524.9,907.9,2558.9,896.9,2588.9,890.9z M2588.9,890.9
		c-28,13-64,31-79,59c-3,5-5,11-6,17l-1,3c-2,10-7,20-14,26c-20.3,19.5-52.6,18.9-72.1-1.4c-1.4-1.4-2.7-3-3.9-4.6c-7-9-15-18-24-25
		l-6-5c3-12,4-24,4-37v-9c1-29,29-52,58-48c10,1,19,6,26,12l3,3c6,5,14,9,22,12c11,4,24,5,37,5
		C2551.9,896.9,2569.9,893.9,2588.9,890.9z"/>
	<path class="st17" d="M2699.9,1845.9c-113-38-162-20-194,7c-25.9,23.2-65.7,21.1-89-4.8c-11.1-12.4-16.9-28.6-16-45.2
		c1-20,0-40-4-59c15-11,28-25,40-42c20.1-28.4,59.4-35.2,87.8-15.1c12.9,9.1,21.8,22.7,25.2,38.1
		C2558.9,1764.9,2587.9,1808.9,2699.9,1845.9z"/>
	<path class="st2" d="M2699.9,1845.9c-55-11-130-27-177,11l-9,7c-15.6,14.6-36.7,21.9-58,20c-40.9-3.6-72.2-38-72-79c1-20-1-39-4-57
		l-3-11c17-12,33-27,45-44c24-34.2,70.4-43.8,106-22c18,11,31,30,35,50c2,7,3,15,6,22C2589.9,1793.9,2652.9,1822.9,2699.9,1845.9z
		 M2699.9,1845.9c-50-11-106-30-140-72c-11-13-19-30-24-47c-6.8-25.6-33.1-40.9-58.7-34c-3.6,0.9-7,2.3-10.3,4l-1,1l-1,1l-5,4
		c-4,2-7,6-9,9c-12,17-27,33-44,46l7-17c4,20,5,41,5,61v5c0,8,1,14,5,21c8,17,27,27,46,26c10-1,19-5,27-11c13-10,27-18,43-23
		C2592.9,1804.9,2651.9,1823.9,2699.9,1845.9z"/>
	<path class="st18" d="M2588.9,1808.9c-72-24-103-13-123,5c-27,23-68,3-67-32s0-25-3-37c10-7,18-16,26-27c20-28,64-19,72,15
		C2498.9,1757.9,2517.9,1784.9,2588.9,1808.9z"/>
	<path class="st2" d="M2588.9,1808.9c-29-5-65-12-93-2c-8,2-16,7-22,12l-3,3c-7,6-16,11-26,12c-29,4-57-19-58-49v-8c0-13-1-25-4-38
		l6-4c9-7,17-16,24-25c18-25,54-27,76-7c7,7,12,17,14,27l1,3c1,6,3,12,6,17C2524.9,1777.9,2560.9,1794.9,2588.9,1808.9z
		 M2588.9,1808.9c-30-6-64-17-86-40c-9.3-9.8-15.9-21.9-19-35c-6-22-36-29-51-11c-8,12-17,23-29,32l5-13c2,13,3,27,3,40v8
		c3.9,16.1,20.2,26,36.3,22c3.9-0.9,7.5-2.7,10.7-5l5-4c6-4,12-8,18-10C2516.9,1780.9,2556.9,1793.9,2588.9,1808.9z"/>
	<path class="st17" d="M0.9,853.9c113,38,162,20,194-7c41-37,106-5,104,50c0,20,1,40,5,59c-15,11-28,25-40,42c-32,44-101,30-113-23
		s-39-84-151-121H0.9z"/>
	<path class="st2" d="M0.9,853.9c55,11,130,27,177-11l9-8c15-14,37-21,58-19c40.9,3.6,72.2,38,72,79c-1,19,0,39,4,57l2,11
		c-16,12-32,27-44,44c-24,34.2-70.4,43.8-106,22c-18.1-11-30.8-29.2-35-50l-6-22c-21-51-84-80-132-103H0.9z M0.9,853.9
		c50,11,106,30,140,72c11,13,19,30,23,46c6.6,25.7,32.7,41.2,58.4,34.7c4.1-1,8-2.6,11.6-4.7h1l1-1l5-4c4-2,6-6,9-9
		c12-18,27-33,44-46l-7,17c-4-20-5-41-5-61v-6c0-7-2-14-5-20c-8-17-28-27-46-26c-10,1-19,5-27,11c-13,10-27,18-43,23
		c-53,15-112-4-161-26H0.9z"/>
	<path class="st18" d="M111.9,890.9c72,24,103,13,123-5c26-23,67-3,66,32s1,25,3,37c-9,7-18,16-25,27c-12.7,18.1-37.6,22.5-55.7,9.9
		c-8.4-5.9-14.3-14.8-16.3-24.9C201.9,941.9,182.9,913.9,111.9,890.9z"/>
	<path class="st2" d="M111.9,890.9c29,5,65,12,93,2c8-2,15-7,21-12l3-3c7-6,17-11,26-12c30-4,57,19,59,48v9c-1,13,1,25,4,37l-6,5
		c-9,7-17,16-24,25c-17,22.5-49,26.9-71.4,9.9c-1.6-1.2-3.1-2.5-4.6-3.9c-7-6-12-16-14-26l-1-3c-1-6-3-12-6-17
		C175.9,921.9,139.9,903.9,111.9,890.9z M111.9,890.9c30,6,63,17,85,40c9.7,9.7,16.6,21.7,20,35c6,22,36,29,50,11c9-12,18-23,30-32
		l-5,13c-3-14-4-27-3-40l-1-8c-4.3-16-20.7-25.5-36.7-21.3c-3.3,0.9-6.5,2.3-9.3,4.3l-5,4l-19,10
		C183.9,918.9,143.9,904.9,111.9,890.9z"/>
	<path class="st17" d="M0.9,1845.9c113-38,162-20,194,7c41,36,106,5,104-50c0-20,1-40,5-59c-15-11-28-25-40-42
		c-20.1-28.4-59.4-35.2-87.8-15.1c-12.9,9.1-21.8,22.7-25.2,38.1c-9,40-39,84-151,121H0.9z"/>
	<path class="st2" d="M0.9,1845.9c48-22,107-41,160-26c16,5,30,13,43,23c8,6,17,10,27,11c19,1,38-9,46-26c3-7,5-14,5-21v-5
		c0-20,1-41,5-61l7,17c-17-13-32-29-44-46c-2-3-5-7-9-9l-5-4l-1-1l-1-1c-24.2-12.1-53.6-2.4-65.8,21.8c-1.3,2.6-2.4,5.4-3.2,8.2
		c-5,16-12,32-22,44C109.9,1814.9,51.9,1834.9,0.9,1845.9z M0.9,1845.9c47-23,110-52,131-103l6-22c4-20,17-39,35-50s40-14,61-9
		c18,4,34,16,45,31c12,17,28,32,44,44l-2,11c-4,18-5,38-4,57l-3,20c-7,31-37,56-69,59c-21,2-43-5-58-20l-9-7
		C130.9,1818.9,55.9,1834.9,0.9,1845.9z"/>
	<path class="st18" d="M111.9,1808.9c72-24,103-13,123,5c26,23,67,3,66-32c0-13,1-25,3-37c-9-7-18-16-25-27c-20-28-64-19-72,15
		S182.9,1784.9,111.9,1808.9z"/>
	<path class="st2" d="M111.9,1808.9c32-15,72-28,106-16c7,2,13,6,19,10l5,4c4,3,9,5,14,5c14,3,29-7,32-22l1-8c-1-13,0-26,3-40l4,13
		c-11-9-21-20-29-32c-14-18-44-11-50,11l-7,17c-3,7-8,13-13,18C174.9,1791.9,141.9,1802.9,111.9,1808.9z M111.9,1808.9
		c28-14,64-31,79-59c3-5,5-11,6-17l1-3c2-10,7-20,14-27c22-20,58-17,76,7c7,9,15,18,24,25l6,4c-3,13-5,25-4,38v8c-2,30-29,53-58,49
		c-10-1-20-6-27-12l-3-3c-6-6-13-10-21-13c-12-4-25-5-37-4C148.9,1801.9,129.9,1805.9,111.9,1808.9z"/>
	<circle class="st19" cx="613.5" cy="166.6" r="54.1"/>
	<circle class="st20" cx="618.6" cy="142.9" r="13.7"/>
	<circle class="st19" cx="2076.2" cy="166.6" r="54.1"/>
	<circle class="st20" cx="2081.3" cy="142.9" r="13.7"/>
	<circle class="st19" cx="613.5" cy="2534.3" r="54.1"/>
	<circle class="st20" cx="618.6" cy="2510.6" r="13.7"/>
	<circle class="st19" cx="2076.2" cy="2534.3" r="54.1"/>
	<circle class="st20" cx="2081.3" cy="2510.6" r="13.7"/>
	<circle class="st19" cx="2528.7" cy="619.1" r="54.1"/>
	<circle class="st20" cx="2552.4" cy="624.2" r="13.7"/>
	<circle class="st19" cx="2528.7" cy="2081.8" r="54.1"/>
	<circle class="st20" cx="2533.8" cy="2058.1" r="13.7"/>
	<circle class="st19" cx="161" cy="619.1" r="54.1"/>
	<circle class="st20" cx="184.7" cy="624.2" r="13.7"/>
	<circle class="st19" cx="161" cy="2081.8" r="54.1"/>
	<circle class="st20" cx="166.1" cy="2058.1" r="13.7"/>
</g>
</svg>
