<svg id="b" xmlns="http://www.w3.org/2000/svg" viewBox="0 0 126.7 85.3">
  <defs>
    <style>
      .d{fill:none;stroke:#595959;stroke-miterlimit:10;stroke-width:3px}
    </style>
  </defs>
  <g id="c">
    <path class="d" d="m20 85 6-15 1-2 3-1 2-1h4l3-1 3-1h11l10 7c2-7-2-11-10-14-10-3-12-10-6-19l5-3 5 2c1 3 3 5 6 5l-2-8-1-1-8-6h-1l-4 2c-2 1 0 0 0 0l-9 8"/>
    <path class="d" d="m47 30 5-12c3-4 5-8 5-11l-2-4-8 11v1l-8 14-5 7c-4 6-9 13-16 20s-1 1-1 2L1 85"/>
    <path class="d" d="M48 14c1-5 1-9-2-10-1 5-2 10-5 15l-6 15"/>
    <path class="d" d="M41 19c0-3 0-6-2-7l-3 13c-1 4 0 0 0 0l-1 9m72 51-7-15-1-2-3-1-1-1h-4l-3-1-4-1H74c-4 1-7 4-10 7-2-7 2-11 10-14 10-3 12-10 5-19l-5-3-4 2c-1 3-3 5-7 5l3-8v-1l8-6h2l3 2h1l8 8"/>
    <path class="d" d="m80 30-5-12c-3-4-5-8-5-11l2-4 7 11 1 1 8 14 4 7a115 115 0 0 0 18 22l15 27"/>
    <path class="d" d="M79 14c-1-5-1-9 2-10l4 15 6 15"/>
    <path class="d" d="M85 19c0-3 1-6 3-7l3 13v9"/>
  </g>
</svg>
