<svg id="b" xmlns="http://www.w3.org/2000/svg" viewBox="0 0 124.1 118">
  <defs>
    <style>
      .d{fill:#595959;stroke-width:0}
    </style>
  </defs>
  <g id="c">
    <path class="d" d="M72 91c-3 2-6 2-8 2l-8-1c-4 8-9 13-18 13-13 0-23-16-23-46s10-47 24-47 20 12 22 32h3c5 0 9 2 13 5C75 18 61 0 39 0S0 21 0 59c0 37 15 58 38 58s28-9 34-26Z"/>
    <path class="d" d="M80 68c0 14-8 22-17 22s-15-7-15-21 7-21 16-21 16 7 16 20Zm-25 1c0 8 3 15 9 15s9-7 9-16-3-15-9-15-9 7-9 16Zm8 49 40-70h6l-40 70h-6Zm61-22c0 14-7 22-16 22s-16-7-16-21 7-21 16-21 16 7 16 20Zm-25 1c0 8 3 15 9 15s9-7 9-16-3-15-9-15-9 7-9 16Z"/>
  </g>
</svg>
