<?xml version="1.0" encoding="UTF-8"?><svg id="b" xmlns="http://www.w3.org/2000/svg" viewBox="0 0 127.1 86.1"><defs><style>.d,.e{fill:none;stroke:#595959;stroke-miterlimit:10;stroke-width:3px;}.e{stroke-linecap:round;}</style></defs><g id="c"><path class="e" d="m20.1,84.6l6.6-15c.2-.4.5-.8.9-1.1l2.8-2c.5-.4,1.1-.6,1.7-.6l3.8-.3c1,0,2.1-.3,3.1-.6l3.7-1.1c1-.3,2.1-.4,3.1-.4h3.8c1.1,0,2.1.2,3.2.5,3.7,1.3,7.1,3.7,9.9,6.6,2.4-6.2-1.7-10.5-10-13.5-9.6-3.5-11.4-9.9-5.2-19.1,2-.7,3.7-1.8,5-3.3,1.3,1.2,2.8,2,4.4,2.3,1.5,3.2,3.5,5.4,6.7,5.1l-2.5-8c-.1-.3-.3-.6-.6-.9-3-2.5-6.4-5.4-8.1-6.4s-.8-.3-1.2,0c-1,.5-2.3,1.3-3.5,2.1s-.5.3-.7.5l-8.4,7.6"/><path class="e" d="m46.8,29.5l5.2-11.4c2.7-4.1,4.7-7.9,4.8-11.2.1-1.7-.4-3.2-1.7-4.4-2.1,4.7-4.5,8.6-7.5,11.7-.2.2-.3.3-.4.5l-8.5,13.8-4.1,7.1c-4.1,6.7-9.6,13.5-16.3,20.3s-1.1,1.2-1.5,1.9L1.5,84.6"/><path class="d" d="m48,13.6c1.2-4.7,1.2-8.4-2.1-9.7-.6,5.3-2,10.2-4.2,14.7l-6,14.9"/><path class="d" d="m41.6,18.7c-.2-3.1-.5-6.1-2.4-6.8-.6,4.5-1.8,8.8-3.4,13s-.1.4-.1.6l-.2,8.4"/><path class="e" d="m107,84.6l-6.6-15c-.2-.4-.5-.8-.9-1.1l-2.8-2c-.5-.4-1.1-.6-1.7-.6l-3.8-.3c-1,0-2.1-.3-3.1-.6l-3.7-1.1c-1-.3-2.1-.4-3.1-.4h-3.8c-1.1,0-2.1.2-3.2.5-3.7,1.3-7.1,3.7-9.9,6.6-2.4-6.2,1.7-10.5,10-13.5,9.6-3.5,11.4-9.9,5.2-19.1-2-.7-3.7-1.8-5-3.3-1.3,1.2-2.8,2-4.4,2.3-1.5,3.2-3.5,5.4-6.7,5.1l2.5-8c.1-.3.3-.6.6-.9,3-2.5,6.4-5.4,8.1-6.4s.8-.3,1.2,0c1,.5,2.3,1.3,3.5,2.1s.5.3.7.5l8.4,7.6"/><path class="e" d="m80.4,29.5l-5.2-11.4c-2.7-4.1-4.7-7.9-4.8-11.2-.1-1.7.4-3.2,1.7-4.4,2.1,4.7,4.5,8.6,7.5,11.7.2.2.3.3.4.5l8.5,13.8,4.1,7.1c4.1,6.7,9.6,13.5,16.3,20.3.6.6,1.1,1.2,1.5,1.9l15.1,26.7"/><path class="d" d="m79.1,13.6c-1.2-4.7-1.2-8.4,2.1-9.7.6,5.3,2,10.2,4.2,14.7l6,14.9"/><path class="d" d="m85.5,18.7c.2-3.1.5-6.1,2.4-6.8.6,4.5,1.8,8.8,3.4,13,0,.2.1.4.1.6l.2,8.4"/></g></svg>